  0
SECTION
  2
HEADER
  9
$INSBASE
 10
0.0000
 20
0.0000
  9
$EXTMIN
 10
-0.031208656249551287
 20
-0.65520865621835145
  9
$EXTMAX
 10
0.060608656249551286
 20
0.65520865621835145
  9
$LIMMIN
 10
-0.031208656249551287
 20
-0.65520865621835145
  9
$LIMMAX
 10
0.060608656249551286
 20
0.65520865621835145
  9
$TEXTSTYLE
  7
STANDARD
  9
$CLAYER
  8
default
  0
ENDSEC
  0
SECTION
  2
TABLES
  0
TABLE
  2
LTYPE
 70
4948253
  0
LTYPE
  2
CONTINUOUS
 70
    64
  3
Solid line
 72
    65
 73
     0
 40
0.0
  0
ENDTAB
  0
TABLE
  2
LAYER
 70
     5
  0
LAYER
  2
default
 70
    64
 62
     7
  6
CONTINUOUS
  0
LAYER
  2
layer2
 70
    64
 62
     7
  6
CONTINUOUS
  0
LAYER
  2
layer1
 70
    64
 62
     7
  6
CONTINUOUS
  0
LAYER
  2
layer3
 70
    64
 62
     7
  6
CONTINUOUS
  0
LAYER
  2
layer4
 70
    64
 62
     7
  6
CONTINUOUS
  0
LAYER
  2
layer6
 70
    64
 62
     7
  6
CONTINUOUS
  0
LAYER
  2
layer5
 70
    64
 62
     7
  6
CONTINUOUS
  0
ENDTAB
  0
TABLE
  2
STYLE
 70
     1
  0
STYLE
  2
STANDARD
 70
     0
 40
0.0
 41
1.0
 50
0.0
 71
     0
 42
0.2
  3
txt
  4

  0
ENDTAB
  0
TABLE
  2
VIEW
 70
     0
  0
ENDTAB
  0
ENDSEC
  0
SECTION
  2
BLOCKS
  0
ENDSEC
  0
SECTION
  2
ENTITIES
  0
LINE
  8
default
 10
0
 20
-0.62399999996880018
 30
0.0
 11
0
 21
-0.51999999997400015
 31
0.0
  0
LINE
  8
default
 10
0
 20
0.62399999996880018
 30
0.0
 11
0.029399999999999999
 21
0.62399999996880018
 31
0.0
  0
LINE
  8
default
 10
0.029399999999999999
 20
0.62399999996880018
 30
0.0
 11
0.029399999999999999
 21
-0.62399999996880018
 31
0.0
  0
LINE
  8
default
 10
0.029399999999999999
 20
-0.62399999996880018
 30
0.0
 11
0
 21
-0.62399999996880018
 31
0.0
  0
LINE
  8
layer2
 10
0.0075000000000000006
 20
-0.029999999998500008
 30
0.0
 11
0.0075000000000000006
 21
-0.024066666665500006
 31
0.0
  0
LINE
  8
layer2
 10
0.0075000000000000006
 20
-0.024066666665500006
 30
0.0
 11
0.0123
 21
-0.024066666665500006
 31
0.0
  0
LINE
  8
layer1
 10
0.0123
 20
-0.024066666665500006
 30
0.0
 11
0.0123
 21
-0.029999999998500008
 31
0.0
  0
LINE
  8
layer2
 10
0.0123
 20
-0.029999999998500008
 30
0.0
 11
0.0075000000000000006
 21
-0.029999999998500008
 31
0.0
  0
LINE
  8
layer2
 10
0.0075000000000000006
 20
-0.023266666665500004
 30
0.0
 11
0.0075000000000000006
 21
-0.017333333332500003
 31
0.0
  0
LINE
  8
layer2
 10
0.0075000000000000006
 20
-0.017333333332500003
 30
0.0
 11
0.0123
 21
-0.017333333332500003
 31
0.0
  0
LINE
  8
layer1
 10
0.0123
 20
-0.017333333332500003
 30
0.0
 11
0.0123
 21
-0.023266666665500004
 31
0.0
  0
LINE
  8
layer2
 10
0.0123
 20
-0.023266666665500004
 30
0.0
 11
0.0075000000000000006
 21
-0.023266666665500004
 31
0.0
  0
LINE
  8
layer2
 10
0.0075000000000000006
 20
-0.016533333332500007
 30
0.0
 11
0.0075000000000000006
 21
-0.010599999999500006
 31
0.0
  0
LINE
  8
layer2
 10
0.0075000000000000006
 20
-0.010599999999500006
 30
0.0
 11
0.0123
 21
-0.010599999999500006
 31
0.0
  0
LINE
  8
layer1
 10
0.0123
 20
-0.010599999999500006
 30
0.0
 11
0.0123
 21
-0.016533333332500007
 31
0.0
  0
LINE
  8
layer2
 10
0.0123
 20
-0.016533333332500007
 30
0.0
 11
0.0075000000000000006
 21
-0.016533333332500007
 31
0.0
  0
LINE
  8
layer2
 10
0.0075000000000000006
 20
-0.0097999999995000038
 30
0.0
 11
0.0075000000000000006
 21
-0.0038666666665000031
 31
0.0
  0
LINE
  8
layer2
 10
0.0075000000000000006
 20
-0.0038666666665000031
 30
0.0
 11
0.0123
 21
-0.0038666666665000031
 31
0.0
  0
LINE
  8
layer1
 10
0.0123
 20
-0.0038666666665000031
 30
0.0
 11
0.0123
 21
-0.0097999999995000038
 31
0.0
  0
LINE
  8
layer2
 10
0.0123
 20
-0.0097999999995000038
 30
0.0
 11
0.0075000000000000006
 21
-0.0097999999995000038
 31
0.0
  0
LINE
  8
layer2
 10
0.0075000000000000006
 20
-0.0030666666665000036
 30
0.0
 11
0.0075000000000000006
 21
0.002866666666499997
 31
0.0
  0
LINE
  8
layer2
 10
0.0075000000000000006
 20
0.002866666666499997
 30
0.0
 11
0.0123
 21
0.002866666666499997
 31
0.0
  0
LINE
  8
layer1
 10
0.0123
 20
0.002866666666499997
 30
0.0
 11
0.0123
 21
-0.0030666666665000036
 31
0.0
  0
LINE
  8
layer2
 10
0.0123
 20
-0.0030666666665000036
 30
0.0
 11
0.0075000000000000006
 21
-0.0030666666665000036
 31
0.0
  0
LINE
  8
layer2
 10
0.0075000000000000006
 20
0.0036666666664999965
 30
0.0
 11
0.0075000000000000006
 21
0.0095999999994999981
 31
0.0
  0
LINE
  8
layer2
 10
0.0075000000000000006
 20
0.0095999999994999981
 30
0.0
 11
0.0123
 21
0.0095999999994999981
 31
0.0
  0
LINE
  8
layer1
 10
0.0123
 20
0.0095999999994999981
 30
0.0
 11
0.0123
 21
0.0036666666664999965
 31
0.0
  0
LINE
  8
layer2
 10
0.0123
 20
0.0036666666664999965
 30
0.0
 11
0.0075000000000000006
 21
0.0036666666664999965
 31
0.0
  0
LINE
  8
layer2
 10
0.0075000000000000006
 20
0.0103999999995
 30
0.0
 11
0.0075000000000000006
 21
0.016333333332500002
 31
0.0
  0
LINE
  8
layer2
 10
0.0075000000000000006
 20
0.016333333332500002
 30
0.0
 11
0.0123
 21
0.016333333332500002
 31
0.0
  0
LINE
  8
layer1
 10
0.0123
 20
0.016333333332500002
 30
0.0
 11
0.0123
 21
0.0103999999995
 31
0.0
  0
LINE
  8
layer2
 10
0.0123
 20
0.0103999999995
 30
0.0
 11
0.0075000000000000006
 21
0.0103999999995
 31
0.0
  0
LINE
  8
layer2
 10
0.0075000000000000006
 20
0.017133333332499997
 30
0.0
 11
0.0075000000000000006
 21
0.023066666665499998
 31
0.0
  0
LINE
  8
layer2
 10
0.0075000000000000006
 20
0.023066666665499998
 30
0.0
 11
0.0123
 21
0.023066666665499998
 31
0.0
  0
LINE
  8
layer1
 10
0.0123
 20
0.023066666665499998
 30
0.0
 11
0.0123
 21
0.017133333332499997
 31
0.0
  0
LINE
  8
layer2
 10
0.0123
 20
0.017133333332499997
 30
0.0
 11
0.0075000000000000006
 21
0.017133333332499997
 31
0.0
  0
LINE
  8
layer2
 10
0.0075000000000000006
 20
0.023866666665500001
 30
0.0
 11
0.0075000000000000006
 21
0.029799999998500002
 31
0.0
  0
LINE
  8
layer2
 10
0.0075000000000000006
 20
0.029799999998500002
 30
0.0
 11
0.0123
 21
0.029799999998500002
 31
0.0
  0
LINE
  8
layer1
 10
0.0123
 20
0.029799999998500002
 30
0.0
 11
0.0123
 21
0.023866666665500001
 31
0.0
  0
LINE
  8
layer2
 10
0.0123
 20
0.023866666665500001
 30
0.0
 11
0.0075000000000000006
 21
0.023866666665500001
 31
0.0
  0
LINE
  8
layer2
 10
0.0075000000000000006
 20
0.030599999998500004
 30
0.0
 11
0.0075000000000000006
 21
0.036533333331500002
 31
0.0
  0
LINE
  8
layer2
 10
0.0075000000000000006
 20
0.036533333331500002
 30
0.0
 11
0.0123
 21
0.036533333331500002
 31
0.0
  0
LINE
  8
layer1
 10
0.0123
 20
0.036533333331500002
 30
0.0
 11
0.0123
 21
0.030599999998500004
 31
0.0
  0
LINE
  8
layer2
 10
0.0123
 20
0.030599999998500004
 30
0.0
 11
0.0075000000000000006
 21
0.030599999998500004
 31
0.0
  0
LINE
  8
layer2
 10
0.0075000000000000006
 20
0.037333333331500004
 30
0.0
 11
0.0075000000000000006
 21
0.043266666664500006
 31
0.0
  0
LINE
  8
layer2
 10
0.0075000000000000006
 20
0.043266666664500006
 30
0.0
 11
0.0123
 21
0.043266666664500006
 31
0.0
  0
LINE
  8
layer1
 10
0.0123
 20
0.043266666664500006
 30
0.0
 11
0.0123
 21
0.037333333331500004
 31
0.0
  0
LINE
  8
layer2
 10
0.0123
 20
0.037333333331500004
 30
0.0
 11
0.0075000000000000006
 21
0.037333333331500004
 31
0.0
  0
LINE
  8
layer2
 10
0.0075000000000000006
 20
0.044066666664500001
 30
0.0
 11
0.0075000000000000006
 21
0.049999999997500003
 31
0.0
  0
LINE
  8
layer2
 10
0.0075000000000000006
 20
0.049999999997500003
 30
0.0
 11
0.0123
 21
0.049999999997500003
 31
0.0
  0
LINE
  8
layer1
 10
0.0123
 20
0.049999999997500003
 30
0.0
 11
0.0123
 21
0.044066666664500001
 31
0.0
  0
LINE
  8
layer2
 10
0.0123
 20
0.044066666664500001
 30
0.0
 11
0.0075000000000000006
 21
0.044066666664500001
 31
0.0
  0
LINE
  8
layer3
 10
0
 20
-0.51999999997400015
 30
0.0
 11
0
 21
-0.49999999997400013
 31
0.0
  0
LINE
  8
layer3
 10
0
 20
-0.49999999997400013
 30
0.0
 11
0
 21
-0.47999999997500015
 31
0.0
  0
LINE
  8
layer3
 10
0
 20
-0.49999999997400013
 30
0.0
 11
0.0050000000000000001
 21
-0.49999999997400013
 31
0.0
  0
LINE
  8
layer3
 10
0.0050000000000000001
 20
-0.49999999997400013
 30
0.0
 11
0.0050000000000000001
 21
-0.51999999997400015
 31
0.0
  0
LINE
  8
layer3
 10
0.0050000000000000001
 20
-0.51999999997400015
 30
0.0
 11
0
 21
-0.51999999997400015
 31
0.0
  0
LINE
  8
layer3
 10
0
 20
-0.47999999997500015
 30
0.0
 11
0
 21
-0.45999999997600011
 31
0.0
  0
LINE
  8
layer3
 10
0
 20
-0.47999999997500015
 30
0.0
 11
0.0050000000000000001
 21
-0.47999999997500015
 31
0.0
  0
LINE
  8
layer3
 10
0.0050000000000000001
 20
-0.47999999997500015
 30
0.0
 11
0.0050000000000000001
 21
-0.49999999997400013
 31
0.0
  0
LINE
  8
layer3
 10
0
 20
-0.45999999997600011
 30
0.0
 11
0
 21
-0.43999999997700012
 31
0.0
  0
LINE
  8
layer3
 10
0
 20
-0.45999999997600011
 30
0.0
 11
0.0050000000000000001
 21
-0.45999999997600011
 31
0.0
  0
LINE
  8
layer3
 10
0.0050000000000000001
 20
-0.45999999997600011
 30
0.0
 11
0.0050000000000000001
 21
-0.47999999997500015
 31
0.0
  0
LINE
  8
layer3
 10
0
 20
-0.43999999997700012
 30
0.0
 11
0
 21
-0.41999999997800008
 31
0.0
  0
LINE
  8
layer3
 10
0
 20
-0.43999999997700012
 30
0.0
 11
0.0050000000000000001
 21
-0.43999999997700012
 31
0.0
  0
LINE
  8
layer3
 10
0.0050000000000000001
 20
-0.43999999997700012
 30
0.0
 11
0.0050000000000000001
 21
-0.45999999997600011
 31
0.0
  0
LINE
  8
layer3
 10
0
 20
-0.41999999997800008
 30
0.0
 11
0
 21
-0.3999999999790001
 31
0.0
  0
LINE
  8
layer3
 10
0
 20
-0.41999999997800008
 30
0.0
 11
0.0050000000000000001
 21
-0.41999999997800008
 31
0.0
  0
LINE
  8
layer3
 10
0.0050000000000000001
 20
-0.41999999997800008
 30
0.0
 11
0.0050000000000000001
 21
-0.43999999997700012
 31
0.0
  0
LINE
  8
layer3
 10
0
 20
-0.3999999999790001
 30
0.0
 11
0
 21
-0.37999999998000011
 31
0.0
  0
LINE
  8
layer3
 10
0
 20
-0.3999999999790001
 30
0.0
 11
0.0050000000000000001
 21
-0.3999999999790001
 31
0.0
  0
LINE
  8
layer3
 10
0.0050000000000000001
 20
-0.3999999999790001
 30
0.0
 11
0.0050000000000000001
 21
-0.41999999997800008
 31
0.0
  0
LINE
  8
layer3
 10
0
 20
-0.37999999998000011
 30
0.0
 11
0
 21
-0.35999999998100007
 31
0.0
  0
LINE
  8
layer3
 10
0
 20
-0.37999999998000011
 30
0.0
 11
0.0050000000000000001
 21
-0.37999999998000011
 31
0.0
  0
LINE
  8
layer3
 10
0.0050000000000000001
 20
-0.37999999998000011
 30
0.0
 11
0.0050000000000000001
 21
-0.3999999999790001
 31
0.0
  0
LINE
  8
layer3
 10
0
 20
-0.35999999998100007
 30
0.0
 11
0
 21
-0.33999999998200009
 31
0.0
  0
LINE
  8
layer3
 10
0
 20
-0.35999999998100007
 30
0.0
 11
0.0050000000000000001
 21
-0.35999999998100007
 31
0.0
  0
LINE
  8
layer3
 10
0.0050000000000000001
 20
-0.35999999998100007
 30
0.0
 11
0.0050000000000000001
 21
-0.37999999998000011
 31
0.0
  0
LINE
  8
layer3
 10
0
 20
-0.33999999998200009
 30
0.0
 11
0
 21
-0.31999999998300011
 31
0.0
  0
LINE
  8
layer3
 10
0
 20
-0.33999999998200009
 30
0.0
 11
0.0050000000000000001
 21
-0.33999999998200009
 31
0.0
  0
LINE
  8
layer3
 10
0.0050000000000000001
 20
-0.33999999998200009
 30
0.0
 11
0.0050000000000000001
 21
-0.35999999998100007
 31
0.0
  0
LINE
  8
layer3
 10
0
 20
-0.31999999998300011
 30
0.0
 11
0
 21
-0.29999999998400007
 31
0.0
  0
LINE
  8
layer3
 10
0
 20
-0.31999999998300011
 30
0.0
 11
0.0050000000000000001
 21
-0.31999999998300011
 31
0.0
  0
LINE
  8
layer3
 10
0.0050000000000000001
 20
-0.31999999998300011
 30
0.0
 11
0.0050000000000000001
 21
-0.33999999998200009
 31
0.0
  0
LINE
  8
layer3
 10
0
 20
-0.29999999998400007
 30
0.0
 11
0
 21
-0.27999999998500008
 31
0.0
  0
LINE
  8
layer3
 10
0
 20
-0.29999999998400007
 30
0.0
 11
0.0050000000000000001
 21
-0.29999999998400007
 31
0.0
  0
LINE
  8
layer3
 10
0.0050000000000000001
 20
-0.29999999998400007
 30
0.0
 11
0.0050000000000000001
 21
-0.31999999998300011
 31
0.0
  0
LINE
  8
layer3
 10
0
 20
-0.27999999998500008
 30
0.0
 11
0
 21
-0.2599999999860001
 31
0.0
  0
LINE
  8
layer3
 10
0
 20
-0.27999999998500008
 30
0.0
 11
0.0050000000000000001
 21
-0.27999999998500008
 31
0.0
  0
LINE
  8
layer3
 10
0.0050000000000000001
 20
-0.27999999998500008
 30
0.0
 11
0.0050000000000000001
 21
-0.29999999998400007
 31
0.0
  0
LINE
  8
layer3
 10
0
 20
-0.2599999999860001
 30
0.0
 11
0
 21
-0.23999999998700008
 31
0.0
  0
LINE
  8
layer3
 10
0
 20
-0.2599999999860001
 30
0.0
 11
0.0050000000000000001
 21
-0.2599999999860001
 31
0.0
  0
LINE
  8
layer3
 10
0.0050000000000000001
 20
-0.2599999999860001
 30
0.0
 11
0.0050000000000000001
 21
-0.27999999998500008
 31
0.0
  0
LINE
  8
layer3
 10
0
 20
-0.23999999998700008
 30
0.0
 11
0
 21
-0.2199999999880001
 31
0.0
  0
LINE
  8
layer3
 10
0
 20
-0.23999999998700008
 30
0.0
 11
0.0050000000000000001
 21
-0.23999999998700008
 31
0.0
  0
LINE
  8
layer3
 10
0.0050000000000000001
 20
-0.23999999998700008
 30
0.0
 11
0.0050000000000000001
 21
-0.2599999999860001
 31
0.0
  0
LINE
  8
layer3
 10
0
 20
-0.2199999999880001
 30
0.0
 11
0
 21
-0.19999999998900006
 31
0.0
  0
LINE
  8
layer3
 10
0
 20
-0.2199999999880001
 30
0.0
 11
0.0050000000000000001
 21
-0.2199999999880001
 31
0.0
  0
LINE
  8
layer3
 10
0.0050000000000000001
 20
-0.2199999999880001
 30
0.0
 11
0.0050000000000000001
 21
-0.23999999998700008
 31
0.0
  0
LINE
  8
layer3
 10
0
 20
-0.19999999998900006
 30
0.0
 11
0
 21
-0.17999999999000008
 31
0.0
  0
LINE
  8
layer3
 10
0
 20
-0.19999999998900006
 30
0.0
 11
0.0050000000000000001
 21
-0.19999999998900006
 31
0.0
  0
LINE
  8
layer3
 10
0.0050000000000000001
 20
-0.19999999998900006
 30
0.0
 11
0.0050000000000000001
 21
-0.2199999999880001
 31
0.0
  0
LINE
  8
layer3
 10
0
 20
-0.17999999999000008
 30
0.0
 11
0
 21
-0.15999999999100009
 31
0.0
  0
LINE
  8
layer3
 10
0
 20
-0.17999999999000008
 30
0.0
 11
0.0050000000000000001
 21
-0.17999999999000008
 31
0.0
  0
LINE
  8
layer3
 10
0.0050000000000000001
 20
-0.17999999999000008
 30
0.0
 11
0.0050000000000000001
 21
-0.19999999998900006
 31
0.0
  0
LINE
  8
layer3
 10
0
 20
-0.15999999999100009
 30
0.0
 11
0
 21
-0.13999999999200005
 31
0.0
  0
LINE
  8
layer3
 10
0
 20
-0.15999999999100009
 30
0.0
 11
0.0050000000000000001
 21
-0.15999999999100009
 31
0.0
  0
LINE
  8
layer3
 10
0.0050000000000000001
 20
-0.15999999999100009
 30
0.0
 11
0.0050000000000000001
 21
-0.17999999999000008
 31
0.0
  0
LINE
  8
layer3
 10
0
 20
-0.13999999999200005
 30
0.0
 11
0
 21
-0.11999999999300005
 31
0.0
  0
LINE
  8
layer3
 10
0
 20
-0.13999999999200005
 30
0.0
 11
0.0050000000000000001
 21
-0.13999999999200005
 31
0.0
  0
LINE
  8
layer3
 10
0.0050000000000000001
 20
-0.13999999999200005
 30
0.0
 11
0.0050000000000000001
 21
-0.15999999999100009
 31
0.0
  0
LINE
  8
layer3
 10
0
 20
-0.11999999999300005
 30
0.0
 11
0
 21
-0.099999999994000013
 31
0.0
  0
LINE
  8
layer3
 10
0
 20
-0.11999999999300005
 30
0.0
 11
0.0050000000000000001
 21
-0.11999999999300005
 31
0.0
  0
LINE
  8
layer3
 10
0.0050000000000000001
 20
-0.11999999999300005
 30
0.0
 11
0.0050000000000000001
 21
-0.13999999999200005
 31
0.0
  0
LINE
  8
layer3
 10
0
 20
-0.099999999994000013
 30
0.0
 11
0
 21
-0.079999999995000029
 31
0.0
  0
LINE
  8
layer3
 10
0
 20
-0.099999999994000013
 30
0.0
 11
0.0050000000000000001
 21
-0.099999999994000013
 31
0.0
  0
LINE
  8
layer3
 10
0.0050000000000000001
 20
-0.099999999994000013
 30
0.0
 11
0.0050000000000000001
 21
-0.11999999999300005
 31
0.0
  0
LINE
  8
layer3
 10
0
 20
-0.079999999995000029
 30
0.0
 11
0
 21
-0.059999999996000045
 31
0.0
  0
LINE
  8
layer3
 10
0
 20
-0.079999999995000029
 30
0.0
 11
0.0050000000000000001
 21
-0.079999999995000029
 31
0.0
  0
LINE
  8
layer3
 10
0.0050000000000000001
 20
-0.079999999995000029
 30
0.0
 11
0.0050000000000000001
 21
-0.099999999994000013
 31
0.0
  0
LINE
  8
layer3
 10
0
 20
-0.059999999996000045
 30
0.0
 11
0
 21
-0.039999999997000005
 31
0.0
  0
LINE
  8
layer3
 10
0
 20
-0.059999999996000045
 30
0.0
 11
0.0050000000000000001
 21
-0.059999999996000045
 31
0.0
  0
LINE
  8
layer3
 10
0.0050000000000000001
 20
-0.059999999996000045
 30
0.0
 11
0.0050000000000000001
 21
-0.079999999995000029
 31
0.0
  0
LINE
  8
layer3
 10
0
 20
-0.039999999997000005
 30
0.0
 11
0
 21
-0.019999999998000024
 31
0.0
  0
LINE
  8
layer3
 10
0
 20
-0.039999999997000005
 30
0.0
 11
0.0050000000000000001
 21
-0.039999999997000005
 31
0.0
  0
LINE
  8
layer3
 10
0.0050000000000000001
 20
-0.039999999997000005
 30
0.0
 11
0.0050000000000000001
 21
-0.059999999996000045
 31
0.0
  0
LINE
  8
layer3
 10
0
 20
-0.019999999998000024
 30
0.0
 11
0
 21
9.9996053104511873e-013
 31
0.0
  0
LINE
  8
layer3
 10
0
 20
-0.019999999998000024
 30
0.0
 11
0.0050000000000000001
 21
-0.019999999998000024
 31
0.0
  0
LINE
  8
layer3
 10
0.0050000000000000001
 20
-0.019999999998000024
 30
0.0
 11
0.0050000000000000001
 21
-0.039999999997000005
 31
0.0
  0
LINE
  8
layer3
 10
0
 20
9.9996053104511873e-013
 30
0.0
 11
0
 21
0.02
 31
0.0
  0
LINE
  8
layer3
 10
0
 20
9.9996053104511873e-013
 30
0.0
 11
0.0050000000000000001
 21
9.9996053104511873e-013
 31
0.0
  0
LINE
  8
layer4
 10
0.0050000000000000001
 20
9.9996053104511873e-013
 30
0.0
 11
0.0050000000000000001
 21
-0.019999999998000024
 31
0.0
  0
LINE
  8
layer3
 10
0
 20
0.02
 30
0.0
 11
0
 21
0.039999999999000044
 31
0.0
  0
LINE
  8
layer3
 10
0
 20
0.02
 30
0.0
 11
0.0050000000000000001
 21
0.02
 31
0.0
  0
LINE
  8
layer3
 10
0.0050000000000000001
 20
0.02
 30
0.0
 11
0.0050000000000000001
 21
9.9996053104511873e-013
 31
0.0
  0
LINE
  8
layer3
 10
0
 20
0.039999999999000044
 30
0.0
 11
0
 21
0.059999999997999973
 31
0.0
  0
LINE
  8
layer3
 10
0
 20
0.039999999999000044
 30
0.0
 11
0.0050000000000000001
 21
0.039999999999000044
 31
0.0
  0
LINE
  8
layer3
 10
0.0050000000000000001
 20
0.039999999999000044
 30
0.0
 11
0.0050000000000000001
 21
0.02
 31
0.0
  0
LINE
  8
layer3
 10
0
 20
0.059999999997999973
 30
0.0
 11
0
 21
0.079999999997000013
 31
0.0
  0
LINE
  8
layer3
 10
0
 20
0.059999999997999973
 30
0.0
 11
0.0050000000000000001
 21
0.059999999997999973
 31
0.0
  0
LINE
  8
layer3
 10
0.0050000000000000001
 20
0.059999999997999973
 30
0.0
 11
0.0050000000000000001
 21
0.039999999999000044
 31
0.0
  0
LINE
  8
layer3
 10
0
 20
0.079999999997000013
 30
0.0
 11
0
 21
0.099999999996000052
 31
0.0
  0
LINE
  8
layer3
 10
0
 20
0.079999999997000013
 30
0.0
 11
0.0050000000000000001
 21
0.079999999997000013
 31
0.0
  0
LINE
  8
layer3
 10
0.0050000000000000001
 20
0.079999999997000013
 30
0.0
 11
0.0050000000000000001
 21
0.059999999997999973
 31
0.0
  0
LINE
  8
layer3
 10
0
 20
0.099999999996000052
 30
0.0
 11
0
 21
0.11999999999499998
 31
0.0
  0
LINE
  8
layer3
 10
0
 20
0.099999999996000052
 30
0.0
 11
0.0050000000000000001
 21
0.099999999996000052
 31
0.0
  0
LINE
  8
layer3
 10
0.0050000000000000001
 20
0.099999999996000052
 30
0.0
 11
0.0050000000000000001
 21
0.079999999997000013
 31
0.0
  0
LINE
  8
layer3
 10
0
 20
0.11999999999499998
 30
0.0
 11
0
 21
0.13999999999400001
 31
0.0
  0
LINE
  8
layer3
 10
0
 20
0.11999999999499998
 30
0.0
 11
0.0050000000000000001
 21
0.11999999999499998
 31
0.0
  0
LINE
  8
layer3
 10
0.0050000000000000001
 20
0.11999999999499998
 30
0.0
 11
0.0050000000000000001
 21
0.099999999996000052
 31
0.0
  0
LINE
  8
layer3
 10
0
 20
0.13999999999400001
 30
0.0
 11
0
 21
0.15999999999300005
 31
0.0
  0
LINE
  8
layer3
 10
0
 20
0.13999999999400001
 30
0.0
 11
0.0050000000000000001
 21
0.13999999999400001
 31
0.0
  0
LINE
  8
layer3
 10
0.0050000000000000001
 20
0.13999999999400001
 30
0.0
 11
0.0050000000000000001
 21
0.11999999999499998
 31
0.0
  0
LINE
  8
layer3
 10
0
 20
0.15999999999300005
 30
0.0
 11
0
 21
0.17999999999199998
 31
0.0
  0
LINE
  8
layer3
 10
0
 20
0.15999999999300005
 30
0.0
 11
0.0050000000000000001
 21
0.15999999999300005
 31
0.0
  0
LINE
  8
layer3
 10
0.0050000000000000001
 20
0.15999999999300005
 30
0.0
 11
0.0050000000000000001
 21
0.13999999999400001
 31
0.0
  0
LINE
  8
layer3
 10
0
 20
0.17999999999199998
 30
0.0
 11
0
 21
0.19999999999100002
 31
0.0
  0
LINE
  8
layer3
 10
0
 20
0.17999999999199998
 30
0.0
 11
0.0050000000000000001
 21
0.17999999999199998
 31
0.0
  0
LINE
  8
layer3
 10
0.0050000000000000001
 20
0.17999999999199998
 30
0.0
 11
0.0050000000000000001
 21
0.15999999999300005
 31
0.0
  0
LINE
  8
layer3
 10
0
 20
0.19999999999100002
 30
0.0
 11
0
 21
0.21999999999000006
 31
0.0
  0
LINE
  8
layer3
 10
0
 20
0.19999999999100002
 30
0.0
 11
0.0050000000000000001
 21
0.19999999999100002
 31
0.0
  0
LINE
  8
layer3
 10
0.0050000000000000001
 20
0.19999999999100002
 30
0.0
 11
0.0050000000000000001
 21
0.17999999999199998
 31
0.0
  0
LINE
  8
layer3
 10
0
 20
0.21999999999000006
 30
0.0
 11
0
 21
0.23999999998899998
 31
0.0
  0
LINE
  8
layer3
 10
0
 20
0.21999999999000006
 30
0.0
 11
0.0050000000000000001
 21
0.21999999999000006
 31
0.0
  0
LINE
  8
layer3
 10
0.0050000000000000001
 20
0.21999999999000006
 30
0.0
 11
0.0050000000000000001
 21
0.19999999999100002
 31
0.0
  0
LINE
  8
layer3
 10
0
 20
0.23999999998899998
 30
0.0
 11
0
 21
0.25999999998800005
 31
0.0
  0
LINE
  8
layer3
 10
0
 20
0.23999999998899998
 30
0.0
 11
0.0050000000000000001
 21
0.23999999998899998
 31
0.0
  0
LINE
  8
layer3
 10
0.0050000000000000001
 20
0.23999999998899998
 30
0.0
 11
0.0050000000000000001
 21
0.21999999999000006
 31
0.0
  0
LINE
  8
layer3
 10
0
 20
0.25999999998800005
 30
0.0
 11
0
 21
0.27999999998700009
 31
0.0
  0
LINE
  8
layer3
 10
0
 20
0.25999999998800005
 30
0.0
 11
0.0050000000000000001
 21
0.25999999998800005
 31
0.0
  0
LINE
  8
layer3
 10
0.0050000000000000001
 20
0.25999999998800005
 30
0.0
 11
0.0050000000000000001
 21
0.23999999998899998
 31
0.0
  0
LINE
  8
layer3
 10
0
 20
0.27999999998700009
 30
0.0
 11
0
 21
0.29999999998600013
 31
0.0
  0
LINE
  8
layer3
 10
0
 20
0.27999999998700009
 30
0.0
 11
0.0050000000000000001
 21
0.27999999998700009
 31
0.0
  0
LINE
  8
layer3
 10
0.0050000000000000001
 20
0.27999999998700009
 30
0.0
 11
0.0050000000000000001
 21
0.25999999998800005
 31
0.0
  0
LINE
  8
layer3
 10
0
 20
0.29999999998600013
 30
0.0
 11
0
 21
0.31999999998500006
 31
0.0
  0
LINE
  8
layer3
 10
0
 20
0.29999999998600013
 30
0.0
 11
0.0050000000000000001
 21
0.29999999998600013
 31
0.0
  0
LINE
  8
layer3
 10
0.0050000000000000001
 20
0.29999999998600013
 30
0.0
 11
0.0050000000000000001
 21
0.27999999998700009
 31
0.0
  0
LINE
  8
layer3
 10
0
 20
0.31999999998500006
 30
0.0
 11
0
 21
0.3399999999840001
 31
0.0
  0
LINE
  8
layer3
 10
0
 20
0.31999999998500006
 30
0.0
 11
0.0050000000000000001
 21
0.31999999998500006
 31
0.0
  0
LINE
  8
layer3
 10
0.0050000000000000001
 20
0.31999999998500006
 30
0.0
 11
0.0050000000000000001
 21
0.29999999998600013
 31
0.0
  0
LINE
  8
layer3
 10
0
 20
0.3399999999840001
 30
0.0
 11
0
 21
0.35999999998300014
 31
0.0
  0
LINE
  8
layer3
 10
0
 20
0.3399999999840001
 30
0.0
 11
0.0050000000000000001
 21
0.3399999999840001
 31
0.0
  0
LINE
  8
layer3
 10
0.0050000000000000001
 20
0.3399999999840001
 30
0.0
 11
0.0050000000000000001
 21
0.31999999998500006
 31
0.0
  0
LINE
  8
layer3
 10
0
 20
0.35999999998300014
 30
0.0
 11
0
 21
0.37999999998200007
 31
0.0
  0
LINE
  8
layer3
 10
0
 20
0.35999999998300014
 30
0.0
 11
0.0050000000000000001
 21
0.35999999998300014
 31
0.0
  0
LINE
  8
layer3
 10
0.0050000000000000001
 20
0.35999999998300014
 30
0.0
 11
0.0050000000000000001
 21
0.3399999999840001
 31
0.0
  0
LINE
  8
layer3
 10
0
 20
0.37999999998200007
 30
0.0
 11
0
 21
0.39999999998100011
 31
0.0
  0
LINE
  8
layer3
 10
0
 20
0.37999999998200007
 30
0.0
 11
0.0050000000000000001
 21
0.37999999998200007
 31
0.0
  0
LINE
  8
layer3
 10
0.0050000000000000001
 20
0.37999999998200007
 30
0.0
 11
0.0050000000000000001
 21
0.35999999998300014
 31
0.0
  0
LINE
  8
layer3
 10
0
 20
0.39999999998100011
 30
0.0
 11
0
 21
0.41999999998000015
 31
0.0
  0
LINE
  8
layer3
 10
0
 20
0.39999999998100011
 30
0.0
 11
0.0050000000000000001
 21
0.39999999998100011
 31
0.0
  0
LINE
  8
layer3
 10
0.0050000000000000001
 20
0.39999999998100011
 30
0.0
 11
0.0050000000000000001
 21
0.37999999998200007
 31
0.0
  0
LINE
  8
layer3
 10
0
 20
0.41999999998000015
 30
0.0
 11
0
 21
0.43999999997900008
 31
0.0
  0
LINE
  8
layer3
 10
0
 20
0.41999999998000015
 30
0.0
 11
0.0050000000000000001
 21
0.41999999998000015
 31
0.0
  0
LINE
  8
layer3
 10
0.0050000000000000001
 20
0.41999999998000015
 30
0.0
 11
0.0050000000000000001
 21
0.39999999998100011
 31
0.0
  0
LINE
  8
layer3
 10
0
 20
0.43999999997900008
 30
0.0
 11
0
 21
0.45999999997800012
 31
0.0
  0
LINE
  8
layer3
 10
0
 20
0.43999999997900008
 30
0.0
 11
0.0050000000000000001
 21
0.43999999997900008
 31
0.0
  0
LINE
  8
layer3
 10
0.0050000000000000001
 20
0.43999999997900008
 30
0.0
 11
0.0050000000000000001
 21
0.41999999998000015
 31
0.0
  0
LINE
  8
layer3
 10
0
 20
0.45999999997800012
 30
0.0
 11
0
 21
0.47999999997700016
 31
0.0
  0
LINE
  8
layer3
 10
0
 20
0.45999999997800012
 30
0.0
 11
0.0050000000000000001
 21
0.45999999997800012
 31
0.0
  0
LINE
  8
layer3
 10
0.0050000000000000001
 20
0.45999999997800012
 30
0.0
 11
0.0050000000000000001
 21
0.43999999997900008
 31
0.0
  0
LINE
  8
layer3
 10
0
 20
0.47999999997700016
 30
0.0
 11
0
 21
0.49999999997600009
 31
0.0
  0
LINE
  8
layer3
 10
0
 20
0.47999999997700016
 30
0.0
 11
0.0050000000000000001
 21
0.47999999997700016
 31
0.0
  0
LINE
  8
layer3
 10
0.0050000000000000001
 20
0.47999999997700016
 30
0.0
 11
0.0050000000000000001
 21
0.45999999997800012
 31
0.0
  0
LINE
  8
layer3
 10
0
 20
0.49999999997600009
 30
0.0
 11
0
 21
0.51999999997500024
 31
0.0
  0
LINE
  8
layer3
 10
0
 20
0.49999999997600009
 30
0.0
 11
0.0050000000000000001
 21
0.49999999997600009
 31
0.0
  0
LINE
  8
layer3
 10
0.0050000000000000001
 20
0.49999999997600009
 30
0.0
 11
0.0050000000000000001
 21
0.47999999997700016
 31
0.0
  0
LINE
  8
default
 10
0
 20
0.51999999997500024
 30
0.0
 11
0
 21
0.62399999996880018
 31
0.0
  0
LINE
  8
layer3
 10
0
 20
0.51999999997500024
 30
0.0
 11
0.0050000000000000001
 21
0.51999999997500024
 31
0.0
  0
LINE
  8
layer3
 10
0.0050000000000000001
 20
0.51999999997500024
 30
0.0
 11
0.0050000000000000001
 21
0.49999999997600009
 31
0.0
  0
LINE
  8
layer2
 10
0.014100000000000001
 20
0.054999999997500007
 30
0.0
 11
0.014100000000000001
 21
0.052499999997500019
 31
0.0
  0
LINE
  8
layer6
 10
0.014100000000000001
 20
0.052499999997500019
 30
0.0
 11
0.013299999999999999
 21
0.052499999997500019
 31
0.0
  0
LINE
  8
layer2
 10
0.013299999999999999
 20
0.052499999997500019
 30
0.0
 11
0.013299999999999999
 21
0.049999999997500016
 31
0.0
  0
LINE
  8
layer5
 10
0.013299999999999999
 20
0.049999999997500016
 30
0.0
 11
0.0123
 21
0.049999999997500003
 31
0.0
  0
LINE
  8
layer2
 10
0.0123
 20
0.044066666664500001
 30
0.0
 11
0.0123
 21
0.043266666664500006
 31
0.0
  0
LINE
  8
layer2
 10
0.0123
 20
0.037333333331500004
 30
0.0
 11
0.0123
 21
0.036533333331500002
 31
0.0
  0
LINE
  8
layer2
 10
0.0123
 20
0.030599999998500004
 30
0.0
 11
0.0123
 21
0.029799999998500002
 31
0.0
  0
LINE
  8
layer2
 10
0.0123
 20
0.023866666665500001
 30
0.0
 11
0.0123
 21
0.023066666665499998
 31
0.0
  0
LINE
  8
layer2
 10
0.0123
 20
0.017133333332499997
 30
0.0
 11
0.0123
 21
0.016333333332500002
 31
0.0
  0
LINE
  8
layer5
 10
0.0123
 20
0.0103999999995
 30
0.0
 11
0.0123
 21
0.0095999999994999981
 31
0.0
  0
LINE
  8
layer2
 10
0.0123
 20
0.0036666666664999965
 30
0.0
 11
0.0123
 21
0.002866666666499997
 31
0.0
  0
LINE
  8
layer2
 10
0.0123
 20
-0.0030666666665000036
 30
0.0
 11
0.0123
 21
-0.0038666666665000031
 31
0.0
  0
LINE
  8
layer2
 10
0.0123
 20
-0.0097999999995000038
 30
0.0
 11
0.0123
 21
-0.010599999999500006
 31
0.0
  0
LINE
  8
layer2
 10
0.0123
 20
-0.016533333332500007
 30
0.0
 11
0.0123
 21
-0.017333333332500003
 31
0.0
  0
LINE
  8
layer2
 10
0.0123
 20
-0.023266666665500004
 30
0.0
 11
0.0123
 21
-0.024066666665500006
 31
0.0
  0
LINE
  8
layer5
 10
0.0123
 20
-0.029999999998500008
 30
0.0
 11
0.013299999999999999
 21
-0.029999999998500008
 31
0.0
  0
LINE
  8
layer2
 10
0.013299999999999999
 20
-0.029999999998500008
 30
0.0
 11
0.013299999999999999
 21
-0.034999999998500009
 31
0.0
  0
LINE
  8
layer2
 10
0.013299999999999999
 20
-0.034999999998500009
 30
0.0
 11
0.0065000000000000006
 21
-0.034999999998500009
 31
0.0
  0
LINE
  8
layer2
 10
0.0065000000000000006
 20
-0.034999999998500009
 30
0.0
 11
0.0065000000000000006
 21
0.054999999997500007
 31
0.0
  0
LINE
  8
layer2
 10
0.0065000000000000006
 20
0.054999999997500007
 30
0.0
 11
0.014100000000000001
 21
0.054999999997500007
 31
0.0
  0
LINE
  8
layer4
 10
0.0050000000000000001
 20
0.51999999997500024
 30
0.0
 11
0.0060000000000000001
 21
0.51999999997400015
 31
0.0
  0
LINE
  8
layer4
 10
0.0060000000000000001
 20
0.51999999997400015
 30
0.0
 11
0.0060000000000000001
 21
-0.51999999997400015
 31
0.0
  0
LINE
  8
layer4
 10
0.0060000000000000001
 20
-0.51999999997400015
 30
0.0
 11
0.0050000000000000001
 21
-0.51999999997400015
 31
0.0
  0
LINE
  8
layer6
 10
0.0141
 20
-0.0092499999985000084
 30
0.0
 11
0.0141
 21
-0.010749999998500008
 31
0.0
  0
LINE
  8
layer6
 10
0.0141
 20
-0.010749999998500008
 30
0.0
 11
0.019599999999999999
 21
-0.010749999998500008
 31
0.0
  0
LINE
  8
layer6
 10
0.019599999999999999
 20
-0.010749999998500008
 30
0.0
 11
0.019599999999999999
 21
-0.01124999999850001
 31
0.0
  0
LINE
  8
layer6
 10
0.019599999999999999
 20
-0.01124999999850001
 30
0.0
 11
0.0141
 21
-0.01124999999850001
 31
0.0
  0
LINE
  8
layer6
 10
0.0141
 20
-0.01124999999850001
 30
0.0
 11
0.0141
 21
-0.01274999999850001
 31
0.0
  0
LINE
  8
layer6
 10
0.0141
 20
-0.01274999999850001
 30
0.0
 11
0.019599999999999999
 21
-0.01274999999850001
 31
0.0
  0
LINE
  8
layer6
 10
0.019599999999999999
 20
-0.01274999999850001
 30
0.0
 11
0.019599999999999999
 21
-0.013249999998500009
 31
0.0
  0
LINE
  8
layer6
 10
0.019599999999999999
 20
-0.013249999998500009
 30
0.0
 11
0.0141
 21
-0.013249999998500009
 31
0.0
  0
LINE
  8
layer6
 10
0.0141
 20
-0.013249999998500009
 30
0.0
 11
0.0141
 21
-0.014749999998500008
 31
0.0
  0
LINE
  8
layer6
 10
0.0141
 20
-0.014749999998500008
 30
0.0
 11
0.019599999999999999
 21
-0.014749999998500008
 31
0.0
  0
LINE
  8
layer6
 10
0.019599999999999999
 20
-0.014749999998500008
 30
0.0
 11
0.019599999999999999
 21
-0.015249999998500007
 31
0.0
  0
LINE
  8
layer6
 10
0.019599999999999999
 20
-0.015249999998500007
 30
0.0
 11
0.0141
 21
-0.015249999998500007
 31
0.0
  0
LINE
  8
layer6
 10
0.0141
 20
-0.015249999998500007
 30
0.0
 11
0.0141
 21
-0.016749999998500006
 31
0.0
  0
LINE
  8
layer6
 10
0.0141
 20
-0.016749999998500006
 30
0.0
 11
0.019599999999999999
 21
-0.016749999998500006
 31
0.0
  0
LINE
  8
layer6
 10
0.019599999999999999
 20
-0.016749999998500006
 30
0.0
 11
0.019599999999999999
 21
-0.017249999998500007
 31
0.0
  0
LINE
  8
layer6
 10
0.019599999999999999
 20
-0.017249999998500007
 30
0.0
 11
0.0141
 21
-0.017249999998500007
 31
0.0
  0
LINE
  8
layer6
 10
0.0141
 20
-0.017249999998500007
 30
0.0
 11
0.0141
 21
-0.018749999998500008
 31
0.0
  0
LINE
  8
layer6
 10
0.0141
 20
-0.018749999998500008
 30
0.0
 11
0.019599999999999999
 21
-0.018749999998500008
 31
0.0
  0
LINE
  8
layer6
 10
0.019599999999999999
 20
-0.018749999998500008
 30
0.0
 11
0.019599999999999999
 21
-0.019249999998500009
 31
0.0
  0
LINE
  8
layer6
 10
0.019599999999999999
 20
-0.019249999998500009
 30
0.0
 11
0.0141
 21
-0.019249999998500009
 31
0.0
  0
LINE
  8
layer6
 10
0.0141
 20
-0.019249999998500009
 30
0.0
 11
0.0141
 21
-0.02074999999850001
 31
0.0
  0
LINE
  8
layer6
 10
0.0141
 20
-0.02074999999850001
 30
0.0
 11
0.019599999999999999
 21
-0.02074999999850001
 31
0.0
  0
LINE
  8
layer6
 10
0.019599999999999999
 20
-0.02074999999850001
 30
0.0
 11
0.019599999999999999
 21
-0.021249999998500007
 31
0.0
  0
LINE
  8
layer6
 10
0.019599999999999999
 20
-0.021249999998500007
 30
0.0
 11
0.0141
 21
-0.021249999998500007
 31
0.0
  0
LINE
  8
layer6
 10
0.0141
 20
-0.021249999998500007
 30
0.0
 11
0.0141
 21
-0.022749999998500008
 31
0.0
  0
LINE
  8
layer6
 10
0.0141
 20
-0.022749999998500008
 30
0.0
 11
0.019599999999999999
 21
-0.022749999998500008
 31
0.0
  0
LINE
  8
layer6
 10
0.019599999999999999
 20
-0.022749999998500008
 30
0.0
 11
0.019599999999999999
 21
-0.023249999998500005
 31
0.0
  0
LINE
  8
layer6
 10
0.019599999999999999
 20
-0.023249999998500005
 30
0.0
 11
0.0141
 21
-0.023249999998500005
 31
0.0
  0
LINE
  8
layer6
 10
0.0141
 20
-0.023249999998500005
 30
0.0
 11
0.0141
 21
-0.024749999998500007
 31
0.0
  0
LINE
  8
layer6
 10
0.0141
 20
-0.024749999998500007
 30
0.0
 11
0.019599999999999999
 21
-0.024749999998500007
 31
0.0
  0
LINE
  8
layer6
 10
0.019599999999999999
 20
-0.024749999998500007
 30
0.0
 11
0.019599999999999999
 21
-0.025249999998500007
 31
0.0
  0
LINE
  8
layer6
 10
0.019599999999999999
 20
-0.025249999998500007
 30
0.0
 11
0.0141
 21
-0.025249999998500007
 31
0.0
  0
LINE
  8
layer6
 10
0.0141
 20
-0.025249999998500007
 30
0.0
 11
0.0141
 21
-0.026749999998500008
 31
0.0
  0
LINE
  8
layer6
 10
0.0141
 20
-0.026749999998500008
 30
0.0
 11
0.019599999999999999
 21
-0.026749999998500008
 31
0.0
  0
LINE
  8
layer6
 10
0.019599999999999999
 20
-0.026749999998500008
 30
0.0
 11
0.019599999999999999
 21
-0.027249999998500009
 31
0.0
  0
LINE
  8
layer6
 10
0.019599999999999999
 20
-0.027249999998500009
 30
0.0
 11
0.0141
 21
-0.027249999998500009
 31
0.0
  0
LINE
  8
layer6
 10
0.0141
 20
-0.027249999998500009
 30
0.0
 11
0.0141
 21
-0.02874999999850001
 31
0.0
  0
LINE
  8
layer6
 10
0.0141
 20
-0.02874999999850001
 30
0.0
 11
0.019599999999999999
 21
-0.02874999999850001
 31
0.0
  0
LINE
  8
layer6
 10
0.019599999999999999
 20
-0.02874999999850001
 30
0.0
 11
0.019599999999999999
 21
-0.029249999998500007
 31
0.0
  0
LINE
  8
layer6
 10
0.019599999999999999
 20
-0.029249999998500007
 30
0.0
 11
0.0141
 21
-0.029249999998500007
 31
0.0
  0
LINE
  8
layer6
 10
0.0141
 20
-0.029249999998500007
 30
0.0
 11
0.0141
 21
-0.030749999998500008
 31
0.0
  0
LINE
  8
layer6
 10
0.0141
 20
-0.030749999998500008
 30
0.0
 11
0.019599999999999999
 21
-0.030749999998500008
 31
0.0
  0
LINE
  8
layer6
 10
0.019599999999999999
 20
-0.030749999998500008
 30
0.0
 11
0.019599999999999999
 21
-0.031249999998500005
 31
0.0
  0
LINE
  8
layer6
 10
0.019599999999999999
 20
-0.031249999998500005
 30
0.0
 11
0.0141
 21
-0.031249999998500005
 31
0.0
  0
LINE
  8
layer6
 10
0.0141
 20
-0.031249999998500005
 30
0.0
 11
0.0141
 21
-0.032749999998500007
 31
0.0
  0
LINE
  8
layer6
 10
0.0141
 20
-0.032749999998500007
 30
0.0
 11
0.019599999999999999
 21
-0.032749999998500007
 31
0.0
  0
LINE
  8
layer6
 10
0.019599999999999999
 20
-0.032749999998500007
 30
0.0
 11
0.019599999999999999
 21
-0.033249999998500007
 31
0.0
  0
LINE
  8
layer6
 10
0.019599999999999999
 20
-0.033249999998500007
 30
0.0
 11
0.0141
 21
-0.033249999998500007
 31
0.0
  0
LINE
  8
layer6
 10
0.0141
 20
-0.033249999998500007
 30
0.0
 11
0.0141
 21
-0.034749999998500009
 31
0.0
  0
LINE
  8
layer6
 10
0.0141
 20
-0.034749999998500009
 30
0.0
 11
0.019599999999999999
 21
-0.034749999998500009
 31
0.0
  0
LINE
  8
layer6
 10
0.019599999999999999
 20
-0.034749999998500009
 30
0.0
 11
0.019599999999999999
 21
-0.034999999998500009
 31
0.0
  0
LINE
  8
layer6
 10
0.019599999999999999
 20
-0.034999999998500009
 30
0.0
 11
0.013299999999999999
 21
-0.034999999998500009
 31
0.0
  0
LINE
  8
layer5
 10
0.013299999999999999
 20
-0.029999999998500008
 30
0.0
 11
0.013299999999999999
 21
0.049999999997500016
 31
0.0
  0
LINE
  8
layer6
 10
0.014100000000000001
 20
0.052499999997500019
 30
0.0
 11
0.0141
 21
0.051250000001499998
 31
0.0
  0
LINE
  8
layer6
 10
0.0141
 20
0.051250000001499998
 30
0.0
 11
0.019599999999999999
 21
0.051250000001499998
 31
0.0
  0
LINE
  8
layer6
 10
0.019599999999999999
 20
0.051250000001499998
 30
0.0
 11
0.019599999999999999
 21
0.050750000001499998
 31
0.0
  0
LINE
  8
layer6
 10
0.019599999999999999
 20
0.050750000001499998
 30
0.0
 11
0.0141
 21
0.050750000001499998
 31
0.0
  0
LINE
  8
layer6
 10
0.0141
 20
0.050750000001499998
 30
0.0
 11
0.0141
 21
0.049250000001499997
 31
0.0
  0
LINE
  8
layer6
 10
0.0141
 20
0.049250000001499997
 30
0.0
 11
0.019599999999999999
 21
0.049250000001499997
 31
0.0
  0
LINE
  8
layer6
 10
0.019599999999999999
 20
0.049250000001499997
 30
0.0
 11
0.019599999999999999
 21
0.048750000001499996
 31
0.0
  0
LINE
  8
layer6
 10
0.019599999999999999
 20
0.048750000001499996
 30
0.0
 11
0.0141
 21
0.048750000001499996
 31
0.0
  0
LINE
  8
layer6
 10
0.0141
 20
0.048750000001499996
 30
0.0
 11
0.0141
 21
0.047250000001499995
 31
0.0
  0
LINE
  8
layer6
 10
0.0141
 20
0.047250000001499995
 30
0.0
 11
0.019599999999999999
 21
0.047250000001499995
 31
0.0
  0
LINE
  8
layer6
 10
0.019599999999999999
 20
0.047250000001499995
 30
0.0
 11
0.019599999999999999
 21
0.046750000001499994
 31
0.0
  0
LINE
  8
layer6
 10
0.019599999999999999
 20
0.046750000001499994
 30
0.0
 11
0.0141
 21
0.046750000001499994
 31
0.0
  0
LINE
  8
layer6
 10
0.0141
 20
0.046750000001499994
 30
0.0
 11
0.0141
 21
0.045250000001499993
 31
0.0
  0
LINE
  8
layer6
 10
0.0141
 20
0.045250000001499993
 30
0.0
 11
0.019599999999999999
 21
0.045250000001499993
 31
0.0
  0
LINE
  8
layer6
 10
0.019599999999999999
 20
0.045250000001499993
 30
0.0
 11
0.019599999999999999
 21
0.044750000001499993
 31
0.0
  0
LINE
  8
layer6
 10
0.019599999999999999
 20
0.044750000001499993
 30
0.0
 11
0.0141
 21
0.044750000001499993
 31
0.0
  0
LINE
  8
layer6
 10
0.0141
 20
0.044750000001499993
 30
0.0
 11
0.0141
 21
0.043250000001499991
 31
0.0
  0
LINE
  8
layer6
 10
0.0141
 20
0.043250000001499991
 30
0.0
 11
0.019599999999999999
 21
0.043250000001499991
 31
0.0
  0
LINE
  8
layer6
 10
0.019599999999999999
 20
0.043250000001499991
 30
0.0
 11
0.019599999999999999
 21
0.042750000001499991
 31
0.0
  0
LINE
  8
layer6
 10
0.019599999999999999
 20
0.042750000001499991
 30
0.0
 11
0.0141
 21
0.042750000001499991
 31
0.0
  0
LINE
  8
layer6
 10
0.0141
 20
0.042750000001499991
 30
0.0
 11
0.0141
 21
0.04125000000149999
 31
0.0
  0
LINE
  8
layer6
 10
0.0141
 20
0.04125000000149999
 30
0.0
 11
0.019599999999999999
 21
0.04125000000149999
 31
0.0
  0
LINE
  8
layer6
 10
0.019599999999999999
 20
0.04125000000149999
 30
0.0
 11
0.019599999999999999
 21
0.040750000001499989
 31
0.0
  0
LINE
  8
layer6
 10
0.019599999999999999
 20
0.040750000001499989
 30
0.0
 11
0.0141
 21
0.040750000001499989
 31
0.0
  0
LINE
  8
layer6
 10
0.0141
 20
0.040750000001499989
 30
0.0
 11
0.0141
 21
0.039250000001499988
 31
0.0
  0
LINE
  8
layer6
 10
0.0141
 20
0.039250000001499988
 30
0.0
 11
0.019599999999999999
 21
0.039250000001499988
 31
0.0
  0
LINE
  8
layer6
 10
0.019599999999999999
 20
0.039250000001499988
 30
0.0
 11
0.019599999999999999
 21
0.038750000001500001
 31
0.0
  0
LINE
  8
layer6
 10
0.019599999999999999
 20
0.038750000001500001
 30
0.0
 11
0.0141
 21
0.038750000001500001
 31
0.0
  0
LINE
  8
layer6
 10
0.0141
 20
0.038750000001500001
 30
0.0
 11
0.0141
 21
0.0372500000015
 31
0.0
  0
LINE
  8
layer6
 10
0.0141
 20
0.0372500000015
 30
0.0
 11
0.019599999999999999
 21
0.0372500000015
 31
0.0
  0
LINE
  8
layer6
 10
0.019599999999999999
 20
0.0372500000015
 30
0.0
 11
0.019599999999999999
 21
0.036750000001499999
 31
0.0
  0
LINE
  8
layer6
 10
0.019599999999999999
 20
0.036750000001499999
 30
0.0
 11
0.0141
 21
0.036750000001499999
 31
0.0
  0
LINE
  8
layer6
 10
0.0141
 20
0.036750000001499999
 30
0.0
 11
0.0141
 21
0.035250000001499998
 31
0.0
  0
LINE
  8
layer6
 10
0.0141
 20
0.035250000001499998
 30
0.0
 11
0.019599999999999999
 21
0.035250000001499998
 31
0.0
  0
LINE
  8
layer6
 10
0.019599999999999999
 20
0.035250000001499998
 30
0.0
 11
0.019599999999999999
 21
0.034750000001499998
 31
0.0
  0
LINE
  8
layer6
 10
0.019599999999999999
 20
0.034750000001499998
 30
0.0
 11
0.0141
 21
0.034750000001499998
 31
0.0
  0
LINE
  8
layer6
 10
0.0141
 20
0.034750000001499998
 30
0.0
 11
0.0141
 21
0.033250000001499996
 31
0.0
  0
LINE
  8
layer6
 10
0.0141
 20
0.033250000001499996
 30
0.0
 11
0.019599999999999999
 21
0.033250000001499996
 31
0.0
  0
LINE
  8
layer6
 10
0.019599999999999999
 20
0.033250000001499996
 30
0.0
 11
0.019599999999999999
 21
0.032750000001499996
 31
0.0
  0
LINE
  8
layer6
 10
0.019599999999999999
 20
0.032750000001499996
 30
0.0
 11
0.0141
 21
0.032750000001499996
 31
0.0
  0
LINE
  8
layer6
 10
0.0141
 20
0.032750000001499996
 30
0.0
 11
0.0141
 21
0.031250000001499995
 31
0.0
  0
LINE
  8
layer6
 10
0.0141
 20
0.031250000001499995
 30
0.0
 11
0.019599999999999999
 21
0.031250000001499995
 31
0.0
  0
LINE
  8
layer6
 10
0.019599999999999999
 20
0.031250000001499995
 30
0.0
 11
0.019599999999999999
 21
0.030750000001499994
 31
0.0
  0
LINE
  8
layer6
 10
0.019599999999999999
 20
0.030750000001499994
 30
0.0
 11
0.0141
 21
0.030750000001499994
 31
0.0
  0
LINE
  8
layer6
 10
0.0141
 20
0.030750000001499994
 30
0.0
 11
0.0141
 21
0.029250000001499993
 31
0.0
  0
LINE
  8
layer6
 10
0.0141
 20
0.029250000001499993
 30
0.0
 11
0.019599999999999999
 21
0.029250000001499993
 31
0.0
  0
LINE
  8
layer6
 10
0.019599999999999999
 20
0.029250000001499993
 30
0.0
 11
0.019599999999999999
 21
0.028750000001499992
 31
0.0
  0
LINE
  8
layer6
 10
0.019599999999999999
 20
0.028750000001499992
 30
0.0
 11
0.0141
 21
0.028750000001499992
 31
0.0
  0
LINE
  8
layer6
 10
0.0141
 20
0.028750000001499992
 30
0.0
 11
0.0141
 21
0.027250000001499991
 31
0.0
  0
LINE
  8
layer6
 10
0.0141
 20
0.027250000001499991
 30
0.0
 11
0.019599999999999999
 21
0.027250000001499991
 31
0.0
  0
LINE
  8
layer6
 10
0.019599999999999999
 20
0.027250000001499991
 30
0.0
 11
0.019599999999999999
 21
0.026750000001499991
 31
0.0
  0
LINE
  8
layer6
 10
0.019599999999999999
 20
0.026750000001499991
 30
0.0
 11
0.0141
 21
0.026750000001499991
 31
0.0
  0
LINE
  8
layer6
 10
0.0141
 20
0.026750000001499991
 30
0.0
 11
0.0141
 21
0.025250000001499989
 31
0.0
  0
LINE
  8
layer6
 10
0.0141
 20
0.025250000001499989
 30
0.0
 11
0.019599999999999999
 21
0.025250000001499989
 31
0.0
  0
LINE
  8
layer6
 10
0.019599999999999999
 20
0.025250000001499989
 30
0.0
 11
0.019599999999999999
 21
0.024750000001499996
 31
0.0
  0
LINE
  8
layer6
 10
0.019599999999999999
 20
0.024750000001499996
 30
0.0
 11
0.0141
 21
0.024750000001499996
 31
0.0
  0
LINE
  8
layer6
 10
0.0141
 20
0.024750000001499996
 30
0.0
 11
0.0141
 21
0.023250000001499994
 31
0.0
  0
LINE
  8
layer6
 10
0.0141
 20
0.023250000001499994
 30
0.0
 11
0.019599999999999999
 21
0.023250000001499994
 31
0.0
  0
LINE
  8
layer6
 10
0.019599999999999999
 20
0.023250000001499994
 30
0.0
 11
0.019599999999999999
 21
0.022750000001499994
 31
0.0
  0
LINE
  8
layer6
 10
0.019599999999999999
 20
0.022750000001499994
 30
0.0
 11
0.0141
 21
0.022750000001499994
 31
0.0
  0
LINE
  8
layer6
 10
0.0141
 20
0.022750000001499994
 30
0.0
 11
0.0141
 21
0.021250000001499993
 31
0.0
  0
LINE
  8
layer6
 10
0.0141
 20
0.021250000001499993
 30
0.0
 11
0.019599999999999999
 21
0.021250000001499993
 31
0.0
  0
LINE
  8
layer6
 10
0.019599999999999999
 20
0.021250000001499993
 30
0.0
 11
0.019599999999999999
 21
0.020750000001499992
 31
0.0
  0
LINE
  8
layer6
 10
0.019599999999999999
 20
0.020750000001499992
 30
0.0
 11
0.0141
 21
0.020750000001499992
 31
0.0
  0
LINE
  8
layer6
 10
0.0141
 20
0.020750000001499992
 30
0.0
 11
0.0141
 21
0.019250000001499991
 31
0.0
  0
LINE
  8
layer6
 10
0.0141
 20
0.019250000001499991
 30
0.0
 11
0.019599999999999999
 21
0.019250000001499991
 31
0.0
  0
LINE
  8
layer6
 10
0.019599999999999999
 20
0.019250000001499991
 30
0.0
 11
0.019599999999999999
 21
0.018750000001499997
 31
0.0
  0
LINE
  8
layer6
 10
0.019599999999999999
 20
0.018750000001499997
 30
0.0
 11
0.0141
 21
0.018750000001499997
 31
0.0
  0
LINE
  8
layer6
 10
0.0141
 20
0.018750000001499997
 30
0.0
 11
0.0141
 21
0.017250000001499996
 31
0.0
  0
LINE
  8
layer6
 10
0.0141
 20
0.017250000001499996
 30
0.0
 11
0.019599999999999999
 21
0.017250000001499996
 31
0.0
  0
LINE
  8
layer6
 10
0.019599999999999999
 20
0.017250000001499996
 30
0.0
 11
0.019599999999999999
 21
0.016750000001499996
 31
0.0
  0
LINE
  8
layer6
 10
0.019599999999999999
 20
0.016750000001499996
 30
0.0
 11
0.0141
 21
0.016750000001499996
 31
0.0
  0
LINE
  8
layer6
 10
0.0141
 20
0.016750000001499996
 30
0.0
 11
0.0141
 21
0.015250000001499994
 31
0.0
  0
LINE
  8
layer6
 10
0.0141
 20
0.015250000001499994
 30
0.0
 11
0.019599999999999999
 21
0.015250000001499994
 31
0.0
  0
LINE
  8
layer6
 10
0.019599999999999999
 20
0.015250000001499994
 30
0.0
 11
0.019599999999999999
 21
0.014750000001499992
 31
0.0
  0
LINE
  8
layer6
 10
0.019599999999999999
 20
0.014750000001499992
 30
0.0
 11
0.0141
 21
0.014750000001499992
 31
0.0
  0
LINE
  8
layer6
 10
0.0141
 20
0.014750000001499992
 30
0.0
 11
0.0141
 21
0.013250000001499992
 31
0.0
  0
LINE
  8
layer6
 10
0.0141
 20
0.013250000001499992
 30
0.0
 11
0.019599999999999999
 21
0.013250000001499992
 31
0.0
  0
LINE
  8
layer6
 10
0.019599999999999999
 20
0.013250000001499992
 30
0.0
 11
0.019599999999999999
 21
0.01275000000149999
 31
0.0
  0
LINE
  8
layer6
 10
0.019599999999999999
 20
0.01275000000149999
 30
0.0
 11
0.0141
 21
0.01275000000149999
 31
0.0
  0
LINE
  8
layer6
 10
0.0141
 20
0.01275000000149999
 30
0.0
 11
0.0141
 21
0.011250000001499991
 31
0.0
  0
LINE
  8
layer6
 10
0.0141
 20
0.011250000001499991
 30
0.0
 11
0.019599999999999999
 21
0.011250000001499991
 31
0.0
  0
LINE
  8
layer6
 10
0.019599999999999999
 20
0.011250000001499991
 30
0.0
 11
0.019599999999999999
 21
0.010750000001499989
 31
0.0
  0
LINE
  8
layer6
 10
0.019599999999999999
 20
0.010750000001499989
 30
0.0
 11
0.0141
 21
0.010750000001499989
 31
0.0
  0
LINE
  8
layer6
 10
0.0141
 20
0.010750000001499989
 30
0.0
 11
0.0141
 21
0.0092500000014999889
 31
0.0
  0
LINE
  8
layer6
 10
0.0141
 20
0.0092500000014999889
 30
0.0
 11
0.019599999999999999
 21
0.0092500000014999889
 31
0.0
  0
LINE
  8
layer6
 10
0.019599999999999999
 20
0.0092500000014999889
 30
0.0
 11
0.019599999999999999
 21
0.0087500000014999937
 31
0.0
  0
LINE
  8
layer6
 10
0.019599999999999999
 20
0.0087500000014999937
 30
0.0
 11
0.0141
 21
0.0087500000014999937
 31
0.0
  0
LINE
  8
layer6
 10
0.0141
 20
0.0087500000014999937
 30
0.0
 11
0.0141
 21
0.0072500000014999941
 31
0.0
  0
LINE
  8
layer6
 10
0.0141
 20
0.0072500000014999941
 30
0.0
 11
0.019599999999999999
 21
0.0072500000014999941
 31
0.0
  0
LINE
  8
layer6
 10
0.019599999999999999
 20
0.0072500000014999941
 30
0.0
 11
0.019599999999999999
 21
0.0067500000014999919
 31
0.0
  0
LINE
  8
layer6
 10
0.019599999999999999
 20
0.0067500000014999919
 30
0.0
 11
0.0141
 21
0.0067500000014999919
 31
0.0
  0
LINE
  8
layer6
 10
0.0141
 20
0.0067500000014999919
 30
0.0
 11
0.0141
 21
0.0052500000014999923
 31
0.0
  0
LINE
  8
layer6
 10
0.0141
 20
0.0052500000014999923
 30
0.0
 11
0.019599999999999999
 21
0.0052500000014999923
 31
0.0
  0
LINE
  8
layer6
 10
0.019599999999999999
 20
0.0052500000014999923
 30
0.0
 11
0.019599999999999999
 21
0.0047500000014999901
 31
0.0
  0
LINE
  8
layer6
 10
0.019599999999999999
 20
0.0047500000014999901
 30
0.0
 11
0.0141
 21
0.0047500000014999901
 31
0.0
  0
LINE
  8
layer6
 10
0.0141
 20
0.0047500000014999901
 30
0.0
 11
0.0141
 21
0.0032500000014999905
 31
0.0
  0
LINE
  8
layer6
 10
0.0141
 20
0.0032500000014999905
 30
0.0
 11
0.019599999999999999
 21
0.0032500000014999905
 31
0.0
  0
LINE
  8
layer6
 10
0.019599999999999999
 20
0.0032500000014999905
 30
0.0
 11
0.019599999999999999
 21
0.0027500000014999953
 31
0.0
  0
LINE
  8
layer6
 10
0.019599999999999999
 20
0.0027500000014999953
 30
0.0
 11
0.0141
 21
0.0027500000014999953
 31
0.0
  0
LINE
  8
layer6
 10
0.0141
 20
0.0027500000014999953
 30
0.0
 11
0.0141
 21
0.0012500000014999955
 31
0.0
  0
LINE
  8
layer6
 10
0.0141
 20
0.0012500000014999955
 30
0.0
 11
0.019599999999999999
 21
0.0012500000014999955
 31
0.0
  0
LINE
  8
layer6
 10
0.019599999999999999
 20
0.0012500000014999955
 30
0.0
 11
0.019599999999999999
 21
0.00075000000149999372
 31
0.0
  0
LINE
  8
layer6
 10
0.019599999999999999
 20
0.00075000000149999372
 30
0.0
 11
0.0141
 21
0.00075000000149999372
 31
0.0
  0
LINE
  8
layer6
 10
0.0141
 20
0.00075000000149999372
 30
0.0
 11
0.0141
 21
-0.00074999999850000631
 31
0.0
  0
LINE
  8
layer6
 10
0.0141
 20
-0.00074999999850000631
 30
0.0
 11
0.019599999999999999
 21
-0.00074999999850000631
 31
0.0
  0
LINE
  8
layer6
 10
0.019599999999999999
 20
-0.00074999999850000631
 30
0.0
 11
0.019599999999999999
 21
-0.0012499999985000078
 31
0.0
  0
LINE
  8
layer6
 10
0.019599999999999999
 20
-0.0012499999985000078
 30
0.0
 11
0.0141
 21
-0.0012499999985000078
 31
0.0
  0
LINE
  8
layer6
 10
0.0141
 20
-0.0012499999985000078
 30
0.0
 11
0.0141
 21
-0.0027499999985000079
 31
0.0
  0
LINE
  8
layer6
 10
0.0141
 20
-0.0027499999985000079
 30
0.0
 11
0.019599999999999999
 21
-0.0027499999985000079
 31
0.0
  0
LINE
  8
layer6
 10
0.019599999999999999
 20
-0.0027499999985000079
 30
0.0
 11
0.019599999999999999
 21
-0.0032499999985000096
 31
0.0
  0
LINE
  8
layer6
 10
0.019599999999999999
 20
-0.0032499999985000096
 30
0.0
 11
0.0141
 21
-0.0032499999985000096
 31
0.0
  0
LINE
  8
layer6
 10
0.0141
 20
-0.0032499999985000096
 30
0.0
 11
0.0141
 21
-0.0047499999985000096
 31
0.0
  0
LINE
  8
layer6
 10
0.0141
 20
-0.0047499999985000096
 30
0.0
 11
0.019599999999999999
 21
-0.0047499999985000096
 31
0.0
  0
LINE
  8
layer6
 10
0.019599999999999999
 20
-0.0047499999985000096
 30
0.0
 11
0.019599999999999999
 21
-0.0052499999985000084
 31
0.0
  0
LINE
  8
layer6
 10
0.019599999999999999
 20
-0.0052499999985000084
 30
0.0
 11
0.0141
 21
-0.0052499999985000084
 31
0.0
  0
LINE
  8
layer6
 10
0.0141
 20
-0.0052499999985000084
 30
0.0
 11
0.0141
 21
-0.006749999998500008
 31
0.0
  0
LINE
  8
layer6
 10
0.0141
 20
-0.006749999998500008
 30
0.0
 11
0.019599999999999999
 21
-0.006749999998500008
 31
0.0
  0
LINE
  8
layer6
 10
0.019599999999999999
 20
-0.006749999998500008
 30
0.0
 11
0.019599999999999999
 21
-0.0072499999985000067
 31
0.0
  0
LINE
  8
layer6
 10
0.019599999999999999
 20
-0.0072499999985000067
 30
0.0
 11
0.0141
 21
-0.0072499999985000067
 31
0.0
  0
LINE
  8
layer6
 10
0.0141
 20
-0.0072499999985000067
 30
0.0
 11
0.0141
 21
-0.0087499999985000063
 31
0.0
  0
LINE
  8
layer6
 10
0.0141
 20
-0.0087499999985000063
 30
0.0
 11
0.019599999999999999
 21
-0.0087499999985000063
 31
0.0
  0
LINE
  8
layer6
 10
0.019599999999999999
 20
-0.0087499999985000063
 30
0.0
 11
0.019599999999999999
 21
-0.0092499999985000084
 31
0.0
  0
LINE
  8
layer6
 10
0.019599999999999999
 20
-0.0092499999985000084
 30
0.0
 11
0.0141
 21
-0.0092499999985000084
 31
0.0
  0
ENDSEC
  0
EOF
