0
SECTION
2
HEADER
9
$INSUNITS
70
4
9
$ACADVER
1
AC1014
9
$HANDSEED
5
FFFF
0
ENDSEC
0
SECTION
2
TABLES
0
TABLE
2
VPORT
5
8
100
AcDbSymbolTable
0
ENDTAB
0
TABLE
2
LTYPE
5
5
100
AcDbSymbolTable
0
LTYPE
5
14
100
AcDbSymbolTableRecord
100
AcDbLinetypeTableRecord
2
BYBLOCK
70
0
0
LTYPE
5
15
100
AcDbSymbolTableRecord
100
AcDbLinetypeTableRecord
2
BYLAYER
70
0
0
LTYPE
5
16
100
AcDbSymbolTableRecord
100
AcDbLinetypeTableRecord
2
DASHED
70
0
3
Dashed __ __ __ __ __ __ __ __ __ __ __ __ __ _
72
65
73
2
40
0.75
49
0.5
74
0
49
-0.25
74
0
0
ENDTAB
0
TABLE
2
LAYER
5
2
100
AcDbSymbolTable
70
2
0
LAYER
5
50
100
AcDbSymbolTableRecord
100
AcDbLayerTableRecord
2
0
70
0
62
7
6
CONTINUOUS
0
ENDTAB
0
TABLE
2
STYLE
5
3
100
AcDbSymbolTable
70
1
0
STYLE
5
11
100
AcDbSymbolTableRecord
100
AcDbTextStyleTableRecord
2
STANDARD
70
0
0
ENDTAB
0
TABLE
2
VIEW
5
6
100
AcDbSymbolTable
70
0
0
ENDTAB
0
TABLE
2
UCS
5
7
100
AcDbSymbolTable
70
0
0
ENDTAB
0
TABLE
2
APPID
5
9
100
AcDbSymbolTable
70
2
0
APPID
5
12
100
AcDbSymbolTableRecord
100
AcDbRegAppTableRecord
2
ACAD
70
0
0
ENDTAB
0
TABLE
2
DIMSTYLE
5
A
100
AcDbSymbolTable
70
1
0
ENDTAB
0
TABLE
2
BLOCK_RECORD
5
1
100
AcDbSymbolTable
70
1
0
BLOCK_RECORD
5
1F
100
AcDbSymbolTableRecord
100
AcDbBlockTableRecord
2
*MODEL_SPACE
0
BLOCK_RECORD
5
1B
100
AcDbSymbolTableRecord
100
AcDbBlockTableRecord
2
*PAPER_SPACE
0
ENDTAB
0
ENDSEC
0
SECTION
2
BLOCKS
0
BLOCK
5
20
100
AcDbEntity
100
AcDbBlockBegin
2
*MODEL_SPACE
0
ENDBLK
5
21
100
AcDbEntity
100
AcDbBlockEnd
0
BLOCK
5
1C
100
AcDbEntity
100
AcDbBlockBegin
2
*PAPER_SPACE
0
ENDBLK
5
1D
100
AcDbEntity
100
AcDbBlockEnd
0
ENDSEC
0
SECTION
2
ENTITIES
0
LWPOLYLINE
5
100
100
AcDbEntity
8
0
100
AcDbPolyline
90
112
70
1
43
0.0
10
0
20
-623.99999996879978
10
0
20
-519.99999997399993
10
5
20
-519.99999997399993
10
6.0000000000000009
20
-519.99999997399993
10
6.0000000000000009
20
519.99999997399993
10
5
20
519.99999997500004
10
5
20
499.99999997600003
10
5
20
479.99999997700013
10
5
20
459.99999997800001
10
5
20
439.99999997900005
10
5
20
419.99999997999998
10
5
20
399.99999998100003
10
5
20
379.99999998200019
10
5
20
359.99999998300007
10
5
20
339.999999984
10
5
20
319.9999999850001
10
5
20
299.99999998600003
10
5
20
279.99999998699997
10
5
20
259.99999998800007
10
5
20
239.999999989
10
5
20
219.99999998999996
10
5
20
199.99999999100001
10
5
20
179.999999992
10
5
20
159.99999999300005
10
5
20
139.99999999400001
10
5
20
119.999999995
10
5
20
99.999999996000042
10
5
20
79.999999997000032
10
5
20
59.999999998000078
10
5
20
39.999999999000053
10
5
20
20
10
5
20
1.00001604219635e-09
10
5
20
-19.999999997999968
10
5
20
-39.999999996999939
10
5
20
-59.999999995999943
10
5
20
-79.999999994999953
10
5
20
-99.999999993999964
10
5
20
-119.99999999299996
10
5
20
-139.999999992
10
5
20
-159.99999999099998
10
5
20
-179.99999998999994
10
5
20
-199.99999998899995
10
5
20
-219.99999998799996
10
5
20
-239.99999998700002
10
5
20
-259.99999998599992
10
5
20
-279.99999998499993
10
5
20
-299.99999998399994
10
5
20
-319.9999999829999
10
5
20
-339.99999998199991
10
5
20
-359.99999998099986
10
5
20
-379.99999997999993
10
5
20
-399.99999997899988
10
5
20
-419.99999997799989
10
5
20
-439.9999999769999
10
5
20
-459.99999997600003
10
5
20
-479.99999997499992
10
5
20
-499.99999997399988
10
0
20
-499.99999997399993
10
0
20
-479.99999997499992
10
0
20
-459.99999997600003
10
0
20
-439.9999999769999
10
0
20
-419.99999997799989
10
0
20
-399.99999997899988
10
0
20
-379.99999997999993
10
0
20
-359.99999998099986
10
0
20
-339.99999998199991
10
0
20
-319.9999999829999
10
0
20
-299.99999998399994
10
0
20
-279.99999998499993
10
0
20
-259.99999998599992
10
0
20
-239.99999998700002
10
0
20
-219.99999998799996
10
0
20
-199.99999998899995
10
0
20
-179.99999998999994
10
0
20
-159.99999999099998
10
0
20
-139.999999992
10
0
20
-119.99999999299996
10
0
20
-99.999999993999964
10
0
20
-79.999999994999968
10
0
20
-59.999999995999943
10
0
20
-39.999999996999946
10
0
20
-19.999999997999968
10
0
20
0
10
0
20
20
10
0
20
39.999999999000053
10
0
20
59.999999998000078
10
0
20
79.999999997000018
10
0
20
99.999999996000057
10
0
20
119.99999999499998
10
0
20
139.99999999400001
10
0
20
159.99999999300005
10
0
20
179.999999992
10
0
20
199.99999999100001
10
0
20
219.99999998999996
10
0
20
239.999999989
10
0
20
259.99999998800007
10
0
20
279.99999998699997
10
0
20
299.99999998600003
10
0
20
319.9999999850001
10
0
20
339.999999984
10
0
20
359.99999998300007
10
0
20
379.99999998200019
10
0
20
399.99999998100003
10
0
20
419.99999997999998
10
0
20
439.99999997900005
10
0
20
459.99999997800001
10
0
20
479.99999997700013
10
0
20
499.99999997600003
10
0
20
519.99999997500004
10
0
20
623.99999996879978
10
26.700000000000003
20
623.99999996879978
10
26.700000000000003
20
-623.99999996879978
0
LWPOLYLINE
5
101
100
AcDbEntity
8
0
100
AcDbPolyline
90
4
70
1
43
0.0
10
7.5
20
-29.999999998500005
10
7.5
20
-25.166666665500003
10
10.500000000000004
20
-25.166666665500003
10
10.5
20
-29.999999998500005
0
LWPOLYLINE
5
102
100
AcDbEntity
8
0
100
AcDbPolyline
90
4
70
1
43
0.0
10
7.5
20
-23.166666665500003
10
7.5
20
-18.333333332500001
10
10.500000000000004
20
-18.333333332500001
10
10.5
20
-23.166666665500003
0
LWPOLYLINE
5
103
100
AcDbEntity
8
0
100
AcDbPolyline
90
4
70
1
43
0.0
10
7.5
20
-16.333333332500001
10
7.5
20
-11.499999999500002
10
10.500000000000004
20
-11.499999999500002
10
10.5
20
-16.333333332500001
0
LWPOLYLINE
5
104
100
AcDbEntity
8
0
100
AcDbPolyline
90
4
70
1
43
0.0
10
7.5
20
-9.4999999995
10
7.5
20
-4.6666666664999994
10
10.500000000000004
20
-4.6666666664999994
10
10.5
20
-9.4999999995
0
LWPOLYLINE
5
105
100
AcDbEntity
8
0
100
AcDbPolyline
90
4
70
1
43
0.0
10
7.5
20
-2.666666666499999
10
7.5
20
2.1666666665000012
10
10.500000000000004
20
2.1666666665000007
10
10.5
20
-2.666666666499999
0
LWPOLYLINE
5
106
100
AcDbEntity
8
0
100
AcDbPolyline
90
4
70
1
43
0.0
10
7.5
20
4.1666666664999994
10
7.5
20
8.9999999995
10
10.500000000000004
20
8.9999999995
10
10.5
20
4.1666666664999994
0
LWPOLYLINE
5
107
100
AcDbEntity
8
0
100
AcDbPolyline
90
4
70
1
43
0.0
10
7.5
20
10.999999999500002
10
7.5
20
15.833333332499997
10
10.500000000000004
20
15.833333332499997
10
10.5
20
10.999999999500002
0
LWPOLYLINE
5
108
100
AcDbEntity
8
0
100
AcDbPolyline
90
4
70
1
43
0.0
10
7.5
20
17.833333332500001
10
7.5
20
22.666666665499999
10
10.500000000000004
20
22.666666665500003
10
10.5
20
17.833333332500001
0
LWPOLYLINE
5
109
100
AcDbEntity
8
0
100
AcDbPolyline
90
4
70
1
43
0.0
10
7.5
20
24.666666665500003
10
7.5
20
29.499999998500002
10
10.500000000000004
20
29.499999998500002
10
10.5
20
24.666666665500003
0
LWPOLYLINE
5
110
100
AcDbEntity
8
0
100
AcDbPolyline
90
4
70
1
43
0.0
10
7.5
20
31.499999998500002
10
7.5
20
36.3333333315
10
10.500000000000004
20
36.3333333315
10
10.5
20
31.499999998500002
0
LWPOLYLINE
5
111
100
AcDbEntity
8
0
100
AcDbPolyline
90
4
70
1
43
0.0
10
7.5
20
38.3333333315
10
7.5
20
43.166666664500006
10
10.500000000000004
20
43.166666664500006
10
10.5
20
38.3333333315
0
LWPOLYLINE
5
112
100
AcDbEntity
8
0
100
AcDbPolyline
90
4
70
1
43
0.0
10
7.5
20
45.166666664499999
10
7.5
20
49.999999997499998
10
10.500000000000004
20
49.999999997500012
10
10.5
20
45.166666664499999
0
LINE
5
113
100
AcDbEntity
8
0
100
AcDbLine
10
10.5
20
45.166666664499999
30
0
11
10.500000000000004
21
43.166666664500006
31
0
0
LINE
5
114
100
AcDbEntity
8
0
100
AcDbLine
10
10.5
20
38.3333333315
30
0
11
10.500000000000004
21
36.3333333315
31
0
0
LINE
5
115
100
AcDbEntity
8
0
100
AcDbLine
10
10.5
20
31.499999998500002
30
0
11
10.500000000000004
21
29.499999998500002
31
0
0
LINE
5
116
100
AcDbEntity
8
0
100
AcDbLine
10
10.5
20
24.666666665500003
30
0
11
10.500000000000004
21
22.666666665500003
31
0
0
LINE
5
117
100
AcDbEntity
8
0
100
AcDbLine
10
10.5
20
17.833333332500001
30
0
11
10.500000000000004
21
15.833333332499997
31
0
0
LINE
5
118
100
AcDbEntity
8
0
100
AcDbLine
10
10.5
20
4.1666666664999994
30
0
11
10.500000000000004
21
2.1666666665000007
31
0
0
LINE
5
119
100
AcDbEntity
8
0
100
AcDbLine
10
10.5
20
-2.666666666499999
30
0
11
10.500000000000004
21
-4.6666666664999994
31
0
0
LINE
5
120
100
AcDbEntity
8
0
100
AcDbLine
10
10.5
20
-9.4999999995
30
0
11
10.500000000000004
21
-11.499999999500002
31
0
0
LINE
5
121
100
AcDbEntity
8
0
100
AcDbLine
10
10.5
20
-16.333333332500001
30
0
11
10.500000000000004
21
-18.333333332500001
31
0
0
LINE
5
122
100
AcDbEntity
8
0
100
AcDbLine
10
10.5
20
-23.166666665500003
30
0
11
10.500000000000004
21
-25.166666665500003
31
0
0
LINE
5
123
100
AcDbEntity
8
0
100
AcDbLine
10
11.5
20
-29.999999998500005
30
0
11
11.5
21
-34.999999998500002
31
0
0
LINE
5
124
100
AcDbEntity
8
0
100
AcDbLine
10
6.5
20
-34.999999998500002
30
0
11
6.5000000000000018
21
54.999999997500012
31
0
0
LINE
5
125
100
AcDbEntity
8
0
100
AcDbLine
10
0
20
-519.99999997399993
30
0
11
0
21
-499.99999997399993
31
0
0
LINE
5
126
100
AcDbEntity
8
0
100
AcDbLine
10
5
20
-499.99999997399988
30
0
11
5
21
-519.99999997399993
31
0
0
LINE
5
127
100
AcDbEntity
8
0
100
AcDbLine
10
0
20
-479.99999997499992
30
0
11
5
21
-479.99999997499992
31
0
0
LINE
5
128
100
AcDbEntity
8
0
100
AcDbLine
10
0
20
-459.99999997600003
30
0
11
5
21
-459.99999997600003
31
0
0
LINE
5
129
100
AcDbEntity
8
0
100
AcDbLine
10
0
20
-439.9999999769999
30
0
11
5
21
-439.9999999769999
31
0
0
LINE
5
130
100
AcDbEntity
8
0
100
AcDbLine
10
0
20
-419.99999997799989
30
0
11
5
21
-419.99999997799989
31
0
0
LINE
5
131
100
AcDbEntity
8
0
100
AcDbLine
10
0
20
-399.99999997899988
30
0
11
5
21
-399.99999997899988
31
0
0
LINE
5
132
100
AcDbEntity
8
0
100
AcDbLine
10
0
20
-379.99999997999993
30
0
11
5
21
-379.99999997999993
31
0
0
LINE
5
133
100
AcDbEntity
8
0
100
AcDbLine
10
0
20
-359.99999998099986
30
0
11
5
21
-359.99999998099986
31
0
0
LINE
5
134
100
AcDbEntity
8
0
100
AcDbLine
10
0
20
-339.99999998199991
30
0
11
5
21
-339.99999998199991
31
0
0
LINE
5
135
100
AcDbEntity
8
0
100
AcDbLine
10
0
20
-319.9999999829999
30
0
11
5
21
-319.9999999829999
31
0
0
LINE
5
136
100
AcDbEntity
8
0
100
AcDbLine
10
0
20
-299.99999998399994
30
0
11
5
21
-299.99999998399994
31
0
0
LINE
5
137
100
AcDbEntity
8
0
100
AcDbLine
10
0
20
-279.99999998499993
30
0
11
5
21
-279.99999998499993
31
0
0
LINE
5
138
100
AcDbEntity
8
0
100
AcDbLine
10
0
20
-259.99999998599992
30
0
11
5
21
-259.99999998599992
31
0
0
LINE
5
139
100
AcDbEntity
8
0
100
AcDbLine
10
0
20
-239.99999998700002
30
0
11
5
21
-239.99999998700002
31
0
0
LINE
5
140
100
AcDbEntity
8
0
100
AcDbLine
10
0
20
-219.99999998799996
30
0
11
5
21
-219.99999998799996
31
0
0
LINE
5
141
100
AcDbEntity
8
0
100
AcDbLine
10
0
20
-199.99999998899995
30
0
11
5
21
-199.99999998899995
31
0
0
LINE
5
142
100
AcDbEntity
8
0
100
AcDbLine
10
0
20
-179.99999998999994
30
0
11
5
21
-179.99999998999994
31
0
0
LINE
5
143
100
AcDbEntity
8
0
100
AcDbLine
10
0
20
-159.99999999099998
30
0
11
5
21
-159.99999999099998
31
0
0
LINE
5
144
100
AcDbEntity
8
0
100
AcDbLine
10
0
20
-139.999999992
30
0
11
5
21
-139.999999992
31
0
0
LINE
5
145
100
AcDbEntity
8
0
100
AcDbLine
10
0
20
-119.99999999299996
30
0
11
5
21
-119.99999999299996
31
0
0
LINE
5
146
100
AcDbEntity
8
0
100
AcDbLine
10
0
20
-99.999999993999964
30
0
11
5
21
-99.999999993999964
31
0
0
LINE
5
147
100
AcDbEntity
8
0
100
AcDbLine
10
0
20
-79.999999994999968
30
0
11
5
21
-79.999999994999953
31
0
0
LINE
5
148
100
AcDbEntity
8
0
100
AcDbLine
10
0
20
-59.999999995999943
30
0
11
5
21
-59.999999995999943
31
0
0
LINE
5
149
100
AcDbEntity
8
0
100
AcDbLine
10
0
20
-39.999999996999946
30
0
11
5
21
-39.999999996999939
31
0
0
LINE
5
150
100
AcDbEntity
8
0
100
AcDbLine
10
0
20
-19.999999997999968
30
0
11
5
21
-19.999999997999968
31
0
0
LINE
5
151
100
AcDbEntity
8
0
100
AcDbLine
10
0
20
0
30
0
11
5
21
1.00001604219635e-09
31
0
0
LINE
5
152
100
AcDbEntity
8
0
100
AcDbLine
10
0
20
20
30
0
11
5
21
20
31
0
0
LINE
5
153
100
AcDbEntity
8
0
100
AcDbLine
10
0
20
39.999999999000053
30
0
11
5
21
39.999999999000053
31
0
0
LINE
5
154
100
AcDbEntity
8
0
100
AcDbLine
10
0
20
59.999999998000078
30
0
11
5
21
59.999999998000078
31
0
0
LINE
5
155
100
AcDbEntity
8
0
100
AcDbLine
10
0
20
79.999999997000018
30
0
11
5
21
79.999999997000032
31
0
0
LINE
5
156
100
AcDbEntity
8
0
100
AcDbLine
10
0
20
99.999999996000057
30
0
11
5
21
99.999999996000042
31
0
0
LINE
5
157
100
AcDbEntity
8
0
100
AcDbLine
10
0
20
119.99999999499998
30
0
11
5
21
119.999999995
31
0
0
LINE
5
158
100
AcDbEntity
8
0
100
AcDbLine
10
0
20
139.99999999400001
30
0
11
5
21
139.99999999400001
31
0
0
LINE
5
159
100
AcDbEntity
8
0
100
AcDbLine
10
0
20
159.99999999300005
30
0
11
5
21
159.99999999300005
31
0
0
LINE
5
160
100
AcDbEntity
8
0
100
AcDbLine
10
0
20
179.999999992
30
0
11
5
21
179.999999992
31
0
0
LINE
5
161
100
AcDbEntity
8
0
100
AcDbLine
10
0
20
199.99999999100001
30
0
11
5
21
199.99999999100001
31
0
0
LINE
5
162
100
AcDbEntity
8
0
100
AcDbLine
10
0
20
219.99999998999996
30
0
11
5
21
219.99999998999996
31
0
0
LINE
5
163
100
AcDbEntity
8
0
100
AcDbLine
10
0
20
239.999999989
30
0
11
5
21
239.999999989
31
0
0
LINE
5
164
100
AcDbEntity
8
0
100
AcDbLine
10
0
20
259.99999998800007
30
0
11
5
21
259.99999998800007
31
0
0
LINE
5
165
100
AcDbEntity
8
0
100
AcDbLine
10
0
20
279.99999998699997
30
0
11
5
21
279.99999998699997
31
0
0
LINE
5
166
100
AcDbEntity
8
0
100
AcDbLine
10
0
20
299.99999998600003
30
0
11
5
21
299.99999998600003
31
0
0
LINE
5
167
100
AcDbEntity
8
0
100
AcDbLine
10
0
20
319.9999999850001
30
0
11
5
21
319.9999999850001
31
0
0
LINE
5
168
100
AcDbEntity
8
0
100
AcDbLine
10
0
20
339.999999984
30
0
11
5
21
339.999999984
31
0
0
LINE
5
169
100
AcDbEntity
8
0
100
AcDbLine
10
0
20
359.99999998300007
30
0
11
5
21
359.99999998300007
31
0
0
LINE
5
170
100
AcDbEntity
8
0
100
AcDbLine
10
0
20
379.99999998200019
30
0
11
5
21
379.99999998200019
31
0
0
LINE
5
171
100
AcDbEntity
8
0
100
AcDbLine
10
0
20
399.99999998100003
30
0
11
5
21
399.99999998100003
31
0
0
LINE
5
172
100
AcDbEntity
8
0
100
AcDbLine
10
0
20
419.99999997999998
30
0
11
5
21
419.99999997999998
31
0
0
LINE
5
173
100
AcDbEntity
8
0
100
AcDbLine
10
0
20
439.99999997900005
30
0
11
5
21
439.99999997900005
31
0
0
LINE
5
174
100
AcDbEntity
8
0
100
AcDbLine
10
0
20
459.99999997800001
30
0
11
5
21
459.99999997800001
31
0
0
LINE
5
175
100
AcDbEntity
8
0
100
AcDbLine
10
0
20
479.99999997700013
30
0
11
5
21
479.99999997700013
31
0
0
LINE
5
176
100
AcDbEntity
8
0
100
AcDbLine
10
0
20
499.99999997600003
30
0
11
5
21
499.99999997600003
31
0
0
LINE
5
177
100
AcDbEntity
8
0
100
AcDbLine
10
0
20
519.99999997500004
30
0
11
5
21
519.99999997500004
31
0
0
LINE
5
178
100
AcDbEntity
8
0
100
AcDbLine
10
12.300000000000002
20
-9.2499999984999999
30
0
11
12.300000000000002
21
-10.7499999985
31
0
0
LINE
5
179
100
AcDbEntity
8
0
100
AcDbLine
10
12.300000000000002
20
-10.7499999985
30
0
11
17.800000000000004
21
-10.7499999985
31
0
0
LINE
5
180
100
AcDbEntity
8
0
100
AcDbLine
10
17.800000000000004
20
-10.7499999985
30
0
11
17.800000000000001
21
-11.249999998500005
31
0
0
LINE
5
181
100
AcDbEntity
8
0
100
AcDbLine
10
17.800000000000001
20
-11.249999998500005
30
0
11
12.300000000000001
21
-11.249999998500007
31
0
0
LINE
5
182
100
AcDbEntity
8
0
100
AcDbLine
10
12.300000000000001
20
-11.249999998500007
30
0
11
12.300000000000002
21
-12.749999998500005
31
0
0
LINE
5
183
100
AcDbEntity
8
0
100
AcDbLine
10
12.300000000000002
20
-12.749999998500005
30
0
11
17.800000000000004
21
-12.749999998500005
31
0
0
LINE
5
184
100
AcDbEntity
8
0
100
AcDbLine
10
17.800000000000004
20
-12.749999998500005
30
0
11
17.800000000000001
21
-13.249999998500002
31
0
0
LINE
5
185
100
AcDbEntity
8
0
100
AcDbLine
10
17.800000000000001
20
-13.249999998500002
30
0
11
12.300000000000001
21
-13.249999998500002
31
0
0
LINE
5
186
100
AcDbEntity
8
0
100
AcDbLine
10
12.300000000000001
20
-13.249999998500002
30
0
11
12.300000000000002
21
-14.749999998499998
31
0
0
LINE
5
187
100
AcDbEntity
8
0
100
AcDbLine
10
12.300000000000002
20
-14.749999998499998
30
0
11
17.800000000000004
21
-14.749999998499998
31
0
0
LINE
5
188
100
AcDbEntity
8
0
100
AcDbLine
10
17.800000000000004
20
-14.749999998499998
30
0
11
17.800000000000001
21
-15.249999998499998
31
0
0
LINE
5
189
100
AcDbEntity
8
0
100
AcDbLine
10
17.800000000000001
20
-15.249999998499998
30
0
11
12.300000000000001
21
-15.249999998500002
31
0
0
LINE
5
190
100
AcDbEntity
8
0
100
AcDbLine
10
12.300000000000001
20
-15.249999998500002
30
0
11
12.300000000000002
21
-16.749999998500002
31
0
0
LINE
5
191
100
AcDbEntity
8
0
100
AcDbLine
10
12.300000000000002
20
-16.749999998500002
30
0
11
17.800000000000004
21
-16.749999998500002
31
0
0
LINE
5
192
100
AcDbEntity
8
0
100
AcDbLine
10
17.800000000000004
20
-16.749999998500002
30
0
11
17.800000000000001
21
-17.249999998500002
31
0
0
LINE
5
193
100
AcDbEntity
8
0
100
AcDbLine
10
17.800000000000001
20
-17.249999998500002
30
0
11
12.300000000000001
21
-17.249999998500002
31
0
0
LINE
5
194
100
AcDbEntity
8
0
100
AcDbLine
10
12.300000000000001
20
-17.249999998500002
30
0
11
12.300000000000002
21
-18.749999998500002
31
0
0
LINE
5
195
100
AcDbEntity
8
0
100
AcDbLine
10
12.300000000000002
20
-18.749999998500002
30
0
11
17.800000000000004
21
-18.749999998500002
31
0
0
LINE
5
196
100
AcDbEntity
8
0
100
AcDbLine
10
17.800000000000004
20
-18.749999998500002
30
0
11
17.800000000000001
21
-19.249999998500002
31
0
0
LINE
5
197
100
AcDbEntity
8
0
100
AcDbLine
10
17.800000000000001
20
-19.249999998500002
30
0
11
12.300000000000001
21
-19.249999998500002
31
0
0
LINE
5
198
100
AcDbEntity
8
0
100
AcDbLine
10
12.300000000000001
20
-19.249999998500002
30
0
11
12.300000000000002
21
-20.749999998500002
31
0
0
LINE
5
199
100
AcDbEntity
8
0
100
AcDbLine
10
12.300000000000002
20
-20.749999998500002
30
0
11
17.800000000000004
21
-20.749999998500002
31
0
0
LINE
5
200
100
AcDbEntity
8
0
100
AcDbLine
10
17.800000000000004
20
-20.749999998500002
30
0
11
17.800000000000001
21
-21.249999998500002
31
0
0
LINE
5
201
100
AcDbEntity
8
0
100
AcDbLine
10
17.800000000000001
20
-21.249999998500002
30
0
11
12.300000000000001
21
-21.249999998500002
31
0
0
LINE
5
202
100
AcDbEntity
8
0
100
AcDbLine
10
12.300000000000001
20
-21.249999998500002
30
0
11
12.300000000000002
21
-22.749999998500002
31
0
0
LINE
5
203
100
AcDbEntity
8
0
100
AcDbLine
10
12.300000000000002
20
-22.749999998500002
30
0
11
17.800000000000004
21
-22.749999998500002
31
0
0
LINE
5
204
100
AcDbEntity
8
0
100
AcDbLine
10
17.800000000000004
20
-22.749999998500002
30
0
11
17.800000000000001
21
-23.249999998500002
31
0
0
LINE
5
205
100
AcDbEntity
8
0
100
AcDbLine
10
17.800000000000001
20
-23.249999998500002
30
0
11
12.300000000000001
21
-23.249999998500002
31
0
0
LINE
5
206
100
AcDbEntity
8
0
100
AcDbLine
10
12.300000000000001
20
-23.249999998500002
30
0
11
12.300000000000002
21
-24.749999998500002
31
0
0
LINE
5
207
100
AcDbEntity
8
0
100
AcDbLine
10
12.300000000000002
20
-24.749999998500002
30
0
11
17.800000000000004
21
-24.749999998500002
31
0
0
LINE
5
208
100
AcDbEntity
8
0
100
AcDbLine
10
17.800000000000004
20
-24.749999998500002
30
0
11
17.800000000000001
21
-25.249999998499998
31
0
0
LINE
5
209
100
AcDbEntity
8
0
100
AcDbLine
10
17.800000000000001
20
-25.249999998499998
30
0
11
12.300000000000001
21
-25.249999998499995
31
0
0
LINE
5
210
100
AcDbEntity
8
0
100
AcDbLine
10
12.300000000000001
20
-25.249999998499995
30
0
11
12.300000000000002
21
-26.749999998500002
31
0
0
LINE
5
211
100
AcDbEntity
8
0
100
AcDbLine
10
12.300000000000002
20
-26.749999998500002
30
0
11
17.800000000000004
21
-26.749999998500009
31
0
0
LINE
5
212
100
AcDbEntity
8
0
100
AcDbLine
10
17.800000000000004
20
-26.749999998500009
30
0
11
17.800000000000001
21
-27.249999998500005
31
0
0
LINE
5
213
100
AcDbEntity
8
0
100
AcDbLine
10
17.800000000000001
20
-27.249999998500005
30
0
11
12.300000000000001
21
-27.249999998500002
31
0
0
LINE
5
214
100
AcDbEntity
8
0
100
AcDbLine
10
12.300000000000001
20
-27.249999998500002
30
0
11
12.300000000000002
21
-28.749999998500009
31
0
0
LINE
5
215
100
AcDbEntity
8
0
100
AcDbLine
10
12.300000000000002
20
-28.749999998500009
30
0
11
17.800000000000004
21
-28.749999998500009
31
0
0
LINE
5
216
100
AcDbEntity
8
0
100
AcDbLine
10
17.800000000000004
20
-28.749999998500009
30
0
11
17.800000000000001
21
-29.249999998499998
31
0
0
LINE
5
217
100
AcDbEntity
8
0
100
AcDbLine
10
17.800000000000001
20
-29.249999998499998
30
0
11
12.300000000000001
21
-29.249999998499998
31
0
0
LINE
5
218
100
AcDbEntity
8
0
100
AcDbLine
10
12.300000000000001
20
-29.249999998499998
30
0
11
12.300000000000002
21
-30.749999998500002
31
0
0
LINE
5
219
100
AcDbEntity
8
0
100
AcDbLine
10
12.300000000000002
20
-30.749999998500002
30
0
11
17.800000000000004
21
-30.749999998500002
31
0
0
LINE
5
220
100
AcDbEntity
8
0
100
AcDbLine
10
17.800000000000004
20
-30.749999998500002
30
0
11
17.800000000000001
21
-31.249999998500002
31
0
0
LINE
5
221
100
AcDbEntity
8
0
100
AcDbLine
10
17.800000000000001
20
-31.249999998500002
30
0
11
12.300000000000001
21
-31.249999998500002
31
0
0
LINE
5
222
100
AcDbEntity
8
0
100
AcDbLine
10
12.300000000000001
20
-31.249999998500002
30
0
11
12.300000000000002
21
-32.749999998500002
31
0
0
LINE
5
223
100
AcDbEntity
8
0
100
AcDbLine
10
12.300000000000002
20
-32.749999998500002
30
0
11
17.800000000000004
21
-32.749999998500002
31
0
0
LINE
5
224
100
AcDbEntity
8
0
100
AcDbLine
10
17.800000000000004
20
-32.749999998500002
30
0
11
17.800000000000001
21
-33.249999998500002
31
0
0
LWPOLYLINE
5
225
100
AcDbEntity
8
0
100
AcDbPolyline
90
13
70
1
43
0.0
10
17.800000000000001
20
-33.249999998500002
10
12.300000000000001
20
-33.249999998500002
10
12.300000000000002
20
-34.749999998500002
10
12.300000000000002
20
-35.000000521540642
10
11.5
20
-34.999999998500002
10
11.399999999999999
20
-34.999999998500002
10
11.399999999999999
20
-33.099999260157347
10
9.0999997965991497
20
-33.099999260157347
10
9.0999997965991497
20
-34.999999217689037
10
9
20
-35.000000521540642
10
6.5
20
-34.999999998500002
10
6.499999372351235
20
-37.999999998499938
10
17.800000000000001
20
-38.000000566244125
0
LINE
5
226
100
AcDbEntity
8
0
100
AcDbLine
10
17.800000000000004
20
51.250000001500013
30
0
11
17.800000000000001
21
50.750000001500013
31
0
0
LINE
5
227
100
AcDbEntity
8
0
100
AcDbLine
10
17.800000000000001
20
50.750000001500013
30
0
11
12.300000000000001
21
50.750000001500013
31
0
0
LINE
5
228
100
AcDbEntity
8
0
100
AcDbLine
10
12.300000000000001
20
50.750000001500013
30
0
11
12.300000000000002
21
49.250000001499998
31
0
0
LINE
5
229
100
AcDbEntity
8
0
100
AcDbLine
10
12.300000000000002
20
49.250000001499998
30
0
11
17.800000000000004
21
49.250000001500005
31
0
0
LINE
5
230
100
AcDbEntity
8
0
100
AcDbLine
10
17.800000000000004
20
49.250000001500005
30
0
11
17.800000000000001
21
48.750000001500013
31
0
0
LINE
5
231
100
AcDbEntity
8
0
100
AcDbLine
10
17.800000000000001
20
48.750000001500013
30
0
11
12.300000000000001
21
48.750000001500013
31
0
0
LINE
5
232
100
AcDbEntity
8
0
100
AcDbLine
10
12.300000000000001
20
48.750000001500013
30
0
11
12.300000000000002
21
47.250000001500005
31
0
0
LINE
5
233
100
AcDbEntity
8
0
100
AcDbLine
10
12.300000000000002
20
47.250000001500005
30
0
11
17.800000000000004
21
47.250000001500005
31
0
0
LINE
5
234
100
AcDbEntity
8
0
100
AcDbLine
10
17.800000000000004
20
47.250000001500005
30
0
11
17.800000000000001
21
46.750000001499998
31
0
0
LINE
5
235
100
AcDbEntity
8
0
100
AcDbLine
10
17.800000000000001
20
46.750000001499998
30
0
11
12.300000000000001
21
46.750000001499998
31
0
0
LINE
5
236
100
AcDbEntity
8
0
100
AcDbLine
10
12.300000000000001
20
46.750000001499998
30
0
11
12.300000000000002
21
45.250000001499998
31
0
0
LINE
5
237
100
AcDbEntity
8
0
100
AcDbLine
10
12.300000000000002
20
45.250000001499998
30
0
11
17.800000000000004
21
45.250000001500005
31
0
0
LINE
5
238
100
AcDbEntity
8
0
100
AcDbLine
10
17.800000000000004
20
45.250000001500005
30
0
11
17.800000000000001
21
44.750000001500005
31
0
0
LINE
5
239
100
AcDbEntity
8
0
100
AcDbLine
10
17.800000000000001
20
44.750000001500005
30
0
11
12.300000000000001
21
44.750000001500005
31
0
0
LINE
5
240
100
AcDbEntity
8
0
100
AcDbLine
10
12.300000000000001
20
44.750000001500005
30
0
11
12.300000000000002
21
43.250000001499991
31
0
0
LINE
5
241
100
AcDbEntity
8
0
100
AcDbLine
10
12.300000000000002
20
43.250000001499991
30
0
11
17.800000000000004
21
43.250000001499991
31
0
0
LINE
5
242
100
AcDbEntity
8
0
100
AcDbLine
10
17.800000000000004
20
43.250000001499991
30
0
11
17.800000000000001
21
42.750000001499998
31
0
0
LINE
5
243
100
AcDbEntity
8
0
100
AcDbLine
10
17.800000000000001
20
42.750000001499998
30
0
11
12.300000000000001
21
42.750000001500005
31
0
0
LINE
5
244
100
AcDbEntity
8
0
100
AcDbLine
10
12.300000000000001
20
42.750000001500005
30
0
11
12.300000000000002
21
41.250000001500013
31
0
0
LINE
5
245
100
AcDbEntity
8
0
100
AcDbLine
10
12.300000000000002
20
41.250000001500013
30
0
11
17.800000000000004
21
41.250000001500013
31
0
0
LINE
5
246
100
AcDbEntity
8
0
100
AcDbLine
10
17.800000000000004
20
41.250000001500013
30
0
11
17.800000000000001
21
40.750000001499998
31
0
0
LINE
5
247
100
AcDbEntity
8
0
100
AcDbLine
10
17.800000000000001
20
40.750000001499998
30
0
11
12.300000000000001
21
40.750000001499998
31
0
0
LINE
5
248
100
AcDbEntity
8
0
100
AcDbLine
10
12.300000000000001
20
40.750000001499998
30
0
11
12.300000000000002
21
39.250000001500005
31
0
0
LINE
5
249
100
AcDbEntity
8
0
100
AcDbLine
10
12.300000000000002
20
39.250000001500005
30
0
11
17.800000000000004
21
39.250000001500005
31
0
0
LINE
5
250
100
AcDbEntity
8
0
100
AcDbLine
10
17.800000000000004
20
39.250000001500005
30
0
11
17.800000000000001
21
38.750000001500013
31
0
0
LINE
5
251
100
AcDbEntity
8
0
100
AcDbLine
10
17.800000000000001
20
38.750000001500013
30
0
11
12.300000000000001
21
38.750000001500013
31
0
0
LINE
5
252
100
AcDbEntity
8
0
100
AcDbLine
10
12.300000000000001
20
38.750000001500013
30
0
11
12.300000000000002
21
37.250000001500005
31
0
0
LINE
5
253
100
AcDbEntity
8
0
100
AcDbLine
10
12.300000000000002
20
37.250000001500005
30
0
11
17.800000000000004
21
37.250000001500005
31
0
0
LINE
5
254
100
AcDbEntity
8
0
100
AcDbLine
10
17.800000000000004
20
37.250000001500005
30
0
11
17.800000000000001
21
36.750000001500005
31
0
0
LINE
5
255
100
AcDbEntity
8
0
100
AcDbLine
10
17.800000000000001
20
36.750000001500005
30
0
11
12.300000000000001
21
36.750000001500013
31
0
0
LINE
5
256
100
AcDbEntity
8
0
100
AcDbLine
10
12.300000000000001
20
36.750000001500013
30
0
11
12.300000000000002
21
35.250000001500005
31
0
0
LINE
5
257
100
AcDbEntity
8
0
100
AcDbLine
10
12.300000000000002
20
35.250000001500005
30
0
11
17.800000000000004
21
35.250000001500005
31
0
0
LINE
5
258
100
AcDbEntity
8
0
100
AcDbLine
10
17.800000000000004
20
35.250000001500005
30
0
11
17.800000000000001
21
34.750000001500005
31
0
0
LINE
5
259
100
AcDbEntity
8
0
100
AcDbLine
10
17.800000000000001
20
34.750000001500005
30
0
11
12.300000000000001
21
34.750000001500005
31
0
0
LINE
5
260
100
AcDbEntity
8
0
100
AcDbLine
10
12.300000000000001
20
34.750000001500005
30
0
11
12.300000000000002
21
33.250000001500005
31
0
0
LINE
5
261
100
AcDbEntity
8
0
100
AcDbLine
10
12.300000000000002
20
33.250000001500005
30
0
11
17.800000000000004
21
33.250000001500005
31
0
0
LINE
5
262
100
AcDbEntity
8
0
100
AcDbLine
10
17.800000000000004
20
33.250000001500005
30
0
11
17.800000000000001
21
32.750000001500005
31
0
0
LINE
5
263
100
AcDbEntity
8
0
100
AcDbLine
10
17.800000000000001
20
32.750000001500005
30
0
11
12.300000000000001
21
32.750000001500005
31
0
0
LINE
5
264
100
AcDbEntity
8
0
100
AcDbLine
10
12.300000000000001
20
32.750000001500005
30
0
11
12.300000000000002
21
31.250000001500005
31
0
0
LINE
5
265
100
AcDbEntity
8
0
100
AcDbLine
10
12.300000000000002
20
31.250000001500005
30
0
11
17.800000000000004
21
31.250000001500005
31
0
0
LINE
5
266
100
AcDbEntity
8
0
100
AcDbLine
10
17.800000000000004
20
31.250000001500005
30
0
11
17.800000000000001
21
30.750000001500002
31
0
0
LINE
5
267
100
AcDbEntity
8
0
100
AcDbLine
10
17.800000000000001
20
30.750000001500002
30
0
11
12.300000000000001
21
30.750000001500002
31
0
0
LINE
5
268
100
AcDbEntity
8
0
100
AcDbLine
10
12.300000000000001
20
30.750000001500002
30
0
11
12.300000000000002
21
29.250000001500002
31
0
0
LINE
5
269
100
AcDbEntity
8
0
100
AcDbLine
10
12.300000000000002
20
29.250000001500002
30
0
11
17.800000000000004
21
29.250000001500002
31
0
0
LINE
5
270
100
AcDbEntity
8
0
100
AcDbLine
10
17.800000000000004
20
29.250000001500002
30
0
11
17.800000000000001
21
28.750000001499998
31
0
0
LINE
5
271
100
AcDbEntity
8
0
100
AcDbLine
10
17.800000000000001
20
28.750000001499998
30
0
11
12.300000000000001
21
28.750000001499998
31
0
0
LINE
5
272
100
AcDbEntity
8
0
100
AcDbLine
10
12.300000000000001
20
28.750000001499998
30
0
11
12.300000000000002
21
27.250000001500002
31
0
0
LINE
5
273
100
AcDbEntity
8
0
100
AcDbLine
10
12.300000000000002
20
27.250000001500002
30
0
11
17.800000000000004
21
27.250000001500002
31
0
0
LINE
5
274
100
AcDbEntity
8
0
100
AcDbLine
10
17.800000000000004
20
27.250000001500002
30
0
11
17.800000000000001
21
26.750000001499998
31
0
0
LINE
5
275
100
AcDbEntity
8
0
100
AcDbLine
10
17.800000000000001
20
26.750000001499998
30
0
11
12.300000000000001
21
26.750000001500002
31
0
0
LINE
5
276
100
AcDbEntity
8
0
100
AcDbLine
10
12.300000000000001
20
26.750000001500002
30
0
11
12.300000000000002
21
25.250000001500005
31
0
0
LINE
5
277
100
AcDbEntity
8
0
100
AcDbLine
10
12.300000000000002
20
25.250000001500005
30
0
11
17.800000000000004
21
25.250000001499998
31
0
0
LINE
5
278
100
AcDbEntity
8
0
100
AcDbLine
10
17.800000000000004
20
25.250000001499998
30
0
11
17.800000000000001
21
24.750000001500002
31
0
0
LINE
5
279
100
AcDbEntity
8
0
100
AcDbLine
10
17.800000000000001
20
24.750000001500002
30
0
11
12.300000000000001
21
24.750000001500005
31
0
0
LINE
5
280
100
AcDbEntity
8
0
100
AcDbLine
10
12.300000000000001
20
24.750000001500005
30
0
11
12.300000000000002
21
23.250000001500002
31
0
0
LINE
5
281
100
AcDbEntity
8
0
100
AcDbLine
10
12.300000000000002
20
23.250000001500002
30
0
11
17.800000000000004
21
23.250000001500002
31
0
0
LINE
5
282
100
AcDbEntity
8
0
100
AcDbLine
10
17.800000000000004
20
23.250000001500002
30
0
11
17.800000000000001
21
22.750000001500005
31
0
0
LINE
5
283
100
AcDbEntity
8
0
100
AcDbLine
10
17.800000000000001
20
22.750000001500005
30
0
11
12.300000000000001
21
22.750000001500005
31
0
0
LINE
5
284
100
AcDbEntity
8
0
100
AcDbLine
10
12.300000000000001
20
22.750000001500005
30
0
11
12.300000000000002
21
21.250000001500005
31
0
0
LINE
5
285
100
AcDbEntity
8
0
100
AcDbLine
10
12.300000000000002
20
21.250000001500005
30
0
11
17.800000000000004
21
21.250000001500005
31
0
0
LINE
5
286
100
AcDbEntity
8
0
100
AcDbLine
10
17.800000000000004
20
21.250000001500005
30
0
11
17.800000000000001
21
20.750000001499998
31
0
0
LINE
5
287
100
AcDbEntity
8
0
100
AcDbLine
10
17.800000000000001
20
20.750000001499998
30
0
11
12.300000000000001
21
20.750000001499998
31
0
0
LINE
5
288
100
AcDbEntity
8
0
100
AcDbLine
10
12.300000000000001
20
20.750000001499998
30
0
11
12.300000000000002
21
19.250000001500002
31
0
0
LINE
5
289
100
AcDbEntity
8
0
100
AcDbLine
10
12.300000000000002
20
19.250000001500002
30
0
11
17.800000000000004
21
19.250000001500002
31
0
0
LINE
5
290
100
AcDbEntity
8
0
100
AcDbLine
10
17.800000000000004
20
19.250000001500002
30
0
11
17.800000000000001
21
18.750000001500005
31
0
0
LINE
5
291
100
AcDbEntity
8
0
100
AcDbLine
10
17.800000000000001
20
18.750000001500005
30
0
11
12.300000000000001
21
18.750000001500005
31
0
0
LINE
5
292
100
AcDbEntity
8
0
100
AcDbLine
10
12.300000000000001
20
18.750000001500005
30
0
11
12.300000000000002
21
17.250000001500005
31
0
0
LINE
5
293
100
AcDbEntity
8
0
100
AcDbLine
10
12.300000000000002
20
17.250000001500005
30
0
11
17.800000000000004
21
17.250000001500002
31
0
0
LINE
5
294
100
AcDbEntity
8
0
100
AcDbLine
10
17.800000000000004
20
17.250000001500002
30
0
11
17.800000000000001
21
16.750000001500002
31
0
0
LINE
5
295
100
AcDbEntity
8
0
100
AcDbLine
10
17.800000000000001
20
16.750000001500002
30
0
11
12.300000000000001
21
16.750000001500002
31
0
0
LINE
5
296
100
AcDbEntity
8
0
100
AcDbLine
10
12.300000000000001
20
16.750000001500002
30
0
11
12.300000000000002
21
15.250000001500002
31
0
0
LINE
5
297
100
AcDbEntity
8
0
100
AcDbLine
10
12.300000000000002
20
15.250000001500002
30
0
11
17.800000000000004
21
15.250000001500002
31
0
0
LINE
5
298
100
AcDbEntity
8
0
100
AcDbLine
10
17.800000000000004
20
15.250000001500002
30
0
11
17.800000000000001
21
14.750000001500004
31
0
0
LINE
5
299
100
AcDbEntity
8
0
100
AcDbLine
10
17.800000000000001
20
14.750000001500004
30
0
11
12.300000000000001
21
14.750000001500002
31
0
0
LINE
5
300
100
AcDbEntity
8
0
100
AcDbLine
10
12.300000000000001
20
14.750000001500002
30
0
11
12.300000000000002
21
13.2500000015
31
0
0
LINE
5
301
100
AcDbEntity
8
0
100
AcDbLine
10
12.300000000000002
20
13.2500000015
30
0
11
17.800000000000004
21
13.2500000015
31
0
0
LINE
5
302
100
AcDbEntity
8
0
100
AcDbLine
10
17.800000000000004
20
13.2500000015
30
0
11
17.800000000000001
21
12.750000001499997
31
0
0
LINE
5
303
100
AcDbEntity
8
0
100
AcDbLine
10
17.800000000000001
20
12.750000001499997
30
0
11
12.300000000000001
21
12.750000001499997
31
0
0
LINE
5
304
100
AcDbEntity
8
0
100
AcDbLine
10
12.300000000000001
20
12.750000001499997
30
0
11
12.300000000000002
21
11.250000001499998
31
0
0
LINE
5
305
100
AcDbEntity
8
0
100
AcDbLine
10
12.300000000000002
20
11.250000001499998
30
0
11
17.800000000000004
21
11.250000001499998
31
0
0
LINE
5
306
100
AcDbEntity
8
0
100
AcDbLine
10
17.800000000000004
20
11.250000001499998
30
0
11
17.800000000000001
21
10.750000001499998
31
0
0
LINE
5
307
100
AcDbEntity
8
0
100
AcDbLine
10
17.800000000000001
20
10.750000001499998
30
0
11
12.300000000000001
21
10.750000001499995
31
0
0
LINE
5
308
100
AcDbEntity
8
0
100
AcDbLine
10
12.300000000000001
20
10.750000001499995
30
0
11
12.300000000000002
21
9.2500000014999966
31
0
0
LINE
5
309
100
AcDbEntity
8
0
100
AcDbLine
10
12.300000000000002
20
9.2500000014999966
30
0
11
17.800000000000004
21
9.2500000014999966
31
0
0
LINE
5
310
100
AcDbEntity
8
0
100
AcDbLine
10
17.800000000000004
20
9.2500000014999966
30
0
11
17.800000000000001
21
8.7500000015000019
31
0
0
LINE
5
311
100
AcDbEntity
8
0
100
AcDbLine
10
17.800000000000001
20
8.7500000015000019
30
0
11
12.300000000000001
21
8.7500000015000019
31
0
0
LINE
5
312
100
AcDbEntity
8
0
100
AcDbLine
10
12.300000000000001
20
8.7500000015000019
30
0
11
12.300000000000002
21
7.250000001500001
31
0
0
LINE
5
313
100
AcDbEntity
8
0
100
AcDbLine
10
12.300000000000002
20
7.250000001500001
30
0
11
17.800000000000004
21
7.2500000015000019
31
0
0
LINE
5
314
100
AcDbEntity
8
0
100
AcDbLine
10
17.800000000000004
20
7.2500000015000019
30
0
11
17.800000000000001
21
6.7500000014999992
31
0
0
LINE
5
315
100
AcDbEntity
8
0
100
AcDbLine
10
17.800000000000001
20
6.7500000014999992
30
0
11
12.300000000000001
21
6.7500000014999992
31
0
0
LINE
5
316
100
AcDbEntity
8
0
100
AcDbLine
10
12.300000000000001
20
6.7500000014999992
30
0
11
12.300000000000002
21
5.2500000014999992
31
0
0
LINE
5
317
100
AcDbEntity
8
0
100
AcDbLine
10
12.300000000000002
20
5.2500000014999992
30
0
11
17.800000000000004
21
5.2500000015000001
31
0
0
LINE
5
318
100
AcDbEntity
8
0
100
AcDbLine
10
17.800000000000004
20
5.2500000015000001
30
0
11
17.800000000000001
21
4.7500000014999975
31
0
0
LINE
5
319
100
AcDbEntity
8
0
100
AcDbLine
10
17.800000000000001
20
4.7500000014999975
30
0
11
12.300000000000001
21
4.7500000014999975
31
0
0
LINE
5
320
100
AcDbEntity
8
0
100
AcDbLine
10
12.300000000000001
20
4.7500000014999975
30
0
11
12.300000000000002
21
3.2500000014999975
31
0
0
LINE
5
321
100
AcDbEntity
8
0
100
AcDbLine
10
12.300000000000002
20
3.2500000014999975
30
0
11
17.800000000000004
21
3.2500000014999975
31
0
0
LINE
5
322
100
AcDbEntity
8
0
100
AcDbLine
10
17.800000000000004
20
3.2500000014999975
30
0
11
17.800000000000001
21
2.7500000015000028
31
0
0
LINE
5
323
100
AcDbEntity
8
0
100
AcDbLine
10
17.800000000000001
20
2.7500000015000028
30
0
11
12.300000000000001
21
2.7500000015000028
31
0
0
LINE
5
324
100
AcDbEntity
8
0
100
AcDbLine
10
12.300000000000001
20
2.7500000015000028
30
0
11
12.300000000000002
21
1.2500000015000026
31
0
0
LINE
5
325
100
AcDbEntity
8
0
100
AcDbLine
10
12.300000000000002
20
1.2500000015000026
30
0
11
17.800000000000004
21
1.2500000015000026
31
0
0
LINE
5
326
100
AcDbEntity
8
0
100
AcDbLine
10
17.800000000000004
20
1.2500000015000026
30
0
11
17.800000000000001
21
0.75000000150000068
31
0
0
LINE
5
327
100
AcDbEntity
8
0
100
AcDbLine
10
17.800000000000001
20
0.75000000150000068
30
0
11
12.300000000000001
21
0.75000000150000068
31
0
0
LINE
5
328
100
AcDbEntity
8
0
100
AcDbLine
10
12.300000000000001
20
0.75000000150000068
30
0
11
12.300000000000002
21
-0.74999999849999954
31
0
0
LINE
5
329
100
AcDbEntity
8
0
100
AcDbLine
10
12.300000000000002
20
-0.74999999849999954
30
0
11
17.800000000000004
21
-0.74999999849999932
31
0
0
LINE
5
330
100
AcDbEntity
8
0
100
AcDbLine
10
17.800000000000004
20
-0.74999999849999932
30
0
11
17.800000000000001
21
-1.2499999985000005
31
0
0
LINE
5
331
100
AcDbEntity
8
0
100
AcDbLine
10
17.800000000000001
20
-1.2499999985000005
30
0
11
12.300000000000001
21
-1.2499999985000005
31
0
0
LINE
5
332
100
AcDbEntity
8
0
100
AcDbLine
10
12.300000000000001
20
-1.2499999985000005
30
0
11
12.300000000000002
21
-2.7499999985000017
31
0
0
LINE
5
333
100
AcDbEntity
8
0
100
AcDbLine
10
12.300000000000002
20
-2.7499999985000017
30
0
11
17.800000000000004
21
-2.7499999985000017
31
0
0
LINE
5
334
100
AcDbEntity
8
0
100
AcDbLine
10
17.800000000000004
20
-2.7499999985000017
30
0
11
17.800000000000001
21
-3.2499999985000039
31
0
0
LINE
5
335
100
AcDbEntity
8
0
100
AcDbLine
10
17.800000000000001
20
-3.2499999985000039
30
0
11
12.300000000000001
21
-3.2499999985000034
31
0
0
LINE
5
336
100
AcDbEntity
8
0
100
AcDbLine
10
12.300000000000001
20
-3.2499999985000034
30
0
11
12.300000000000002
21
-4.7499999985000034
31
0
0
LINE
5
337
100
AcDbEntity
8
0
100
AcDbLine
10
12.300000000000002
20
-4.7499999985000034
30
0
11
17.800000000000004
21
-4.7499999985000034
31
0
0
LINE
5
338
100
AcDbEntity
8
0
100
AcDbLine
10
17.800000000000004
20
-4.7499999985000034
30
0
11
17.800000000000001
21
-5.2499999985000025
31
0
0
LINE
5
339
100
AcDbEntity
8
0
100
AcDbLine
10
17.800000000000001
20
-5.2499999985000025
30
0
11
12.300000000000001
21
-5.2499999985000025
31
0
0
LINE
5
340
100
AcDbEntity
8
0
100
AcDbLine
10
12.300000000000001
20
-5.2499999985000025
30
0
11
12.300000000000002
21
-6.7499999984999999
31
0
0
LINE
5
341
100
AcDbEntity
8
0
100
AcDbLine
10
12.300000000000002
20
-6.7499999984999999
30
0
11
17.800000000000004
21
-6.7499999985000017
31
0
0
LINE
5
342
100
AcDbEntity
8
0
100
AcDbLine
10
17.800000000000004
20
-6.7499999985000017
30
0
11
17.800000000000001
21
-7.2499999984999999
31
0
0
LINE
5
343
100
AcDbEntity
8
0
100
AcDbLine
10
17.800000000000001
20
-7.2499999984999999
30
0
11
12.300000000000001
21
-7.2499999984999999
31
0
0
LINE
5
344
100
AcDbEntity
8
0
100
AcDbLine
10
12.300000000000001
20
-7.2499999984999999
30
0
11
12.300000000000002
21
-8.7499999984999981
31
0
0
LINE
5
345
100
AcDbEntity
8
0
100
AcDbLine
10
12.300000000000002
20
-8.7499999984999981
30
0
11
17.800000000000004
21
-8.7499999984999981
31
0
0
LINE
5
346
100
AcDbEntity
8
0
100
AcDbLine
10
17.800000000000004
20
-8.7499999984999981
30
0
11
17.800000000000001
21
-9.2499999984999999
31
0
0
LINE
5
347
100
AcDbEntity
8
0
100
AcDbLine
10
17.800000000000001
20
-9.2499999984999999
30
0
11
12.300000000000002
21
-9.2499999984999999
31
0
0
LINE
5
348
100
AcDbEntity
8
0
100
AcDbLine
10
11.399999999999999
20
49.999999997500012
30
0
11
10.599999763071537
21
49.999999997500012
31
0
0
LINE
5
349
100
AcDbEntity
8
0
100
AcDbLine
10
10.5
20
10.999999999500002
30
0
11
10.500000000000004
21
8.9999999995
31
0
0
LINE
5
350
100
AcDbEntity
8
0
100
AcDbLine
10
10.5
20
-29.999999998500005
30
0
11
11.399999999999999
21
-29.999999998500005
31
0
0
LINE
5
351
100
AcDbEntity
8
0
100
AcDbLine
10
11.5
20
-29.999999998500005
30
0
11
11.5
21
49.999999997500012
31
0
0
LINE
5
352
100
AcDbEntity
8
0
100
AcDbLine
10
11.399999999999999
20
49.999999997500012
30
0
11
11.399999999999999
21
51.452243074459076
31
0
0
LINE
5
353
100
AcDbEntity
8
0
100
AcDbLine
10
11.399999999999999
20
-34.999999998500002
30
0
11
11.399999999999999
21
-29.999999998500005
31
0
6
DASHED
0
LINE
5
354
100
AcDbEntity
8
0
100
AcDbLine
10
11.5
20
49.999999997500012
30
0
11
11.5
21
51.249999997500012
31
0
0
LINE
5
355
100
AcDbEntity
8
0
100
AcDbLine
10
10.500000000000004
20
49.999999997500012
30
0
11
10.500000000000004
21
52.499999997499998
31
0
0
LINE
5
356
100
AcDbEntity
8
0
100
AcDbLine
10
11.399999999999999
20
52.499999997499998
30
0
11
10.500000000000004
21
52.499999997499998
31
0
0
LINE
5
357
100
AcDbEntity
8
0
100
AcDbLine
10
11.399999999999999
20
51.452243074459076
30
0
11
15.000000223517418
21
51.452243074459076
31
0
0
LINE
5
358
100
AcDbEntity
8
0
100
AcDbLine
10
15.000000223517418
20
55.000000819563866
30
0
11
12.300000000000002
21
54.999999997500012
31
0
0
LINE
5
359
100
AcDbEntity
8
0
100
AcDbLine
10
11.399999999999999
20
52.499999997499998
30
0
11
11.999999731779099
21
52.499999997499998
31
0
0
LINE
5
360
100
AcDbEntity
8
0
100
AcDbLine
10
11.999999731779099
20
52.499999997499998
30
0
11
11.999999731779099
21
54.999999997500012
31
0
0
LINE
5
361
100
AcDbEntity
8
0
100
AcDbLine
10
10.599999763071537
20
49.999999997500012
30
0
11
10.599999763071537
21
52.499999997499998
31
0
0
LINE
5
362
100
AcDbEntity
8
0
100
AcDbLine
10
10.599999763071537
20
52.499999997499998
30
0
11
10.599999763071537
21
52.399999997500004
31
0
6
DASHED
0
LINE
5
363
100
AcDbEntity
8
0
100
AcDbLine
10
10.599999763071537
20
52.399999997500004
30
0
11
12.099999763071537
21
52.399999997500004
31
0
0
LINE
5
364
100
AcDbEntity
8
0
100
AcDbLine
10
12.099999763071537
20
52.399999997500004
30
0
11
12.099999763071537
21
54.999999997500012
31
0
0
LINE
5
365
100
AcDbEntity
8
0
100
AcDbLine
10
11.5
20
51.249999997500012
30
0
11
11.5
21
51.452243074459076
31
0
0
LINE
5
366
100
AcDbEntity
8
0
100
AcDbLine
10
15.000000223517418
20
51.452243074459076
30
0
11
17.799999602138996
21
51.452243074459076
31
0
0
LINE
5
367
100
AcDbEntity
8
0
100
AcDbLine
10
17.799999602138996
20
51.452243074459076
30
0
11
17.800000000000004
21
51.250000001500013
31
0
0
LINE
5
368
100
AcDbEntity
8
0
100
AcDbLine
10
6.5000000000000018
20
54.999999997500012
30
0
11
11.999999731779099
21
54.999999997500012
31
0
0
LINE
5
369
100
AcDbEntity
8
0
100
AcDbLine
10
12.099999763071537
20
54.999999997500012
30
0
11
12.300000000000002
21
54.999999997500012
31
0
0
LINE
5
370
100
AcDbEntity
8
0
100
AcDbLine
10
11.399999999999999
20
-29.999999998500005
30
0
11
11.399999999999999
21
-32.999999998500009
31
0
0
LINE
5
371
100
AcDbEntity
8
0
100
AcDbLine
10
11.399999999999999
20
-32.999999998500009
30
0
11
9
21
-32.999999998500009
31
0
0
LINE
5
372
100
AcDbEntity
8
0
100
AcDbLine
10
9
20
-32.999999998500009
30
0
11
9
21
-35.000000521540642
31
0
0
LINE
5
373
100
AcDbEntity
8
0
100
AcDbLine
10
17.799999602138996
20
51.452243074459076
30
0
11
17.799999602138996
21
55.000000819563866
31
0
0
LINE
5
374
100
AcDbEntity
8
0
100
AcDbLine
10
17.799999602138996
20
55.000000819563866
30
0
11
15.000000223517418
21
55.000000819563866
31
0
0
LINE
5
375
100
AcDbEntity
8
0
100
AcDbLine
10
12.300000000000002
20
-35.000000521540642
30
0
11
12.400000000000002
21
-35.000000521540642
31
0
0
LINE
5
376
100
AcDbEntity
8
0
100
AcDbLine
10
12.400000000000002
20
-35.000000521540642
30
0
11
12.400000000000002
21
-33.249999998500002
31
0
0
ENDSEC
0
SECTION
2
OBJECTS
0
DICTIONARY
5
C
100
AcDbDictionary
3
ACAD_GROUP
350
D
3
ACAD_MLINESTYLE
350
17
0
DICTIONARY
5
D
100
AcDbDictionary
0
DICTIONARY
5
1A
330
C
100
AcDbDictionary
0
DICTIONARY
5
17
100
AcDbDictionary
0
ENDSEC
0
EOF
