  0
SECTION
  2
HEADER
  9
$INSBASE
 10
0.0000
 20
0.0000
  9
$EXTMIN
 10
-0.031207139506091483
 20
-0.65520713947489129
  9
$EXTMAX
 10
0.057907139506091485
 20
0.65520713947489129
  9
$LIMMIN
 10
-0.031207139506091483
 20
-0.65520713947489129
  9
$LIMMAX
 10
0.057907139506091485
 20
0.65520713947489129
  9
$TEXTSTYLE
  7
STANDARD
  9
$CLAYER
  8
default
  0
ENDSEC
  0
SECTION
  2
TABLES
  0
TABLE
  2
LTYPE
 70
4948253
  0
LTYPE
  2
CONTINUOUS
 70
    64
  3
Solid line
 72
    65
 73
     0
 40
0.0
  0
ENDTAB
  0
TABLE
  2
LAYER
 70
     5
  0
LAYER
  2
default
 70
    64
 62
     7
  6
CONTINUOUS
  0
LAYER
  2
layer2
 70
    64
 62
     7
  6
CONTINUOUS
  0
LAYER
  2
layer1
 70
    64
 62
     7
  6
CONTINUOUS
  0
LAYER
  2
layer3
 70
    64
 62
     7
  6
CONTINUOUS
  0
LAYER
  2
layer4
 70
    64
 62
     7
  6
CONTINUOUS
  0
LAYER
  2
layer6
 70
    64
 62
     7
  6
CONTINUOUS
  0
LAYER
  2
layer5
 70
    64
 62
     7
  6
CONTINUOUS
  0
ENDTAB
  0
TABLE
  2
STYLE
 70
     1
  0
STYLE
  2
STANDARD
 70
     0
 40
0.0
 41
1.0
 50
0.0
 71
     0
 42
0.2
  3
txt
  4

  0
ENDTAB
  0
TABLE
  2
VIEW
 70
     0
  0
ENDTAB
  0
ENDSEC
  0
SECTION
  2
BLOCKS
  0
ENDSEC
  0
SECTION
  2
ENTITIES
  0
LINE
  8
default
 10
0
 20
-0.62399999996879985
 30
0.0
 11
0
 21
-0.51999999997399993
 31
0.0
  0
LINE
  8
default
 10
0
 20
0.62399999996879985
 30
0.0
 11
0.026700000000000002
 21
0.62399999996879985
 31
0.0
  0
LINE
  8
default
 10
0.026700000000000002
 20
0.62399999996879985
 30
0.0
 11
0.026700000000000002
 21
-0.62399999996879985
 31
0.0
  0
LINE
  8
default
 10
0.026700000000000002
 20
-0.62399999996879985
 30
0.0
 11
0
 21
-0.62399999996879985
 31
0.0
  0
LINE
  8
layer2
 10
0.0075000000000000006
 20
-0.029999999998499997
 30
0.0
 11
0.0075000000000000006
 21
-0.0251666666655
 31
0.0
  0
LINE
  8
layer2
 10
0.0075000000000000006
 20
-0.0251666666655
 30
0.0
 11
0.010500000000000001
 21
-0.0251666666655
 31
0.0
  0
LINE
  8
layer1
 10
0.010500000000000001
 20
-0.0251666666655
 30
0.0
 11
0.010500000000000001
 21
-0.029999999998499997
 31
0.0
  0
LINE
  8
layer2
 10
0.010500000000000001
 20
-0.029999999998499997
 30
0.0
 11
0.0075000000000000006
 21
-0.029999999998499997
 31
0.0
  0
LINE
  8
layer2
 10
0.0075000000000000006
 20
-0.023166666665499998
 30
0.0
 11
0.0075000000000000006
 21
-0.0183333333325
 31
0.0
  0
LINE
  8
layer2
 10
0.0075000000000000006
 20
-0.0183333333325
 30
0.0
 11
0.010500000000000001
 21
-0.0183333333325
 31
0.0
  0
LINE
  8
layer1
 10
0.010500000000000001
 20
-0.0183333333325
 30
0.0
 11
0.010500000000000001
 21
-0.023166666665499998
 31
0.0
  0
LINE
  8
layer2
 10
0.010500000000000001
 20
-0.023166666665499998
 30
0.0
 11
0.0075000000000000006
 21
-0.023166666665499998
 31
0.0
  0
LINE
  8
layer2
 10
0.0075000000000000006
 20
-0.016333333332499998
 30
0.0
 11
0.0075000000000000006
 21
-0.011499999999499999
 31
0.0
  0
LINE
  8
layer2
 10
0.0075000000000000006
 20
-0.011499999999499999
 30
0.0
 11
0.010500000000000001
 21
-0.011499999999499999
 31
0.0
  0
LINE
  8
layer1
 10
0.010500000000000001
 20
-0.011499999999499999
 30
0.0
 11
0.010500000000000001
 21
-0.016333333332499998
 31
0.0
  0
LINE
  8
layer2
 10
0.010500000000000001
 20
-0.016333333332499998
 30
0.0
 11
0.0075000000000000006
 21
-0.016333333332499998
 31
0.0
  0
LINE
  8
layer2
 10
0.0075000000000000006
 20
-0.0094999999994999987
 30
0.0
 11
0.0075000000000000006
 21
-0.0046666666664999992
 31
0.0
  0
LINE
  8
layer2
 10
0.0075000000000000006
 20
-0.0046666666664999992
 30
0.0
 11
0.010500000000000001
 21
-0.0046666666664999992
 31
0.0
  0
LINE
  8
layer1
 10
0.010500000000000001
 20
-0.0046666666664999992
 30
0.0
 11
0.010500000000000001
 21
-0.0094999999994999987
 31
0.0
  0
LINE
  8
layer2
 10
0.010500000000000001
 20
-0.0094999999994999987
 30
0.0
 11
0.0075000000000000006
 21
-0.0094999999994999987
 31
0.0
  0
LINE
  8
layer2
 10
0.0075000000000000006
 20
-0.0026666666664999991
 30
0.0
 11
0.0075000000000000006
 21
0.0021666666665000004
 31
0.0
  0
LINE
  8
layer2
 10
0.0075000000000000006
 20
0.0021666666665000004
 30
0.0
 11
0.010500000000000001
 21
0.0021666666665000004
 31
0.0
  0
LINE
  8
layer1
 10
0.010500000000000001
 20
0.0021666666665000004
 30
0.0
 11
0.010500000000000001
 21
-0.0026666666664999991
 31
0.0
  0
LINE
  8
layer2
 10
0.010500000000000001
 20
-0.0026666666664999991
 30
0.0
 11
0.0075000000000000006
 21
-0.0026666666664999991
 31
0.0
  0
LINE
  8
layer2
 10
0.0075000000000000006
 20
0.0041666666665000004
 30
0.0
 11
0.0075000000000000006
 21
0.0089999999995
 31
0.0
  0
LINE
  8
layer2
 10
0.0075000000000000006
 20
0.0089999999995
 30
0.0
 11
0.010500000000000001
 21
0.0089999999995
 31
0.0
  0
LINE
  8
layer1
 10
0.010500000000000001
 20
0.0089999999995
 30
0.0
 11
0.010500000000000001
 21
0.0041666666665000004
 31
0.0
  0
LINE
  8
layer2
 10
0.010500000000000001
 20
0.0041666666665000004
 30
0.0
 11
0.0075000000000000006
 21
0.0041666666665000004
 31
0.0
  0
LINE
  8
layer2
 10
0.0075000000000000006
 20
0.0109999999995
 30
0.0
 11
0.0075000000000000006
 21
0.015833333332499998
 31
0.0
  0
LINE
  8
layer2
 10
0.0075000000000000006
 20
0.015833333332499998
 30
0.0
 11
0.010500000000000001
 21
0.015833333332499998
 31
0.0
  0
LINE
  8
layer1
 10
0.010500000000000001
 20
0.015833333332499998
 30
0.0
 11
0.010500000000000001
 21
0.0109999999995
 31
0.0
  0
LINE
  8
layer2
 10
0.010500000000000001
 20
0.0109999999995
 30
0.0
 11
0.0075000000000000006
 21
0.0109999999995
 31
0.0
  0
LINE
  8
layer2
 10
0.0075000000000000006
 20
0.0178333333325
 30
0.0
 11
0.0075000000000000006
 21
0.022666666665499997
 31
0.0
  0
LINE
  8
layer2
 10
0.0075000000000000006
 20
0.022666666665499997
 30
0.0
 11
0.010500000000000001
 21
0.022666666665499997
 31
0.0
  0
LINE
  8
layer1
 10
0.010500000000000001
 20
0.022666666665499997
 30
0.0
 11
0.010500000000000001
 21
0.0178333333325
 31
0.0
  0
LINE
  8
layer2
 10
0.010500000000000001
 20
0.0178333333325
 30
0.0
 11
0.0075000000000000006
 21
0.0178333333325
 31
0.0
  0
LINE
  8
layer2
 10
0.0075000000000000006
 20
0.024666666665499999
 30
0.0
 11
0.0075000000000000006
 21
0.029499999998499997
 31
0.0
  0
LINE
  8
layer2
 10
0.0075000000000000006
 20
0.029499999998499997
 30
0.0
 11
0.010500000000000001
 21
0.029499999998499997
 31
0.0
  0
LINE
  8
layer1
 10
0.010500000000000001
 20
0.029499999998499997
 30
0.0
 11
0.010500000000000001
 21
0.024666666665499999
 31
0.0
  0
LINE
  8
layer2
 10
0.010500000000000001
 20
0.024666666665499999
 30
0.0
 11
0.0075000000000000006
 21
0.024666666665499999
 31
0.0
  0
LINE
  8
layer2
 10
0.0075000000000000006
 20
0.031499999998499999
 30
0.0
 11
0.0075000000000000006
 21
0.036333333331499996
 31
0.0
  0
LINE
  8
layer2
 10
0.0075000000000000006
 20
0.036333333331499996
 30
0.0
 11
0.010500000000000001
 21
0.036333333331499996
 31
0.0
  0
LINE
  8
layer1
 10
0.010500000000000001
 20
0.036333333331499996
 30
0.0
 11
0.010500000000000001
 21
0.031499999998499999
 31
0.0
  0
LINE
  8
layer2
 10
0.010500000000000001
 20
0.031499999998499999
 30
0.0
 11
0.0075000000000000006
 21
0.031499999998499999
 31
0.0
  0
LINE
  8
layer2
 10
0.0075000000000000006
 20
0.038333333331499998
 30
0.0
 11
0.0075000000000000006
 21
0.043166666664499996
 31
0.0
  0
LINE
  8
layer2
 10
0.0075000000000000006
 20
0.043166666664499996
 30
0.0
 11
0.010500000000000001
 21
0.043166666664499996
 31
0.0
  0
LINE
  8
layer1
 10
0.010500000000000001
 20
0.043166666664499996
 30
0.0
 11
0.010500000000000001
 21
0.038333333331499998
 31
0.0
  0
LINE
  8
layer2
 10
0.010500000000000001
 20
0.038333333331499998
 30
0.0
 11
0.0075000000000000006
 21
0.038333333331499998
 31
0.0
  0
LINE
  8
layer2
 10
0.0075000000000000006
 20
0.045166666664499998
 30
0.0
 11
0.0075000000000000006
 21
0.049999999997499996
 31
0.0
  0
LINE
  8
layer2
 10
0.0075000000000000006
 20
0.049999999997499996
 30
0.0
 11
0.010500000000000001
 21
0.049999999997499996
 31
0.0
  0
LINE
  8
layer1
 10
0.010500000000000001
 20
0.049999999997499996
 30
0.0
 11
0.010500000000000001
 21
0.045166666664499998
 31
0.0
  0
LINE
  8
layer2
 10
0.010500000000000001
 20
0.045166666664499998
 30
0.0
 11
0.0075000000000000006
 21
0.045166666664499998
 31
0.0
  0
LINE
  8
layer3
 10
0
 20
-0.51999999997399993
 30
0.0
 11
0
 21
-0.49999999997399991
 31
0.0
  0
LINE
  8
layer3
 10
0
 20
-0.49999999997399991
 30
0.0
 11
0
 21
-0.47999999997499992
 31
0.0
  0
LINE
  8
layer3
 10
0
 20
-0.49999999997399991
 30
0.0
 11
0.0050000000000000001
 21
-0.49999999997399991
 31
0.0
  0
LINE
  8
layer3
 10
0.0050000000000000001
 20
-0.49999999997399991
 30
0.0
 11
0.0050000000000000001
 21
-0.51999999997399993
 31
0.0
  0
LINE
  8
layer3
 10
0.0050000000000000001
 20
-0.51999999997399993
 30
0.0
 11
0
 21
-0.51999999997399993
 31
0.0
  0
LINE
  8
layer3
 10
0
 20
-0.47999999997499992
 30
0.0
 11
0
 21
-0.45999999997599994
 31
0.0
  0
LINE
  8
layer3
 10
0
 20
-0.47999999997499992
 30
0.0
 11
0.0050000000000000001
 21
-0.47999999997499992
 31
0.0
  0
LINE
  8
layer3
 10
0.0050000000000000001
 20
-0.47999999997499992
 30
0.0
 11
0.0050000000000000001
 21
-0.49999999997399991
 31
0.0
  0
LINE
  8
layer3
 10
0
 20
-0.45999999997599994
 30
0.0
 11
0
 21
-0.4399999999769999
 31
0.0
  0
LINE
  8
layer3
 10
0
 20
-0.45999999997599994
 30
0.0
 11
0.0050000000000000001
 21
-0.45999999997599994
 31
0.0
  0
LINE
  8
layer3
 10
0.0050000000000000001
 20
-0.45999999997599994
 30
0.0
 11
0.0050000000000000001
 21
-0.47999999997499992
 31
0.0
  0
LINE
  8
layer3
 10
0
 20
-0.4399999999769999
 30
0.0
 11
0
 21
-0.41999999997799992
 31
0.0
  0
LINE
  8
layer3
 10
0
 20
-0.4399999999769999
 30
0.0
 11
0.0050000000000000001
 21
-0.4399999999769999
 31
0.0
  0
LINE
  8
layer3
 10
0.0050000000000000001
 20
-0.4399999999769999
 30
0.0
 11
0.0050000000000000001
 21
-0.45999999997599994
 31
0.0
  0
LINE
  8
layer3
 10
0
 20
-0.41999999997799992
 30
0.0
 11
0
 21
-0.39999999997899993
 31
0.0
  0
LINE
  8
layer3
 10
0
 20
-0.41999999997799992
 30
0.0
 11
0.0050000000000000001
 21
-0.41999999997799992
 31
0.0
  0
LINE
  8
layer3
 10
0.0050000000000000001
 20
-0.41999999997799992
 30
0.0
 11
0.0050000000000000001
 21
-0.4399999999769999
 31
0.0
  0
LINE
  8
layer3
 10
0
 20
-0.39999999997899993
 30
0.0
 11
0
 21
-0.37999999997999989
 31
0.0
  0
LINE
  8
layer3
 10
0
 20
-0.39999999997899993
 30
0.0
 11
0.0050000000000000001
 21
-0.39999999997899993
 31
0.0
  0
LINE
  8
layer3
 10
0.0050000000000000001
 20
-0.39999999997899993
 30
0.0
 11
0.0050000000000000001
 21
-0.41999999997799992
 31
0.0
  0
LINE
  8
layer3
 10
0
 20
-0.37999999997999989
 30
0.0
 11
0
 21
-0.35999999998099991
 31
0.0
  0
LINE
  8
layer3
 10
0
 20
-0.37999999997999989
 30
0.0
 11
0.0050000000000000001
 21
-0.37999999997999989
 31
0.0
  0
LINE
  8
layer3
 10
0.0050000000000000001
 20
-0.37999999997999989
 30
0.0
 11
0.0050000000000000001
 21
-0.39999999997899993
 31
0.0
  0
LINE
  8
layer3
 10
0
 20
-0.35999999998099991
 30
0.0
 11
0
 21
-0.33999999998199992
 31
0.0
  0
LINE
  8
layer3
 10
0
 20
-0.35999999998099991
 30
0.0
 11
0.0050000000000000001
 21
-0.35999999998099991
 31
0.0
  0
LINE
  8
layer3
 10
0.0050000000000000001
 20
-0.35999999998099991
 30
0.0
 11
0.0050000000000000001
 21
-0.37999999997999989
 31
0.0
  0
LINE
  8
layer3
 10
0
 20
-0.33999999998199992
 30
0.0
 11
0
 21
-0.31999999998299994
 31
0.0
  0
LINE
  8
layer3
 10
0
 20
-0.33999999998199992
 30
0.0
 11
0.0050000000000000001
 21
-0.33999999998199992
 31
0.0
  0
LINE
  8
layer3
 10
0.0050000000000000001
 20
-0.33999999998199992
 30
0.0
 11
0.0050000000000000001
 21
-0.35999999998099991
 31
0.0
  0
LINE
  8
layer3
 10
0
 20
-0.31999999998299994
 30
0.0
 11
0
 21
-0.29999999998399995
 31
0.0
  0
LINE
  8
layer3
 10
0
 20
-0.31999999998299994
 30
0.0
 11
0.0050000000000000001
 21
-0.31999999998299994
 31
0.0
  0
LINE
  8
layer3
 10
0.0050000000000000001
 20
-0.31999999998299994
 30
0.0
 11
0.0050000000000000001
 21
-0.33999999998199992
 31
0.0
  0
LINE
  8
layer3
 10
0
 20
-0.29999999998399995
 30
0.0
 11
0
 21
-0.27999999998499991
 31
0.0
  0
LINE
  8
layer3
 10
0
 20
-0.29999999998399995
 30
0.0
 11
0.0050000000000000001
 21
-0.29999999998399995
 31
0.0
  0
LINE
  8
layer3
 10
0.0050000000000000001
 20
-0.29999999998399995
 30
0.0
 11
0.0050000000000000001
 21
-0.31999999998299994
 31
0.0
  0
LINE
  8
layer3
 10
0
 20
-0.27999999998499991
 30
0.0
 11
0
 21
-0.25999999998599993
 31
0.0
  0
LINE
  8
layer3
 10
0
 20
-0.27999999998499991
 30
0.0
 11
0.0050000000000000001
 21
-0.27999999998499991
 31
0.0
  0
LINE
  8
layer3
 10
0.0050000000000000001
 20
-0.27999999998499991
 30
0.0
 11
0.0050000000000000001
 21
-0.29999999998399995
 31
0.0
  0
LINE
  8
layer3
 10
0
 20
-0.25999999998599993
 30
0.0
 11
0
 21
-0.23999999998699997
 31
0.0
  0
LINE
  8
layer3
 10
0
 20
-0.25999999998599993
 30
0.0
 11
0.0050000000000000001
 21
-0.25999999998599993
 31
0.0
  0
LINE
  8
layer3
 10
0.0050000000000000001
 20
-0.25999999998599993
 30
0.0
 11
0.0050000000000000001
 21
-0.27999999998499991
 31
0.0
  0
LINE
  8
layer3
 10
0
 20
-0.23999999998699997
 30
0.0
 11
0
 21
-0.21999999998799993
 31
0.0
  0
LINE
  8
layer3
 10
0
 20
-0.23999999998699997
 30
0.0
 11
0.0050000000000000001
 21
-0.23999999998699997
 31
0.0
  0
LINE
  8
layer3
 10
0.0050000000000000001
 20
-0.23999999998699997
 30
0.0
 11
0.0050000000000000001
 21
-0.25999999998599993
 31
0.0
  0
LINE
  8
layer3
 10
0
 20
-0.21999999998799993
 30
0.0
 11
0
 21
-0.19999999998899995
 31
0.0
  0
LINE
  8
layer3
 10
0
 20
-0.21999999998799993
 30
0.0
 11
0.0050000000000000001
 21
-0.21999999998799993
 31
0.0
  0
LINE
  8
layer3
 10
0.0050000000000000001
 20
-0.21999999998799993
 30
0.0
 11
0.0050000000000000001
 21
-0.23999999998699997
 31
0.0
  0
LINE
  8
layer3
 10
0
 20
-0.19999999998899995
 30
0.0
 11
0
 21
-0.17999999998999996
 31
0.0
  0
LINE
  8
layer3
 10
0
 20
-0.19999999998899995
 30
0.0
 11
0.0050000000000000001
 21
-0.19999999998899995
 31
0.0
  0
LINE
  8
layer3
 10
0.0050000000000000001
 20
-0.19999999998899995
 30
0.0
 11
0.0050000000000000001
 21
-0.21999999998799993
 31
0.0
  0
LINE
  8
layer3
 10
0
 20
-0.17999999998999996
 30
0.0
 11
0
 21
-0.15999999999099998
 31
0.0
  0
LINE
  8
layer3
 10
0
 20
-0.17999999998999996
 30
0.0
 11
0.0050000000000000001
 21
-0.17999999998999996
 31
0.0
  0
LINE
  8
layer3
 10
0.0050000000000000001
 20
-0.17999999998999996
 30
0.0
 11
0.0050000000000000001
 21
-0.19999999998899995
 31
0.0
  0
LINE
  8
layer3
 10
0
 20
-0.15999999999099998
 30
0.0
 11
0
 21
-0.139999999992
 31
0.0
  0
LINE
  8
layer3
 10
0
 20
-0.15999999999099998
 30
0.0
 11
0.0050000000000000001
 21
-0.15999999999099998
 31
0.0
  0
LINE
  8
layer3
 10
0.0050000000000000001
 20
-0.15999999999099998
 30
0.0
 11
0.0050000000000000001
 21
-0.17999999998999996
 31
0.0
  0
LINE
  8
layer3
 10
0
 20
-0.139999999992
 30
0.0
 11
0
 21
-0.11999999999299994
 31
0.0
  0
LINE
  8
layer3
 10
0
 20
-0.139999999992
 30
0.0
 11
0.0050000000000000001
 21
-0.139999999992
 31
0.0
  0
LINE
  8
layer3
 10
0.0050000000000000001
 20
-0.139999999992
 30
0.0
 11
0.0050000000000000001
 21
-0.15999999999099998
 31
0.0
  0
LINE
  8
layer3
 10
0
 20
-0.11999999999299994
 30
0.0
 11
0
 21
-0.099999999993999958
 31
0.0
  0
LINE
  8
layer3
 10
0
 20
-0.11999999999299994
 30
0.0
 11
0.0050000000000000001
 21
-0.11999999999299994
 31
0.0
  0
LINE
  8
layer3
 10
0.0050000000000000001
 20
-0.11999999999299994
 30
0.0
 11
0.0050000000000000001
 21
-0.139999999992
 31
0.0
  0
LINE
  8
layer3
 10
0
 20
-0.099999999993999958
 30
0.0
 11
0
 21
-0.079999999994999973
 31
0.0
  0
LINE
  8
layer3
 10
0
 20
-0.099999999993999958
 30
0.0
 11
0.0050000000000000001
 21
-0.099999999993999958
 31
0.0
  0
LINE
  8
layer3
 10
0.0050000000000000001
 20
-0.099999999993999958
 30
0.0
 11
0.0050000000000000001
 21
-0.11999999999299994
 31
0.0
  0
LINE
  8
layer3
 10
0
 20
-0.079999999994999973
 30
0.0
 11
0
 21
-0.059999999995999934
 31
0.0
  0
LINE
  8
layer3
 10
0
 20
-0.079999999994999973
 30
0.0
 11
0.0050000000000000001
 21
-0.079999999994999973
 31
0.0
  0
LINE
  8
layer3
 10
0.0050000000000000001
 20
-0.079999999994999973
 30
0.0
 11
0.0050000000000000001
 21
-0.099999999993999958
 31
0.0
  0
LINE
  8
layer3
 10
0
 20
-0.059999999995999934
 30
0.0
 11
0
 21
-0.039999999996999949
 31
0.0
  0
LINE
  8
layer3
 10
0
 20
-0.059999999995999934
 30
0.0
 11
0.0050000000000000001
 21
-0.059999999995999934
 31
0.0
  0
LINE
  8
layer3
 10
0.0050000000000000001
 20
-0.059999999995999934
 30
0.0
 11
0.0050000000000000001
 21
-0.079999999994999973
 31
0.0
  0
LINE
  8
layer3
 10
0
 20
-0.039999999996999949
 30
0.0
 11
0
 21
-0.019999999997999968
 31
0.0
  0
LINE
  8
layer3
 10
0
 20
-0.039999999996999949
 30
0.0
 11
0.0050000000000000001
 21
-0.039999999996999949
 31
0.0
  0
LINE
  8
layer3
 10
0.0050000000000000001
 20
-0.039999999996999949
 30
0.0
 11
0.0050000000000000001
 21
-0.059999999995999934
 31
0.0
  0
LINE
  8
layer3
 10
0
 20
-0.019999999997999968
 30
0.0
 11
0
 21
1.00001604219635e-012
 31
0.0
  0
LINE
  8
layer3
 10
0
 20
-0.019999999997999968
 30
0.0
 11
0.0050000000000000001
 21
-0.019999999997999968
 31
0.0
  0
LINE
  8
layer3
 10
0.0050000000000000001
 20
-0.019999999997999968
 30
0.0
 11
0.0050000000000000001
 21
-0.039999999996999949
 31
0.0
  0
LINE
  8
layer3
 10
0
 20
1.00001604219635e-012
 30
0.0
 11
0
 21
0.02
 31
0.0
  0
LINE
  8
layer3
 10
0
 20
1.00001604219635e-012
 30
0.0
 11
0.0050000000000000001
 21
1.00001604219635e-012
 31
0.0
  0
LINE
  8
layer4
 10
0.0050000000000000001
 20
1.00001604219635e-012
 30
0.0
 11
0.0050000000000000001
 21
-0.019999999997999968
 31
0.0
  0
LINE
  8
layer3
 10
0
 20
0.02
 30
0.0
 11
0
 21
0.039999999999000044
 31
0.0
  0
LINE
  8
layer3
 10
0
 20
0.02
 30
0.0
 11
0.0050000000000000001
 21
0.02
 31
0.0
  0
LINE
  8
layer3
 10
0.0050000000000000001
 20
0.02
 30
0.0
 11
0.0050000000000000001
 21
1.00001604219635e-012
 31
0.0
  0
LINE
  8
layer3
 10
0
 20
0.039999999999000044
 30
0.0
 11
0
 21
0.059999999998000084
 31
0.0
  0
LINE
  8
layer3
 10
0
 20
0.039999999999000044
 30
0.0
 11
0.0050000000000000001
 21
0.039999999999000044
 31
0.0
  0
LINE
  8
layer3
 10
0.0050000000000000001
 20
0.039999999999000044
 30
0.0
 11
0.0050000000000000001
 21
0.02
 31
0.0
  0
LINE
  8
layer3
 10
0
 20
0.059999999998000084
 30
0.0
 11
0
 21
0.079999999997000013
 31
0.0
  0
LINE
  8
layer3
 10
0
 20
0.059999999998000084
 30
0.0
 11
0.0050000000000000001
 21
0.059999999998000084
 31
0.0
  0
LINE
  8
layer3
 10
0.0050000000000000001
 20
0.059999999998000084
 30
0.0
 11
0.0050000000000000001
 21
0.039999999999000044
 31
0.0
  0
LINE
  8
layer3
 10
0
 20
0.079999999997000013
 30
0.0
 11
0
 21
0.099999999996000052
 31
0.0
  0
LINE
  8
layer3
 10
0
 20
0.079999999997000013
 30
0.0
 11
0.0050000000000000001
 21
0.079999999997000013
 31
0.0
  0
LINE
  8
layer3
 10
0.0050000000000000001
 20
0.079999999997000013
 30
0.0
 11
0.0050000000000000001
 21
0.059999999998000084
 31
0.0
  0
LINE
  8
layer3
 10
0
 20
0.099999999996000052
 30
0.0
 11
0
 21
0.11999999999499998
 31
0.0
  0
LINE
  8
layer3
 10
0
 20
0.099999999996000052
 30
0.0
 11
0.0050000000000000001
 21
0.099999999996000052
 31
0.0
  0
LINE
  8
layer3
 10
0.0050000000000000001
 20
0.099999999996000052
 30
0.0
 11
0.0050000000000000001
 21
0.079999999997000013
 31
0.0
  0
LINE
  8
layer3
 10
0
 20
0.11999999999499998
 30
0.0
 11
0
 21
0.13999999999400001
 31
0.0
  0
LINE
  8
layer3
 10
0
 20
0.11999999999499998
 30
0.0
 11
0.0050000000000000001
 21
0.11999999999499998
 31
0.0
  0
LINE
  8
layer3
 10
0.0050000000000000001
 20
0.11999999999499998
 30
0.0
 11
0.0050000000000000001
 21
0.099999999996000052
 31
0.0
  0
LINE
  8
layer3
 10
0
 20
0.13999999999400001
 30
0.0
 11
0
 21
0.15999999999300005
 31
0.0
  0
LINE
  8
layer3
 10
0
 20
0.13999999999400001
 30
0.0
 11
0.0050000000000000001
 21
0.13999999999400001
 31
0.0
  0
LINE
  8
layer3
 10
0.0050000000000000001
 20
0.13999999999400001
 30
0.0
 11
0.0050000000000000001
 21
0.11999999999499998
 31
0.0
  0
LINE
  8
layer3
 10
0
 20
0.15999999999300005
 30
0.0
 11
0
 21
0.17999999999199998
 31
0.0
  0
LINE
  8
layer3
 10
0
 20
0.15999999999300005
 30
0.0
 11
0.0050000000000000001
 21
0.15999999999300005
 31
0.0
  0
LINE
  8
layer3
 10
0.0050000000000000001
 20
0.15999999999300005
 30
0.0
 11
0.0050000000000000001
 21
0.13999999999400001
 31
0.0
  0
LINE
  8
layer3
 10
0
 20
0.17999999999199998
 30
0.0
 11
0
 21
0.19999999999100002
 31
0.0
  0
LINE
  8
layer3
 10
0
 20
0.17999999999199998
 30
0.0
 11
0.0050000000000000001
 21
0.17999999999199998
 31
0.0
  0
LINE
  8
layer3
 10
0.0050000000000000001
 20
0.17999999999199998
 30
0.0
 11
0.0050000000000000001
 21
0.15999999999300005
 31
0.0
  0
LINE
  8
layer3
 10
0
 20
0.19999999999100002
 30
0.0
 11
0
 21
0.21999999998999994
 31
0.0
  0
LINE
  8
layer3
 10
0
 20
0.19999999999100002
 30
0.0
 11
0.0050000000000000001
 21
0.19999999999100002
 31
0.0
  0
LINE
  8
layer3
 10
0.0050000000000000001
 20
0.19999999999100002
 30
0.0
 11
0.0050000000000000001
 21
0.17999999999199998
 31
0.0
  0
LINE
  8
layer3
 10
0
 20
0.21999999998999994
 30
0.0
 11
0
 21
0.23999999998899998
 31
0.0
  0
LINE
  8
layer3
 10
0
 20
0.21999999998999994
 30
0.0
 11
0.0050000000000000001
 21
0.21999999998999994
 31
0.0
  0
LINE
  8
layer3
 10
0.0050000000000000001
 20
0.21999999998999994
 30
0.0
 11
0.0050000000000000001
 21
0.19999999999100002
 31
0.0
  0
LINE
  8
layer3
 10
0
 20
0.23999999998899998
 30
0.0
 11
0
 21
0.25999999998800005
 31
0.0
  0
LINE
  8
layer3
 10
0
 20
0.23999999998899998
 30
0.0
 11
0.0050000000000000001
 21
0.23999999998899998
 31
0.0
  0
LINE
  8
layer3
 10
0.0050000000000000001
 20
0.23999999998899998
 30
0.0
 11
0.0050000000000000001
 21
0.21999999998999994
 31
0.0
  0
LINE
  8
layer3
 10
0
 20
0.25999999998800005
 30
0.0
 11
0
 21
0.27999999998699998
 31
0.0
  0
LINE
  8
layer3
 10
0
 20
0.25999999998800005
 30
0.0
 11
0.0050000000000000001
 21
0.25999999998800005
 31
0.0
  0
LINE
  8
layer3
 10
0.0050000000000000001
 20
0.25999999998800005
 30
0.0
 11
0.0050000000000000001
 21
0.23999999998899998
 31
0.0
  0
LINE
  8
layer3
 10
0
 20
0.27999999998699998
 30
0.0
 11
0
 21
0.29999999998600002
 31
0.0
  0
LINE
  8
layer3
 10
0
 20
0.27999999998699998
 30
0.0
 11
0.0050000000000000001
 21
0.27999999998699998
 31
0.0
  0
LINE
  8
layer3
 10
0.0050000000000000001
 20
0.27999999998699998
 30
0.0
 11
0.0050000000000000001
 21
0.25999999998800005
 31
0.0
  0
LINE
  8
layer3
 10
0
 20
0.29999999998600002
 30
0.0
 11
0
 21
0.31999999998500006
 31
0.0
  0
LINE
  8
layer3
 10
0
 20
0.29999999998600002
 30
0.0
 11
0.0050000000000000001
 21
0.29999999998600002
 31
0.0
  0
LINE
  8
layer3
 10
0.0050000000000000001
 20
0.29999999998600002
 30
0.0
 11
0.0050000000000000001
 21
0.27999999998699998
 31
0.0
  0
LINE
  8
layer3
 10
0
 20
0.31999999998500006
 30
0.0
 11
0
 21
0.33999999998399999
 31
0.0
  0
LINE
  8
layer3
 10
0
 20
0.31999999998500006
 30
0.0
 11
0.0050000000000000001
 21
0.31999999998500006
 31
0.0
  0
LINE
  8
layer3
 10
0.0050000000000000001
 20
0.31999999998500006
 30
0.0
 11
0.0050000000000000001
 21
0.29999999998600002
 31
0.0
  0
LINE
  8
layer3
 10
0
 20
0.33999999998399999
 30
0.0
 11
0
 21
0.35999999998300003
 31
0.0
  0
LINE
  8
layer3
 10
0
 20
0.33999999998399999
 30
0.0
 11
0.0050000000000000001
 21
0.33999999998399999
 31
0.0
  0
LINE
  8
layer3
 10
0.0050000000000000001
 20
0.33999999998399999
 30
0.0
 11
0.0050000000000000001
 21
0.31999999998500006
 31
0.0
  0
LINE
  8
layer3
 10
0
 20
0.35999999998300003
 30
0.0
 11
0
 21
0.37999999998200007
 31
0.0
  0
LINE
  8
layer3
 10
0
 20
0.35999999998300003
 30
0.0
 11
0.0050000000000000001
 21
0.35999999998300003
 31
0.0
  0
LINE
  8
layer3
 10
0.0050000000000000001
 20
0.35999999998300003
 30
0.0
 11
0.0050000000000000001
 21
0.33999999998399999
 31
0.0
  0
LINE
  8
layer3
 10
0
 20
0.37999999998200007
 30
0.0
 11
0
 21
0.399999999981
 31
0.0
  0
LINE
  8
layer3
 10
0
 20
0.37999999998200007
 30
0.0
 11
0.0050000000000000001
 21
0.37999999998200007
 31
0.0
  0
LINE
  8
layer3
 10
0.0050000000000000001
 20
0.37999999998200007
 30
0.0
 11
0.0050000000000000001
 21
0.35999999998300003
 31
0.0
  0
LINE
  8
layer3
 10
0
 20
0.399999999981
 30
0.0
 11
0
 21
0.41999999998000004
 31
0.0
  0
LINE
  8
layer3
 10
0
 20
0.399999999981
 30
0.0
 11
0.0050000000000000001
 21
0.399999999981
 31
0.0
  0
LINE
  8
layer3
 10
0.0050000000000000001
 20
0.399999999981
 30
0.0
 11
0.0050000000000000001
 21
0.37999999998200007
 31
0.0
  0
LINE
  8
layer3
 10
0
 20
0.41999999998000004
 30
0.0
 11
0
 21
0.43999999997899997
 31
0.0
  0
LINE
  8
layer3
 10
0
 20
0.41999999998000004
 30
0.0
 11
0.0050000000000000001
 21
0.41999999998000004
 31
0.0
  0
LINE
  8
layer3
 10
0.0050000000000000001
 20
0.41999999998000004
 30
0.0
 11
0.0050000000000000001
 21
0.399999999981
 31
0.0
  0
LINE
  8
layer3
 10
0
 20
0.43999999997899997
 30
0.0
 11
0
 21
0.45999999997800001
 31
0.0
  0
LINE
  8
layer3
 10
0
 20
0.43999999997899997
 30
0.0
 11
0.0050000000000000001
 21
0.43999999997899997
 31
0.0
  0
LINE
  8
layer3
 10
0.0050000000000000001
 20
0.43999999997899997
 30
0.0
 11
0.0050000000000000001
 21
0.41999999998000004
 31
0.0
  0
LINE
  8
layer3
 10
0
 20
0.45999999997800001
 30
0.0
 11
0
 21
0.47999999997700005
 31
0.0
  0
LINE
  8
layer3
 10
0
 20
0.45999999997800001
 30
0.0
 11
0.0050000000000000001
 21
0.45999999997800001
 31
0.0
  0
LINE
  8
layer3
 10
0.0050000000000000001
 20
0.45999999997800001
 30
0.0
 11
0.0050000000000000001
 21
0.43999999997899997
 31
0.0
  0
LINE
  8
layer3
 10
0
 20
0.47999999997700005
 30
0.0
 11
0
 21
0.49999999997599998
 31
0.0
  0
LINE
  8
layer3
 10
0
 20
0.47999999997700005
 30
0.0
 11
0.0050000000000000001
 21
0.47999999997700005
 31
0.0
  0
LINE
  8
layer3
 10
0.0050000000000000001
 20
0.47999999997700005
 30
0.0
 11
0.0050000000000000001
 21
0.45999999997800001
 31
0.0
  0
LINE
  8
layer3
 10
0
 20
0.49999999997599998
 30
0.0
 11
0
 21
0.51999999997500002
 31
0.0
  0
LINE
  8
layer3
 10
0
 20
0.49999999997599998
 30
0.0
 11
0.0050000000000000001
 21
0.49999999997599998
 31
0.0
  0
LINE
  8
layer3
 10
0.0050000000000000001
 20
0.49999999997599998
 30
0.0
 11
0.0050000000000000001
 21
0.47999999997700005
 31
0.0
  0
LINE
  8
default
 10
0
 20
0.51999999997500002
 30
0.0
 11
0
 21
0.62399999996879985
 31
0.0
  0
LINE
  8
layer3
 10
0
 20
0.51999999997500002
 30
0.0
 11
0.0050000000000000001
 21
0.51999999997500002
 31
0.0
  0
LINE
  8
layer3
 10
0.0050000000000000001
 20
0.51999999997500002
 30
0.0
 11
0.0050000000000000001
 21
0.49999999997599998
 31
0.0
  0
LINE
  8
layer2
 10
0.012300000000000002
 20
0.0549999999975
 30
0.0
 11
0.012300000000000002
 21
0.052499999997499998
 31
0.0
  0
LINE
  8
layer6
 10
0.012300000000000002
 20
0.052499999997499998
 30
0.0
 11
0.0115
 21
0.052499999997499998
 31
0.0
  0
LINE
  8
layer2
 10
0.0115
 20
0.052499999997499998
 30
0.0
 11
0.0115
 21
0.049999999997499996
 31
0.0
  0
LINE
  8
layer5
 10
0.0115
 20
0.049999999997499996
 30
0.0
 11
0.010500000000000001
 21
0.049999999997499996
 31
0.0
  0
LINE
  8
layer2
 10
0.010500000000000001
 20
0.045166666664499998
 30
0.0
 11
0.010500000000000001
 21
0.043166666664499996
 31
0.0
  0
LINE
  8
layer2
 10
0.010500000000000001
 20
0.038333333331499998
 30
0.0
 11
0.010500000000000001
 21
0.036333333331499996
 31
0.0
  0
LINE
  8
layer2
 10
0.010500000000000001
 20
0.031499999998499999
 30
0.0
 11
0.010500000000000001
 21
0.029499999998499997
 31
0.0
  0
LINE
  8
layer2
 10
0.010500000000000001
 20
0.024666666665499999
 30
0.0
 11
0.010500000000000001
 21
0.022666666665499997
 31
0.0
  0
LINE
  8
layer2
 10
0.010500000000000001
 20
0.0178333333325
 30
0.0
 11
0.010500000000000001
 21
0.015833333332499998
 31
0.0
  0
LINE
  8
layer5
 10
0.010500000000000001
 20
0.0109999999995
 30
0.0
 11
0.010500000000000001
 21
0.0089999999995
 31
0.0
  0
LINE
  8
layer2
 10
0.010500000000000001
 20
0.0041666666665000004
 30
0.0
 11
0.010500000000000001
 21
0.0021666666665000004
 31
0.0
  0
LINE
  8
layer2
 10
0.010500000000000001
 20
-0.0026666666664999991
 30
0.0
 11
0.010500000000000001
 21
-0.0046666666664999992
 31
0.0
  0
LINE
  8
layer2
 10
0.010500000000000001
 20
-0.0094999999994999987
 30
0.0
 11
0.010500000000000001
 21
-0.011499999999499999
 31
0.0
  0
LINE
  8
layer2
 10
0.010500000000000001
 20
-0.016333333332499998
 30
0.0
 11
0.010500000000000001
 21
-0.0183333333325
 31
0.0
  0
LINE
  8
layer2
 10
0.010500000000000001
 20
-0.023166666665499998
 30
0.0
 11
0.010500000000000001
 21
-0.0251666666655
 31
0.0
  0
LINE
  8
layer5
 10
0.010500000000000001
 20
-0.029999999998499997
 30
0.0
 11
0.0115
 21
-0.029999999998499997
 31
0.0
  0
LINE
  8
layer2
 10
0.0115
 20
-0.029999999998499997
 30
0.0
 11
0.0115
 21
-0.034999999998500002
 31
0.0
  0
LINE
  8
layer2
 10
0.0115
 20
-0.034999999998500002
 30
0.0
 11
0.0065000000000000006
 21
-0.034999999998500002
 31
0.0
  0
LINE
  8
layer2
 10
0.0065000000000000006
 20
-0.034999999998500002
 30
0.0
 11
0.0065000000000000006
 21
0.0549999999975
 31
0.0
  0
LINE
  8
layer2
 10
0.0065000000000000006
 20
0.0549999999975
 30
0.0
 11
0.012300000000000002
 21
0.0549999999975
 31
0.0
  0
LINE
  8
layer4
 10
0.0050000000000000001
 20
0.51999999997500002
 30
0.0
 11
0.0060000000000000001
 21
0.51999999997399993
 31
0.0
  0
LINE
  8
layer4
 10
0.0060000000000000001
 20
0.51999999997399993
 30
0.0
 11
0.0060000000000000001
 21
-0.51999999997399993
 31
0.0
  0
LINE
  8
layer4
 10
0.0060000000000000001
 20
-0.51999999997399993
 30
0.0
 11
0.0050000000000000001
 21
-0.51999999997399993
 31
0.0
  0
LINE
  8
layer6
 10
0.0123
 20
-0.0092499999985000015
 30
0.0
 11
0.0123
 21
-0.010749999998500001
 31
0.0
  0
LINE
  8
layer6
 10
0.0123
 20
-0.010749999998500001
 30
0.0
 11
0.0178
 21
-0.010749999998500001
 31
0.0
  0
LINE
  8
layer6
 10
0.0178
 20
-0.010749999998500001
 30
0.0
 11
0.0178
 21
-0.011249999998500003
 31
0.0
  0
LINE
  8
layer6
 10
0.0178
 20
-0.011249999998500003
 30
0.0
 11
0.0123
 21
-0.011249999998500003
 31
0.0
  0
LINE
  8
layer6
 10
0.0123
 20
-0.011249999998500003
 30
0.0
 11
0.0123
 21
-0.012749999998500003
 31
0.0
  0
LINE
  8
layer6
 10
0.0123
 20
-0.012749999998500003
 30
0.0
 11
0.0178
 21
-0.012749999998500003
 31
0.0
  0
LINE
  8
layer6
 10
0.0178
 20
-0.012749999998500003
 30
0.0
 11
0.0178
 21
-0.013249999998500002
 31
0.0
  0
LINE
  8
layer6
 10
0.0178
 20
-0.013249999998500002
 30
0.0
 11
0.0123
 21
-0.013249999998500002
 31
0.0
  0
LINE
  8
layer6
 10
0.0123
 20
-0.013249999998500002
 30
0.0
 11
0.0123
 21
-0.014749999998500001
 31
0.0
  0
LINE
  8
layer6
 10
0.0123
 20
-0.014749999998500001
 30
0.0
 11
0.0178
 21
-0.014749999998500001
 31
0.0
  0
LINE
  8
layer6
 10
0.0178
 20
-0.014749999998500001
 30
0.0
 11
0.0178
 21
-0.0152499999985
 31
0.0
  0
LINE
  8
layer6
 10
0.0178
 20
-0.0152499999985
 30
0.0
 11
0.0123
 21
-0.0152499999985
 31
0.0
  0
LINE
  8
layer6
 10
0.0123
 20
-0.0152499999985
 30
0.0
 11
0.0123
 21
-0.016749999998499999
 31
0.0
  0
LINE
  8
layer6
 10
0.0123
 20
-0.016749999998499999
 30
0.0
 11
0.0178
 21
-0.016749999998499999
 31
0.0
  0
LINE
  8
layer6
 10
0.0178
 20
-0.016749999998499999
 30
0.0
 11
0.0178
 21
-0.0172499999985
 31
0.0
  0
LINE
  8
layer6
 10
0.0178
 20
-0.0172499999985
 30
0.0
 11
0.0123
 21
-0.0172499999985
 31
0.0
  0
LINE
  8
layer6
 10
0.0123
 20
-0.0172499999985
 30
0.0
 11
0.0123
 21
-0.018749999998500001
 31
0.0
  0
LINE
  8
layer6
 10
0.0123
 20
-0.018749999998500001
 30
0.0
 11
0.0178
 21
-0.018749999998500001
 31
0.0
  0
LINE
  8
layer6
 10
0.0178
 20
-0.018749999998500001
 30
0.0
 11
0.0178
 21
-0.019249999998500002
 31
0.0
  0
LINE
  8
layer6
 10
0.0178
 20
-0.019249999998500002
 30
0.0
 11
0.0123
 21
-0.019249999998500002
 31
0.0
  0
LINE
  8
layer6
 10
0.0123
 20
-0.019249999998500002
 30
0.0
 11
0.0123
 21
-0.020749999998500003
 31
0.0
  0
LINE
  8
layer6
 10
0.0123
 20
-0.020749999998500003
 30
0.0
 11
0.0178
 21
-0.020749999998500003
 31
0.0
  0
LINE
  8
layer6
 10
0.0178
 20
-0.020749999998500003
 30
0.0
 11
0.0178
 21
-0.0212499999985
 31
0.0
  0
LINE
  8
layer6
 10
0.0178
 20
-0.0212499999985
 30
0.0
 11
0.0123
 21
-0.0212499999985
 31
0.0
  0
LINE
  8
layer6
 10
0.0123
 20
-0.0212499999985
 30
0.0
 11
0.0123
 21
-0.022749999998500001
 31
0.0
  0
LINE
  8
layer6
 10
0.0123
 20
-0.022749999998500001
 30
0.0
 11
0.0178
 21
-0.022749999998500001
 31
0.0
  0
LINE
  8
layer6
 10
0.0178
 20
-0.022749999998500001
 30
0.0
 11
0.0178
 21
-0.023249999998499998
 31
0.0
  0
LINE
  8
layer6
 10
0.0178
 20
-0.023249999998499998
 30
0.0
 11
0.0123
 21
-0.023249999998499998
 31
0.0
  0
LINE
  8
layer6
 10
0.0123
 20
-0.023249999998499998
 30
0.0
 11
0.0123
 21
-0.0247499999985
 31
0.0
  0
LINE
  8
layer6
 10
0.0123
 20
-0.0247499999985
 30
0.0
 11
0.0178
 21
-0.0247499999985
 31
0.0
  0
LINE
  8
layer6
 10
0.0178
 20
-0.0247499999985
 30
0.0
 11
0.0178
 21
-0.0252499999985
 31
0.0
  0
LINE
  8
layer6
 10
0.0178
 20
-0.0252499999985
 30
0.0
 11
0.0123
 21
-0.0252499999985
 31
0.0
  0
LINE
  8
layer6
 10
0.0123
 20
-0.0252499999985
 30
0.0
 11
0.0123
 21
-0.026749999998500001
 31
0.0
  0
LINE
  8
layer6
 10
0.0123
 20
-0.026749999998500001
 30
0.0
 11
0.0178
 21
-0.026749999998500001
 31
0.0
  0
LINE
  8
layer6
 10
0.0178
 20
-0.026749999998500001
 30
0.0
 11
0.0178
 21
-0.027249999998500002
 31
0.0
  0
LINE
  8
layer6
 10
0.0178
 20
-0.027249999998500002
 30
0.0
 11
0.0123
 21
-0.027249999998500002
 31
0.0
  0
LINE
  8
layer6
 10
0.0123
 20
-0.027249999998500002
 30
0.0
 11
0.0123
 21
-0.028749999998500003
 31
0.0
  0
LINE
  8
layer6
 10
0.0123
 20
-0.028749999998500003
 30
0.0
 11
0.0178
 21
-0.028749999998500003
 31
0.0
  0
LINE
  8
layer6
 10
0.0178
 20
-0.028749999998500003
 30
0.0
 11
0.0178
 21
-0.0292499999985
 31
0.0
  0
LINE
  8
layer6
 10
0.0178
 20
-0.0292499999985
 30
0.0
 11
0.0123
 21
-0.0292499999985
 31
0.0
  0
LINE
  8
layer6
 10
0.0123
 20
-0.0292499999985
 30
0.0
 11
0.0123
 21
-0.030749999998500002
 31
0.0
  0
LINE
  8
layer6
 10
0.0123
 20
-0.030749999998500002
 30
0.0
 11
0.0178
 21
-0.030749999998500002
 31
0.0
  0
LINE
  8
layer6
 10
0.0178
 20
-0.030749999998500002
 30
0.0
 11
0.0178
 21
-0.031249999998499998
 31
0.0
  0
LINE
  8
layer6
 10
0.0178
 20
-0.031249999998499998
 30
0.0
 11
0.0123
 21
-0.031249999998499998
 31
0.0
  0
LINE
  8
layer6
 10
0.0123
 20
-0.031249999998499998
 30
0.0
 11
0.0123
 21
-0.0327499999985
 31
0.0
  0
LINE
  8
layer6
 10
0.0123
 20
-0.0327499999985
 30
0.0
 11
0.0178
 21
-0.0327499999985
 31
0.0
  0
LINE
  8
layer6
 10
0.0178
 20
-0.0327499999985
 30
0.0
 11
0.0178
 21
-0.0332499999985
 31
0.0
  0
LINE
  8
layer6
 10
0.0178
 20
-0.0332499999985
 30
0.0
 11
0.0123
 21
-0.0332499999985
 31
0.0
  0
LINE
  8
layer6
 10
0.0123
 20
-0.0332499999985
 30
0.0
 11
0.0123
 21
-0.034749999998500002
 31
0.0
  0
LINE
  8
layer6
 10
0.0123
 20
-0.034749999998500002
 30
0.0
 11
0.0178
 21
-0.034749999998500002
 31
0.0
  0
LINE
  8
layer6
 10
0.0178
 20
-0.034749999998500002
 30
0.0
 11
0.0178
 21
-0.034999999998500002
 31
0.0
  0
LINE
  8
layer6
 10
0.0178
 20
-0.034999999998500002
 30
0.0
 11
0.0115
 21
-0.034999999998500002
 31
0.0
  0
LINE
  8
layer5
 10
0.0115
 20
-0.029999999998499997
 30
0.0
 11
0.0115
 21
0.049999999997499996
 31
0.0
  0
LINE
  8
layer6
 10
0.012300000000000002
 20
0.052499999997499998
 30
0.0
 11
0.0123
 21
0.051250000001500005
 31
0.0
  0
LINE
  8
layer6
 10
0.0123
 20
0.051250000001500005
 30
0.0
 11
0.0178
 21
0.051250000001500005
 31
0.0
  0
LINE
  8
layer6
 10
0.0178
 20
0.051250000001500005
 30
0.0
 11
0.0178
 21
0.050750000001500005
 31
0.0
  0
LINE
  8
layer6
 10
0.0178
 20
0.050750000001500005
 30
0.0
 11
0.0123
 21
0.050750000001500005
 31
0.0
  0
LINE
  8
layer6
 10
0.0123
 20
0.050750000001500005
 30
0.0
 11
0.0123
 21
0.049250000001500004
 31
0.0
  0
LINE
  8
layer6
 10
0.0123
 20
0.049250000001500004
 30
0.0
 11
0.0178
 21
0.049250000001500004
 31
0.0
  0
LINE
  8
layer6
 10
0.0178
 20
0.049250000001500004
 30
0.0
 11
0.0178
 21
0.048750000001500003
 31
0.0
  0
LINE
  8
layer6
 10
0.0178
 20
0.048750000001500003
 30
0.0
 11
0.0123
 21
0.048750000001500003
 31
0.0
  0
LINE
  8
layer6
 10
0.0123
 20
0.048750000001500003
 30
0.0
 11
0.0123
 21
0.047250000001500002
 31
0.0
  0
LINE
  8
layer6
 10
0.0123
 20
0.047250000001500002
 30
0.0
 11
0.0178
 21
0.047250000001500002
 31
0.0
  0
LINE
  8
layer6
 10
0.0178
 20
0.047250000001500002
 30
0.0
 11
0.0178
 21
0.046750000001500001
 31
0.0
  0
LINE
  8
layer6
 10
0.0178
 20
0.046750000001500001
 30
0.0
 11
0.0123
 21
0.046750000001500001
 31
0.0
  0
LINE
  8
layer6
 10
0.0123
 20
0.046750000001500001
 30
0.0
 11
0.0123
 21
0.0452500000015
 31
0.0
  0
LINE
  8
layer6
 10
0.0123
 20
0.0452500000015
 30
0.0
 11
0.0178
 21
0.0452500000015
 31
0.0
  0
LINE
  8
layer6
 10
0.0178
 20
0.0452500000015
 30
0.0
 11
0.0178
 21
0.0447500000015
 31
0.0
  0
LINE
  8
layer6
 10
0.0178
 20
0.0447500000015
 30
0.0
 11
0.0123
 21
0.0447500000015
 31
0.0
  0
LINE
  8
layer6
 10
0.0123
 20
0.0447500000015
 30
0.0
 11
0.0123
 21
0.043250000001499998
 31
0.0
  0
LINE
  8
layer6
 10
0.0123
 20
0.043250000001499998
 30
0.0
 11
0.0178
 21
0.043250000001499998
 31
0.0
  0
LINE
  8
layer6
 10
0.0178
 20
0.043250000001499998
 30
0.0
 11
0.0178
 21
0.042750000001499998
 31
0.0
  0
LINE
  8
layer6
 10
0.0178
 20
0.042750000001499998
 30
0.0
 11
0.0123
 21
0.042750000001499998
 31
0.0
  0
LINE
  8
layer6
 10
0.0123
 20
0.042750000001499998
 30
0.0
 11
0.0123
 21
0.041250000001499997
 31
0.0
  0
LINE
  8
layer6
 10
0.0123
 20
0.041250000001499997
 30
0.0
 11
0.0178
 21
0.041250000001499997
 31
0.0
  0
LINE
  8
layer6
 10
0.0178
 20
0.041250000001499997
 30
0.0
 11
0.0178
 21
0.040750000001499996
 31
0.0
  0
LINE
  8
layer6
 10
0.0178
 20
0.040750000001499996
 30
0.0
 11
0.0123
 21
0.040750000001499996
 31
0.0
  0
LINE
  8
layer6
 10
0.0123
 20
0.040750000001499996
 30
0.0
 11
0.0123
 21
0.039250000001499995
 31
0.0
  0
LINE
  8
layer6
 10
0.0123
 20
0.039250000001499995
 30
0.0
 11
0.0178
 21
0.039250000001499995
 31
0.0
  0
LINE
  8
layer6
 10
0.0178
 20
0.039250000001499995
 30
0.0
 11
0.0178
 21
0.038750000001500008
 31
0.0
  0
LINE
  8
layer6
 10
0.0178
 20
0.038750000001500008
 30
0.0
 11
0.0123
 21
0.038750000001500008
 31
0.0
  0
LINE
  8
layer6
 10
0.0123
 20
0.038750000001500008
 30
0.0
 11
0.0123
 21
0.037250000001500007
 31
0.0
  0
LINE
  8
layer6
 10
0.0123
 20
0.037250000001500007
 30
0.0
 11
0.0178
 21
0.037250000001500007
 31
0.0
  0
LINE
  8
layer6
 10
0.0178
 20
0.037250000001500007
 30
0.0
 11
0.0178
 21
0.036750000001500006
 31
0.0
  0
LINE
  8
layer6
 10
0.0178
 20
0.036750000001500006
 30
0.0
 11
0.0123
 21
0.036750000001500006
 31
0.0
  0
LINE
  8
layer6
 10
0.0123
 20
0.036750000001500006
 30
0.0
 11
0.0123
 21
0.035250000001500005
 31
0.0
  0
LINE
  8
layer6
 10
0.0123
 20
0.035250000001500005
 30
0.0
 11
0.0178
 21
0.035250000001500005
 31
0.0
  0
LINE
  8
layer6
 10
0.0178
 20
0.035250000001500005
 30
0.0
 11
0.0178
 21
0.034750000001500005
 31
0.0
  0
LINE
  8
layer6
 10
0.0178
 20
0.034750000001500005
 30
0.0
 11
0.0123
 21
0.034750000001500005
 31
0.0
  0
LINE
  8
layer6
 10
0.0123
 20
0.034750000001500005
 30
0.0
 11
0.0123
 21
0.033250000001500003
 31
0.0
  0
LINE
  8
layer6
 10
0.0123
 20
0.033250000001500003
 30
0.0
 11
0.0178
 21
0.033250000001500003
 31
0.0
  0
LINE
  8
layer6
 10
0.0178
 20
0.033250000001500003
 30
0.0
 11
0.0178
 21
0.032750000001500003
 31
0.0
  0
LINE
  8
layer6
 10
0.0178
 20
0.032750000001500003
 30
0.0
 11
0.0123
 21
0.032750000001500003
 31
0.0
  0
LINE
  8
layer6
 10
0.0123
 20
0.032750000001500003
 30
0.0
 11
0.0123
 21
0.031250000001500002
 31
0.0
  0
LINE
  8
layer6
 10
0.0123
 20
0.031250000001500002
 30
0.0
 11
0.0178
 21
0.031250000001500002
 31
0.0
  0
LINE
  8
layer6
 10
0.0178
 20
0.031250000001500002
 30
0.0
 11
0.0178
 21
0.030750000001500001
 31
0.0
  0
LINE
  8
layer6
 10
0.0178
 20
0.030750000001500001
 30
0.0
 11
0.0123
 21
0.030750000001500001
 31
0.0
  0
LINE
  8
layer6
 10
0.0123
 20
0.030750000001500001
 30
0.0
 11
0.0123
 21
0.0292500000015
 31
0.0
  0
LINE
  8
layer6
 10
0.0123
 20
0.0292500000015
 30
0.0
 11
0.0178
 21
0.0292500000015
 31
0.0
  0
LINE
  8
layer6
 10
0.0178
 20
0.0292500000015
 30
0.0
 11
0.0178
 21
0.028750000001499999
 31
0.0
  0
LINE
  8
layer6
 10
0.0178
 20
0.028750000001499999
 30
0.0
 11
0.0123
 21
0.028750000001499999
 31
0.0
  0
LINE
  8
layer6
 10
0.0123
 20
0.028750000001499999
 30
0.0
 11
0.0123
 21
0.027250000001499998
 31
0.0
  0
LINE
  8
layer6
 10
0.0123
 20
0.027250000001499998
 30
0.0
 11
0.0178
 21
0.027250000001499998
 31
0.0
  0
LINE
  8
layer6
 10
0.0178
 20
0.027250000001499998
 30
0.0
 11
0.0178
 21
0.026750000001499998
 31
0.0
  0
LINE
  8
layer6
 10
0.0178
 20
0.026750000001499998
 30
0.0
 11
0.0123
 21
0.026750000001499998
 31
0.0
  0
LINE
  8
layer6
 10
0.0123
 20
0.026750000001499998
 30
0.0
 11
0.0123
 21
0.025250000001499996
 31
0.0
  0
LINE
  8
layer6
 10
0.0123
 20
0.025250000001499996
 30
0.0
 11
0.0178
 21
0.025250000001499996
 31
0.0
  0
LINE
  8
layer6
 10
0.0178
 20
0.025250000001499996
 30
0.0
 11
0.0178
 21
0.024750000001500003
 31
0.0
  0
LINE
  8
layer6
 10
0.0178
 20
0.024750000001500003
 30
0.0
 11
0.0123
 21
0.024750000001500003
 31
0.0
  0
LINE
  8
layer6
 10
0.0123
 20
0.024750000001500003
 30
0.0
 11
0.0123
 21
0.023250000001500001
 31
0.0
  0
LINE
  8
layer6
 10
0.0123
 20
0.023250000001500001
 30
0.0
 11
0.0178
 21
0.023250000001500001
 31
0.0
  0
LINE
  8
layer6
 10
0.0178
 20
0.023250000001500001
 30
0.0
 11
0.0178
 21
0.022750000001500001
 31
0.0
  0
LINE
  8
layer6
 10
0.0178
 20
0.022750000001500001
 30
0.0
 11
0.0123
 21
0.022750000001500001
 31
0.0
  0
LINE
  8
layer6
 10
0.0123
 20
0.022750000001500001
 30
0.0
 11
0.0123
 21
0.0212500000015
 31
0.0
  0
LINE
  8
layer6
 10
0.0123
 20
0.0212500000015
 30
0.0
 11
0.0178
 21
0.0212500000015
 31
0.0
  0
LINE
  8
layer6
 10
0.0178
 20
0.0212500000015
 30
0.0
 11
0.0178
 21
0.020750000001499999
 31
0.0
  0
LINE
  8
layer6
 10
0.0178
 20
0.020750000001499999
 30
0.0
 11
0.0123
 21
0.020750000001499999
 31
0.0
  0
LINE
  8
layer6
 10
0.0123
 20
0.020750000001499999
 30
0.0
 11
0.0123
 21
0.019250000001499998
 31
0.0
  0
LINE
  8
layer6
 10
0.0123
 20
0.019250000001499998
 30
0.0
 11
0.0178
 21
0.019250000001499998
 31
0.0
  0
LINE
  8
layer6
 10
0.0178
 20
0.019250000001499998
 30
0.0
 11
0.0178
 21
0.018750000001500004
 31
0.0
  0
LINE
  8
layer6
 10
0.0178
 20
0.018750000001500004
 30
0.0
 11
0.0123
 21
0.018750000001500004
 31
0.0
  0
LINE
  8
layer6
 10
0.0123
 20
0.018750000001500004
 30
0.0
 11
0.0123
 21
0.017250000001500003
 31
0.0
  0
LINE
  8
layer6
 10
0.0123
 20
0.017250000001500003
 30
0.0
 11
0.0178
 21
0.017250000001500003
 31
0.0
  0
LINE
  8
layer6
 10
0.0178
 20
0.017250000001500003
 30
0.0
 11
0.0178
 21
0.016750000001500003
 31
0.0
  0
LINE
  8
layer6
 10
0.0178
 20
0.016750000001500003
 30
0.0
 11
0.0123
 21
0.016750000001500003
 31
0.0
  0
LINE
  8
layer6
 10
0.0123
 20
0.016750000001500003
 30
0.0
 11
0.0123
 21
0.015250000001500001
 31
0.0
  0
LINE
  8
layer6
 10
0.0123
 20
0.015250000001500001
 30
0.0
 11
0.0178
 21
0.015250000001500001
 31
0.0
  0
LINE
  8
layer6
 10
0.0178
 20
0.015250000001500001
 30
0.0
 11
0.0178
 21
0.014750000001499999
 31
0.0
  0
LINE
  8
layer6
 10
0.0178
 20
0.014750000001499999
 30
0.0
 11
0.0123
 21
0.014750000001499999
 31
0.0
  0
LINE
  8
layer6
 10
0.0123
 20
0.014750000001499999
 30
0.0
 11
0.0123
 21
0.013250000001499999
 31
0.0
  0
LINE
  8
layer6
 10
0.0123
 20
0.013250000001499999
 30
0.0
 11
0.0178
 21
0.013250000001499999
 31
0.0
  0
LINE
  8
layer6
 10
0.0178
 20
0.013250000001499999
 30
0.0
 11
0.0178
 21
0.012750000001499997
 31
0.0
  0
LINE
  8
layer6
 10
0.0178
 20
0.012750000001499997
 30
0.0
 11
0.0123
 21
0.012750000001499997
 31
0.0
  0
LINE
  8
layer6
 10
0.0123
 20
0.012750000001499997
 30
0.0
 11
0.0123
 21
0.011250000001499998
 31
0.0
  0
LINE
  8
layer6
 10
0.0123
 20
0.011250000001499998
 30
0.0
 11
0.0178
 21
0.011250000001499998
 31
0.0
  0
LINE
  8
layer6
 10
0.0178
 20
0.011250000001499998
 30
0.0
 11
0.0178
 21
0.010750000001499995
 31
0.0
  0
LINE
  8
layer6
 10
0.0178
 20
0.010750000001499995
 30
0.0
 11
0.0123
 21
0.010750000001499995
 31
0.0
  0
LINE
  8
layer6
 10
0.0123
 20
0.010750000001499995
 30
0.0
 11
0.0123
 21
0.0092500000014999958
 31
0.0
  0
LINE
  8
layer6
 10
0.0123
 20
0.0092500000014999958
 30
0.0
 11
0.0178
 21
0.0092500000014999958
 31
0.0
  0
LINE
  8
layer6
 10
0.0178
 20
0.0092500000014999958
 30
0.0
 11
0.0178
 21
0.0087500000015000006
 31
0.0
  0
LINE
  8
layer6
 10
0.0178
 20
0.0087500000015000006
 30
0.0
 11
0.0123
 21
0.0087500000015000006
 31
0.0
  0
LINE
  8
layer6
 10
0.0123
 20
0.0087500000015000006
 30
0.0
 11
0.0123
 21
0.007250000001500001
 31
0.0
  0
LINE
  8
layer6
 10
0.0123
 20
0.007250000001500001
 30
0.0
 11
0.0178
 21
0.007250000001500001
 31
0.0
  0
LINE
  8
layer6
 10
0.0178
 20
0.007250000001500001
 30
0.0
 11
0.0178
 21
0.0067500000014999988
 31
0.0
  0
LINE
  8
layer6
 10
0.0178
 20
0.0067500000014999988
 30
0.0
 11
0.0123
 21
0.0067500000014999988
 31
0.0
  0
LINE
  8
layer6
 10
0.0123
 20
0.0067500000014999988
 30
0.0
 11
0.0123
 21
0.0052500000014999992
 31
0.0
  0
LINE
  8
layer6
 10
0.0123
 20
0.0052500000014999992
 30
0.0
 11
0.0178
 21
0.0052500000014999992
 31
0.0
  0
LINE
  8
layer6
 10
0.0178
 20
0.0052500000014999992
 30
0.0
 11
0.0178
 21
0.0047500000014999971
 31
0.0
  0
LINE
  8
layer6
 10
0.0178
 20
0.0047500000014999971
 30
0.0
 11
0.0123
 21
0.0047500000014999971
 31
0.0
  0
LINE
  8
layer6
 10
0.0123
 20
0.0047500000014999971
 30
0.0
 11
0.0123
 21
0.0032500000014999975
 31
0.0
  0
LINE
  8
layer6
 10
0.0123
 20
0.0032500000014999975
 30
0.0
 11
0.0178
 21
0.0032500000014999975
 31
0.0
  0
LINE
  8
layer6
 10
0.0178
 20
0.0032500000014999975
 30
0.0
 11
0.0178
 21
0.0027500000015000022
 31
0.0
  0
LINE
  8
layer6
 10
0.0178
 20
0.0027500000015000022
 30
0.0
 11
0.0123
 21
0.0027500000015000022
 31
0.0
  0
LINE
  8
layer6
 10
0.0123
 20
0.0027500000015000022
 30
0.0
 11
0.0123
 21
0.0012500000015000024
 31
0.0
  0
LINE
  8
layer6
 10
0.0123
 20
0.0012500000015000024
 30
0.0
 11
0.0178
 21
0.0012500000015000024
 31
0.0
  0
LINE
  8
layer6
 10
0.0178
 20
0.0012500000015000024
 30
0.0
 11
0.0178
 21
0.00075000000150000066
 31
0.0
  0
LINE
  8
layer6
 10
0.0178
 20
0.00075000000150000066
 30
0.0
 11
0.0123
 21
0.00075000000150000066
 31
0.0
  0
LINE
  8
layer6
 10
0.0123
 20
0.00075000000150000066
 30
0.0
 11
0.0123
 21
-0.00074999999849999937
 31
0.0
  0
LINE
  8
layer6
 10
0.0123
 20
-0.00074999999849999937
 30
0.0
 11
0.0178
 21
-0.00074999999849999937
 31
0.0
  0
LINE
  8
layer6
 10
0.0178
 20
-0.00074999999849999937
 30
0.0
 11
0.0178
 21
-0.0012499999985000009
 31
0.0
  0
LINE
  8
layer6
 10
0.0178
 20
-0.0012499999985000009
 30
0.0
 11
0.0123
 21
-0.0012499999985000009
 31
0.0
  0
LINE
  8
layer6
 10
0.0123
 20
-0.0012499999985000009
 30
0.0
 11
0.0123
 21
-0.0027499999985000009
 31
0.0
  0
LINE
  8
layer6
 10
0.0123
 20
-0.0027499999985000009
 30
0.0
 11
0.0178
 21
-0.0027499999985000009
 31
0.0
  0
LINE
  8
layer6
 10
0.0178
 20
-0.0027499999985000009
 30
0.0
 11
0.0178
 21
-0.0032499999985000027
 31
0.0
  0
LINE
  8
layer6
 10
0.0178
 20
-0.0032499999985000027
 30
0.0
 11
0.0123
 21
-0.0032499999985000027
 31
0.0
  0
LINE
  8
layer6
 10
0.0123
 20
-0.0032499999985000027
 30
0.0
 11
0.0123
 21
-0.0047499999985000027
 31
0.0
  0
LINE
  8
layer6
 10
0.0123
 20
-0.0047499999985000027
 30
0.0
 11
0.0178
 21
-0.0047499999985000027
 31
0.0
  0
LINE
  8
layer6
 10
0.0178
 20
-0.0047499999985000027
 30
0.0
 11
0.0178
 21
-0.0052499999985000014
 31
0.0
  0
LINE
  8
layer6
 10
0.0178
 20
-0.0052499999985000014
 30
0.0
 11
0.0123
 21
-0.0052499999985000014
 31
0.0
  0
LINE
  8
layer6
 10
0.0123
 20
-0.0052499999985000014
 30
0.0
 11
0.0123
 21
-0.006749999998500001
 31
0.0
  0
LINE
  8
layer6
 10
0.0123
 20
-0.006749999998500001
 30
0.0
 11
0.0178
 21
-0.006749999998500001
 31
0.0
  0
LINE
  8
layer6
 10
0.0178
 20
-0.006749999998500001
 30
0.0
 11
0.0178
 21
-0.0072499999984999997
 31
0.0
  0
LINE
  8
layer6
 10
0.0178
 20
-0.0072499999984999997
 30
0.0
 11
0.0123
 21
-0.0072499999984999997
 31
0.0
  0
LINE
  8
layer6
 10
0.0123
 20
-0.0072499999984999997
 30
0.0
 11
0.0123
 21
-0.0087499999984999993
 31
0.0
  0
LINE
  8
layer6
 10
0.0123
 20
-0.0087499999984999993
 30
0.0
 11
0.0178
 21
-0.0087499999984999993
 31
0.0
  0
LINE
  8
layer6
 10
0.0178
 20
-0.0087499999984999993
 30
0.0
 11
0.0178
 21
-0.0092499999985000015
 31
0.0
  0
LINE
  8
layer6
 10
0.0178
 20
-0.0092499999985000015
 30
0.0
 11
0.0123
 21
-0.0092499999985000015
 31
0.0
  0
ENDSEC
  0
EOF
